<svg width="460" height="56" viewBox="0 0 460 56" fill="none" xmlns="http://www.w3.org/2000/svg">
<path d="M413.042 21.0875C412.441 21.12 411.833 21.1423 411.244 21.191C410.861 21.2214 410.698 21.1322 410.443 21.0855C410.357 21.0692 410.266 21.0367 410.187 21.0408C409.592 21.0733 408.997 21.1098 408.402 21.1464C408.219 21.2255 408.104 21.331 407.825 21.3696C407.551 21.4061 407.229 21.4061 406.926 21.4244C406.525 21.4467 406.124 21.4691 405.723 21.4894C405.523 21.4995 405.359 21.5381 405.292 21.6111C405.28 21.6233 405.413 21.6538 405.486 21.672C405.729 21.7329 405.966 21.8019 406.233 21.8486C406.488 21.8932 406.804 21.8202 407.078 21.877C407.691 22.0049 407.697 22.0029 408.165 21.9785C408.566 21.9562 408.967 21.9318 409.367 21.9156C409.446 21.9115 409.537 21.942 409.622 21.9582C409.878 22.0029 410.042 22.1043 410.418 22.0658C410.704 22.0353 411.019 22.0292 411.317 22.013C411.566 22.0719 411.797 22.1388 412.064 22.1855C412.313 22.2302 412.386 22.2647 412.252 22.3236C412.131 22.3784 411.961 22.4007 411.736 22.4047C411.536 22.4068 411.335 22.425 411.135 22.4352C411.032 22.4413 410.934 22.4453 410.837 22.4514C410.455 22.4737 410.455 22.4737 409.756 22.3438C409.483 22.2931 409.173 22.3641 408.912 22.3154C408.736 22.2829 408.584 22.2342 408.414 22.1997C408.341 22.1855 408.226 22.1835 408.134 22.1876C407.831 22.2018 407.527 22.2119 407.236 22.2383C407.029 22.2566 406.908 22.3134 406.932 22.3702C406.938 22.3926 407.084 22.425 407.169 22.4271C407.363 22.4311 407.569 22.4027 407.758 22.4169C407.94 22.4311 408.128 22.4717 408.262 22.5164C408.535 22.6097 408.845 22.5265 409.106 22.5509C409.379 22.5773 409.604 22.6584 409.865 22.7072C409.932 22.7193 410.06 22.699 410.163 22.6929C410.461 22.6787 410.758 22.6666 411.056 22.6524C411.305 22.7112 411.572 22.764 411.797 22.831C412.204 22.9527 412.641 22.9994 413.17 22.9405C413.467 22.9081 413.759 22.9203 413.996 22.9994C414.239 23.0806 414.518 23.0725 414.828 23.0562C415.113 23.04 415.405 22.9954 415.696 23.0522C416.328 23.178 416.334 23.1841 417.081 23.1354C417.306 23.1212 417.476 23.1171 417.646 23.1638C417.804 23.2064 417.974 23.243 418.138 23.2836C418.436 23.2694 418.739 23.2552 419.037 23.2389C419.42 23.2166 419.632 23.245 419.723 23.3587C419.778 23.4277 419.802 23.4906 419.936 23.5373C420.094 23.5941 420.264 23.5921 420.495 23.5758C420.713 23.5616 420.871 23.5393 420.962 23.4662C420.999 23.4358 421.072 23.4074 421.138 23.383C421.193 23.3647 421.278 23.3363 421.327 23.3404C421.418 23.3485 421.539 23.3708 421.57 23.3972C421.867 23.6428 421.867 23.6448 422.171 23.7159C422.505 23.795 422.851 23.8661 423.155 23.9554C423.428 24.0345 423.702 24 423.999 24C424.224 24 424.37 24.0528 424.351 24.1056C424.339 24.136 424.254 24.1807 424.181 24.1847C423.586 24.2253 422.985 24.2598 422.384 24.2882C422.311 24.2923 422.22 24.2558 422.135 24.2375C421.965 24.201 421.813 24.1441 421.63 24.1319C421.448 24.1198 421.236 24.1502 421.035 24.1604C420.835 24.1705 420.622 24.1969 420.44 24.1807C420.258 24.1644 420.112 24.1056 419.942 24.067C419.863 24.0487 419.754 24.0224 419.687 24.0285C419.243 24.0772 418.915 24.0102 418.6 23.9209C418.533 23.9026 418.417 23.8904 418.332 23.8945C417.628 23.929 416.929 23.9696 416.225 24.0081C415.939 24.0244 415.708 23.9533 415.648 23.8336C415.617 23.7666 415.557 23.6996 415.557 23.6327C415.557 23.5109 415.223 23.4439 414.98 23.4581C414.579 23.4784 414.172 23.4946 413.777 23.5251C413.455 23.5494 413.182 23.5251 412.963 23.452C412.708 23.3688 412.417 23.385 412.125 23.4074C411.906 23.4236 411.845 23.4906 411.858 23.659C411.87 23.795 411.766 23.8376 411.372 23.86C410.874 23.8884 410.369 23.9168 409.865 23.9391C409.786 23.9432 409.695 23.9087 409.616 23.8904C409.446 23.8539 409.294 23.795 409.112 23.7828C408.93 23.7686 408.717 23.7991 408.517 23.8113C408.317 23.8214 408.104 23.8498 407.922 23.8356C407.74 23.8214 407.588 23.7605 407.424 23.722C407.345 23.7037 407.248 23.6773 407.169 23.6814C406.768 23.6976 406.367 23.722 405.966 23.7443C405.517 23.7687 405.517 23.7687 404.879 23.6428C404.587 23.586 404.296 23.6306 404.01 23.6469C403.707 23.6631 403.421 23.6712 403.184 23.59C403.026 23.5373 402.85 23.5048 402.662 23.5149C402.158 23.5393 401.66 23.5697 401.156 23.5941C401.071 23.5982 400.955 23.588 400.888 23.5697C400.566 23.4845 400.251 23.4175 399.801 23.4601C399.412 23.4967 398.993 23.4987 398.605 23.5332C398.392 23.5515 398.295 23.6164 398.337 23.6672C398.362 23.6936 398.489 23.724 398.574 23.724C398.769 23.726 398.981 23.6956 399.163 23.7078C399.54 23.7321 399.728 23.9026 400.22 23.8559C400.512 23.8275 400.815 23.8174 401.119 23.8092C401.198 23.8072 401.283 23.8458 401.368 23.8661C401.611 23.9209 401.824 23.9919 402.176 23.9554C402.467 23.9269 402.777 23.9189 403.075 23.9026C403.549 23.8762 403.549 23.8783 404.162 24.0021C404.454 24.0609 404.745 24.0142 405.031 24C405.243 23.9899 405.444 23.9696 405.614 23.998C405.875 24.0406 406.063 24.138 406.385 24.1319C406.689 24.1259 406.986 24.0974 407.29 24.0873C407.478 24.0812 407.655 24.1137 407.806 24.1685C407.964 24.2233 408.134 24.2476 408.341 24.2355C408.638 24.2192 408.942 24.1989 409.246 24.1888C409.331 24.1867 409.428 24.205 409.507 24.2213C409.677 24.2578 409.841 24.3004 410.005 24.339C410.303 24.3268 410.606 24.3227 410.898 24.2984C411.123 24.2801 411.281 24.2882 411.463 24.3288C411.694 24.3836 411.882 24.4811 412.259 24.4344C412.447 24.4121 412.665 24.4181 412.854 24.3978C413.085 24.3714 413.242 24.3816 413.406 24.4425C413.716 24.5582 414.105 24.5602 414.506 24.5155C414.943 24.4668 415.271 24.5237 415.599 24.613C415.945 24.7064 415.945 24.7043 416.213 24.9296C416.292 24.9945 416.516 25.025 416.704 25.0128C417.02 24.9925 417.294 25.0027 417.525 25.0798C417.767 25.163 418.059 25.1529 418.357 25.1305C418.751 25.1001 419.146 25.0737 419.468 25.1914C419.626 25.2483 419.796 25.2624 420.009 25.2482C420.61 25.2117 421.217 25.1894 421.807 25.1448C422.165 25.1163 422.371 25.1813 422.614 25.2361C422.942 25.3112 423.301 25.3781 423.301 25.5385C423.301 25.5649 423.386 25.5953 423.459 25.6156C423.617 25.6582 423.787 25.6948 423.951 25.7354C424.194 25.7962 424.43 25.847 424.764 25.8145C425.056 25.7881 425.366 25.78 425.663 25.7617C425.961 25.7435 426.234 25.7333 426.502 25.8105C426.811 25.8977 427.139 25.9809 427.492 26.0459C427.741 26.0926 428.069 26.0134 428.336 26.0763C428.5 26.1149 428.658 26.1596 428.834 26.192C428.907 26.2062 429.022 26.1961 429.119 26.192C429.32 26.1839 429.526 26.1778 429.721 26.1575C429.945 26.1352 430.116 26.1393 430.286 26.186C430.444 26.2286 430.601 26.2874 430.784 26.2996C431.057 26.3179 431.361 26.2367 431.634 26.3301C431.774 26.3767 431.95 26.4214 432.132 26.4356C432.314 26.4498 432.527 26.4193 432.721 26.4214C432.806 26.4214 432.909 26.4539 432.958 26.4802C432.988 26.4944 432.946 26.533 432.903 26.5533C432.849 26.5777 432.77 26.6101 432.691 26.6142C432.089 26.6507 431.488 26.6812 430.887 26.7157C430.529 26.736 430.529 26.736 429.806 26.6081C429.636 26.5777 429.447 26.5837 429.235 26.598C428.949 26.6162 428.658 26.6507 428.36 26.6142C427.971 26.4762 427.492 26.464 426.981 26.5168C426.769 26.5391 426.574 26.5391 426.417 26.5005C426.082 26.4234 425.73 26.3524 425.433 26.2611C425.202 26.19 425.092 26.1839 424.995 26.2813C424.965 26.3118 424.935 26.3443 424.941 26.3727C424.977 26.4741 425.044 26.5736 425.08 26.6751C425.092 26.7035 425.044 26.736 425.014 26.7664C424.916 26.8517 424.789 26.8456 424.576 26.7745C424.364 26.7035 424.109 26.6568 423.768 26.6893C423.477 26.7177 423.161 26.7137 422.869 26.7441C422.42 26.7888 422.104 26.7238 421.782 26.6365C421.715 26.6183 421.6 26.6081 421.515 26.6122C420.61 26.6589 419.711 26.7116 418.806 26.7583C418.612 26.7684 418.436 26.738 418.284 26.6832C418.126 26.6284 417.95 26.6 417.755 26.6101C416.953 26.6528 416.152 26.6913 415.35 26.7441C415.022 26.7664 414.761 26.74 414.536 26.669C414.366 26.6162 414.208 26.6 413.996 26.6061C413.765 26.6122 413.601 26.6325 413.485 26.6913C413.376 26.7482 413.455 26.7827 413.698 26.8273C413.959 26.876 414.202 26.9389 414.451 26.9958C414.652 26.9877 414.852 26.9714 415.046 26.9734C415.131 26.9734 415.21 27.01 415.295 27.0303C415.538 27.0891 415.763 27.148 416.109 27.1155C416.401 27.0871 416.711 27.081 417.008 27.0627C417.421 27.0404 417.421 27.0404 418.089 27.1683C418.259 27.2008 418.442 27.1987 418.66 27.1805C418.849 27.1663 419.043 27.1947 419.177 27.2556C419.231 27.2799 419.213 27.3205 419.098 27.4545C419.098 27.5539 419.225 27.5093 419.268 27.4443C419.334 27.351 419.207 27.3205 418.964 27.3713C418.794 27.4078 418.709 27.4606 418.751 27.5032C418.776 27.5255 418.891 27.5539 419.098 27.4545C419.632 27.3327 420.039 27.3185 420.428 27.286C420.659 27.2677 420.804 27.2758 420.987 27.3286C421.205 27.3915 421.424 27.4585 421.782 27.4261C422.171 27.3895 422.584 27.3854 422.979 27.355C423.343 27.3266 423.532 27.4159 423.762 27.4687C424.042 27.5316 424.351 27.4606 424.607 27.4971C424.874 27.5336 425.062 27.6229 425.372 27.6392C425.821 27.5844 426.107 27.6859 426.447 27.7528C426.714 27.8036 427.03 27.7589 427.315 27.7366C427.637 27.7122 427.905 27.7346 428.129 27.8076C428.384 27.8908 428.67 27.8726 428.962 27.8543C429.642 27.8137 429.666 27.8076 430.061 27.9192C430.346 28.0004 430.62 27.9639 430.905 27.9538C431.154 28.0086 431.397 28.0674 431.658 28.1161C431.725 28.1283 431.853 28.108 431.956 28.1019C432.254 28.0857 432.557 28.0694 432.855 28.0532C433.055 28.0431 433.268 28.0126 433.45 28.0248C433.632 28.039 433.784 28.0979 433.948 28.1364C434.112 28.175 434.282 28.2136 434.44 28.2541C434.683 28.315 434.914 28.3658 435.254 28.3353C435.545 28.3089 435.849 28.3008 436.153 28.2826C436.535 28.2602 436.523 28.2663 437.234 28.3881C437.617 28.4551 438.011 28.3739 438.4 28.3658C438.594 28.3617 438.783 28.3841 438.916 28.4429C438.971 28.4673 438.953 28.5079 438.971 28.5424C437.969 28.5972 436.961 28.6438 435.971 28.7108C435.588 28.7372 435.388 28.6641 435.181 28.6032C434.841 28.5058 434.391 28.6479 434.07 28.522C433.875 28.4469 433.596 28.4043 433.262 28.4409C433.067 28.4612 432.861 28.4591 432.66 28.4774C432.15 28.5221 431.682 28.5241 431.276 28.384C431.136 28.3353 430.936 28.309 430.79 28.2623C430.62 28.2115 430.456 28.1831 430.255 28.1932C429.35 28.242 428.451 28.2907 427.552 28.3434C427.473 28.3475 427.394 28.3779 427.328 28.4003C427.158 28.4571 427.212 28.5018 427.486 28.5383C427.577 28.5505 427.65 28.5768 427.735 28.5971C427.899 28.6357 428.05 28.6966 428.233 28.7108C428.415 28.725 428.628 28.6966 428.828 28.6865C429.028 28.6763 429.241 28.6459 429.423 28.658C429.605 28.6722 429.757 28.7311 429.927 28.7676C430.006 28.7859 430.103 28.8164 430.182 28.8143C430.583 28.8021 430.978 28.7798 431.379 28.7616C431.628 28.8164 431.841 28.8955 432.138 28.9138C432.326 28.926 432.527 28.9036 432.721 28.9077C432.806 28.9097 432.915 28.9402 432.958 28.9665C432.982 28.9828 432.903 29.0234 432.843 29.0437C432.612 29.1208 432.296 29.1066 432.011 29.1309C431.701 29.1573 431.421 29.1492 431.185 29.0701C431.027 29.0173 430.85 28.9889 430.656 28.999C430.152 29.0254 429.654 29.0559 429.15 29.0782C429.065 29.0822 428.961 29.064 428.883 29.0498C428.245 28.926 428.245 28.9219 427.795 28.9483C427.133 28.9869 427.133 28.9868 426.69 28.8793C426.605 28.859 426.514 28.8204 426.441 28.8225C425.736 28.8549 425.038 28.8874 424.339 28.9341C424.108 28.9483 423.951 28.9483 423.781 28.8955C423.635 28.8509 423.465 28.8001 423.282 28.7879C423.094 28.7758 422.888 28.8062 422.687 28.8164C422.487 28.8265 422.274 28.8529 422.098 28.8366C421.916 28.8204 421.758 28.7636 421.6 28.723C421.436 28.6804 421.26 28.6824 421.035 28.6986C420.343 28.7453 420.337 28.7392 419.65 28.6134C419.571 28.5992 419.468 28.5829 419.383 28.587C418.879 28.6114 418.381 28.6418 417.877 28.6662C417.682 28.6763 417.494 28.6499 417.361 28.5911C417.306 28.5667 417.324 28.5261 417.288 28.4469C417.245 28.4287 417.294 28.4612 417.306 28.4916C417.397 28.4876 417.506 28.4916 417.573 28.4754C417.743 28.4368 417.828 28.3861 417.786 28.3434C417.761 28.3211 417.646 28.2927 417.573 28.2927C417.44 28.2927 417.324 28.3373 417.288 28.4469C416.905 28.5139 416.498 28.5281 416.103 28.5606C415.872 28.5809 415.727 28.5708 415.544 28.518C415.326 28.4531 415.101 28.3901 414.743 28.4226C414.354 28.4591 413.941 28.4652 413.54 28.4937C413.078 28.5261 412.878 28.3434 412.489 28.3475C412.088 28.3516 411.688 28.3861 411.287 28.4104C410.934 28.4307 410.934 28.4307 410.206 28.2988C409.938 28.2501 409.622 28.3211 409.361 28.2704C409.185 28.2379 409.033 28.1892 408.863 28.1547C408.79 28.1405 408.675 28.1405 408.584 28.1445C408.08 28.1689 407.57 28.1851 407.084 28.2298C406.531 28.2826 406.112 28.2257 405.717 28.106C405.219 28.1283 404.715 28.1405 404.223 28.179C403.865 28.2075 403.658 28.1405 403.415 28.0857C403.33 28.0674 403.257 28.037 403.166 28.0289C403.075 28.0207 402.965 28.037 402.868 28.0431C402.467 28.0654 402.054 28.0755 401.666 28.1121C401.186 28.1588 401.004 27.9923 400.633 27.972C400.384 28.0715 400.251 28.2075 399.759 28.2176C399.358 28.2257 398.957 28.2582 398.556 28.2805C398.356 28.2907 398.155 28.3029 397.955 28.313C397.633 28.3313 397.481 28.4104 397.548 28.5322C397.584 28.5992 397.615 28.6662 397.645 28.7331C397.706 28.8529 397.554 28.9544 397.299 28.9686C396.594 29.0071 395.896 29.0477 395.191 29.0822C395.003 29.0924 394.821 29.0579 394.669 29.0031C394.511 28.9483 394.335 28.9239 394.14 28.9341C393.436 28.9726 392.737 29.0132 392.033 29.0477C391.954 29.0518 391.851 29.0315 391.772 29.0153C391.602 28.9787 391.438 28.9361 391.273 28.8975C390.873 28.9158 390.478 28.928 390.083 28.9523C389.445 28.9889 389.445 28.9909 388.978 28.8793C388.893 28.859 388.808 28.8204 388.729 28.8225C388.425 28.8306 388.127 28.8509 387.824 28.8691C386.931 28.9219 386.931 28.9219 386.67 28.861C386.433 28.8042 386.22 28.7352 385.862 28.7676C385.473 28.8042 385.06 28.8164 384.659 28.8366C384.361 28.8509 384.064 28.8671 383.766 28.8712C383.687 28.8732 383.602 28.8346 383.517 28.8143C383.274 28.7514 383.037 28.7007 382.703 28.7352C382.509 28.7555 382.302 28.7595 382.102 28.7697C381.58 28.7981 381.58 28.7981 380.723 28.6763C380.638 28.6641 380.535 28.6499 380.45 28.656C379.745 28.6925 379.047 28.7331 378.342 28.7676C378.257 28.7717 378.154 28.7595 378.069 28.7494C377.109 28.6316 377.109 28.6317 376.089 28.6885C375.7 28.7088 375.688 28.7169 375.281 28.6093C375.099 28.5626 374.947 28.5403 374.735 28.5545C373.933 28.6032 373.125 28.6357 372.329 28.6926C371.971 28.7169 371.764 28.656 371.521 28.6012C371.436 28.5829 371.345 28.5424 371.272 28.5444C370.471 28.583 369.669 28.6296 368.867 28.6682C368.794 28.6723 368.703 28.6317 368.618 28.6134C368.454 28.5769 368.296 28.5221 368.114 28.5099C367.926 28.4977 367.719 28.5282 367.513 28.5383C367.009 28.5647 367.009 28.5627 366.425 28.4429C366.346 28.4267 366.243 28.4043 366.164 28.4084C365.363 28.449 364.555 28.4835 363.759 28.5424C363.304 28.5748 362.994 28.516 362.672 28.4307C362.605 28.4125 362.49 28.4043 362.405 28.4084C361.5 28.4551 360.601 28.5078 359.696 28.5545C359.507 28.5647 359.325 28.5302 359.173 28.4774C358.93 28.3942 358.645 28.4043 358.341 28.4226C357.643 28.4652 357.637 28.4632 357.224 28.3658C357.139 28.3455 357.066 28.3191 356.975 28.3089C356.89 28.2988 356.78 28.3049 356.689 28.3089C356.288 28.3292 355.888 28.3516 355.487 28.3739C355.086 28.3962 354.679 28.4084 354.284 28.4429C353.798 28.4855 353.567 28.3536 353.227 28.2927C352.729 28.3191 352.219 28.3353 351.727 28.3779C351.35 28.4104 351.174 28.3211 350.925 28.2744C350.84 28.2582 350.749 28.2237 350.67 28.2278C349.765 28.2724 348.86 28.3211 347.961 28.3759C347.742 28.3881 347.597 28.3719 347.415 28.3231C347.008 28.2135 346.989 28.2176 346.309 28.2582C346.011 28.2765 345.726 28.2927 345.471 28.2095C345.246 28.1344 344.973 28.1161 344.651 28.1405C344.256 28.1709 343.849 28.1872 343.448 28.2075C343.047 28.2298 342.647 28.2602 342.246 28.2704C341.924 28.2805 341.729 28.1851 341.474 28.1364C341.395 28.1222 341.286 28.1202 341.195 28.1242C340.794 28.1425 340.381 28.1567 339.992 28.1912C339.519 28.2338 339.257 28.1222 338.923 28.0573C338.85 28.0431 338.729 28.0512 338.638 28.0573C337.933 28.0938 337.235 28.1344 336.53 28.173C336.281 28.1182 336.026 28.0654 335.777 28.0106C335.376 28.0309 334.975 28.0532 334.574 28.0735C334.271 28.0897 333.961 28.0958 333.676 28.1263C333.305 28.1669 333.123 28.0715 332.874 28.0248C332.789 28.0086 332.698 27.9741 332.619 27.9781C332.115 28.0004 331.61 28.0248 331.112 28.0593C330.639 28.0938 330.45 27.9111 330.062 27.9132C329.661 27.9152 329.248 27.9416 328.859 27.9781C328.41 28.0207 328.094 27.9558 327.772 27.8685C327.705 27.8502 327.59 27.8401 327.505 27.8442C327 27.8685 326.502 27.899 325.998 27.9233C325.913 27.9274 325.81 27.9172 325.725 27.9051C324.765 27.7853 324.765 27.7833 324.346 27.8076C324.049 27.8239 323.745 27.8442 323.441 27.8543C323.356 27.8584 323.253 27.8401 323.174 27.8239C322.542 27.7001 322.542 27.698 322.087 27.7224C321.686 27.7447 321.285 27.767 320.884 27.7893C320.635 27.7345 320.38 27.6818 320.131 27.627C319.633 27.6534 319.123 27.6737 318.631 27.7102C318.4 27.7264 318.248 27.7203 318.072 27.6696C317.853 27.6087 317.635 27.5377 317.27 27.5722C316.881 27.6087 316.468 27.6128 316.074 27.6432C315.6 27.6798 315.406 27.4951 315.023 27.4971C314.622 27.4991 314.209 27.5255 313.82 27.562C313.371 27.6047 313.055 27.5397 312.733 27.4524C312.666 27.4342 312.551 27.424 312.466 27.4281C311.36 27.487 310.261 27.5458 309.156 27.6087C308.475 27.6473 308.475 27.6493 307.182 27.5377C307.091 27.5296 306.993 27.5215 306.902 27.5255C306.501 27.5438 306.088 27.558 305.699 27.5925C305.226 27.6351 304.965 27.5255 304.63 27.4585C304.558 27.4443 304.442 27.4524 304.345 27.4565C304.041 27.4707 303.744 27.489 303.44 27.5052C303.039 27.5275 302.638 27.5499 302.237 27.5722C301.988 27.5194 301.733 27.4646 301.484 27.4118C300.986 27.4382 300.476 27.4524 299.984 27.4951C299.608 27.5275 299.431 27.4423 299.182 27.3936C299.097 27.3773 299.006 27.3428 298.927 27.3449C298.022 27.3895 297.117 27.4362 296.218 27.493C295.848 27.5174 295.678 27.426 295.429 27.3794C295.344 27.3652 295.247 27.3388 295.168 27.3428C294.566 27.3713 293.965 27.4058 293.364 27.4403C293.024 27.4606 293.024 27.4606 292.283 27.3347C292.198 27.3205 292.1 27.3063 292.015 27.3104C290.108 27.4118 288.207 27.5194 286.3 27.6209C286.105 27.631 285.929 27.6006 285.778 27.5458C285.62 27.491 285.443 27.4626 285.249 27.4727C284.447 27.5154 283.639 27.5539 282.844 27.6067C282.516 27.629 282.255 27.6026 282.03 27.5316C281.86 27.4788 281.702 27.4585 281.489 27.4707C281.089 27.4951 280.688 27.5154 280.287 27.5377C279.886 27.56 279.485 27.5823 279.084 27.6047C278.683 27.627 278.276 27.6392 277.882 27.6737C277.396 27.7163 277.159 27.5905 276.825 27.5275C276.223 27.558 275.622 27.5884 275.027 27.6209C274.225 27.6635 273.423 27.7102 272.622 27.7508C272.549 27.7549 272.458 27.7183 272.373 27.7001C272.124 27.6493 271.941 27.5783 271.571 27.6006C269.773 27.7082 267.963 27.7995 266.159 27.9051C265.783 27.9274 265.618 27.8401 265.363 27.7934C265.278 27.7792 265.181 27.7508 265.102 27.7549C264.1 27.8056 263.098 27.8624 262.096 27.9172C261.689 27.9395 261.689 27.9395 261.009 27.8137C260.93 27.7995 260.826 27.7812 260.741 27.7853C259.435 27.8543 258.135 27.9274 256.83 27.9984C256.635 28.0086 256.459 27.9801 256.301 27.9253C256.149 27.8705 255.967 27.8401 255.779 27.8502C254.576 27.9152 253.368 27.9781 252.171 28.0491C251.849 28.0694 251.582 28.0512 251.351 27.9781C251.187 27.9253 251.023 27.903 250.817 27.9152C249.013 28.0146 247.209 28.1101 245.405 28.2156C245.059 28.2359 244.816 28.1973 244.597 28.1303C244.421 28.0776 244.269 28.0674 244.05 28.0755C243.82 28.0857 243.68 28.108 243.552 28.1689C243.388 28.248 243.285 28.3475 242.896 28.3536C242.495 28.3597 242.089 28.3841 241.694 28.4186C241.317 28.4531 241.141 28.3617 240.904 28.3069C240.728 28.2684 240.564 28.2623 240.339 28.2805C240.133 28.2968 240.005 28.3313 239.884 28.3962C239.617 28.5342 239.592 28.5342 239.264 28.4469C239.088 28.4003 238.93 28.3637 238.736 28.3719C237.934 28.4124 237.132 28.4571 236.331 28.5038C235.869 28.5302 235.863 28.5342 235.517 28.4328C235.347 28.382 235.183 28.3576 234.982 28.3698C232.777 28.4916 230.573 28.6093 228.368 28.7372C228.028 28.7575 227.797 28.7149 227.554 28.654C227.475 28.6337 227.396 28.6053 227.305 28.5971C227.214 28.589 227.111 28.5971 227.013 28.6012C225.41 28.6885 223.8 28.7717 222.203 28.8691C221.838 28.8915 221.644 28.8265 221.395 28.7737C221.31 28.7555 221.237 28.7271 221.146 28.7189C221.055 28.7129 220.946 28.727 220.848 28.7331C219.245 28.8204 217.635 28.9036 216.038 29.0011C215.655 29.0234 215.491 28.9381 215.242 28.8935C215.157 28.8772 215.066 28.8468 214.987 28.8508C214.483 28.8732 213.985 28.9036 213.481 28.93C212.278 28.997 211.076 29.0599 209.873 29.1289C209.411 29.1553 209.211 28.9747 208.822 28.9828C208.318 28.9929 207.82 29.0335 207.316 29.0619C206.915 29.0843 206.514 29.1046 206.113 29.1289C205.719 29.1513 205.719 29.1512 204.735 29.0335C204.65 29.0234 204.546 29.0092 204.461 29.0132C203.058 29.0883 201.649 29.1634 200.252 29.2446C199.93 29.2629 199.663 29.2527 199.432 29.1776C199.268 29.1249 199.098 29.0985 198.898 29.1106C196.79 29.2263 194.688 29.342 192.581 29.4557C192.502 29.4598 192.399 29.4395 192.32 29.4232C192.15 29.3867 191.986 29.3441 191.822 29.3055C191.7 29.3522 191.542 29.3948 191.463 29.4476C191.354 29.5186 191.208 29.5389 190.977 29.5511C190.747 29.5633 190.601 29.5592 190.419 29.5064C190.2 29.4415 189.975 29.3907 189.617 29.411C187.412 29.5389 185.207 29.6546 183.002 29.7804C182.638 29.8007 182.468 29.7114 182.213 29.6647C182.128 29.6505 182.031 29.6282 181.952 29.6323C181.047 29.679 180.148 29.7297 179.243 29.7784C176.734 29.9164 174.226 30.0484 171.723 30.1945C171.268 30.2209 170.958 30.1701 170.636 30.0828C170.569 30.0646 170.454 30.0544 170.369 30.0585C166.858 30.2493 163.348 30.4421 159.843 30.6349C159.655 30.6451 159.473 30.6126 159.321 30.5598C159.163 30.505 158.987 30.4786 158.792 30.4888C157.189 30.576 155.585 30.6633 153.982 30.7526C153.581 30.775 153.575 30.777 153.162 30.6796C153.077 30.6593 152.986 30.6207 152.919 30.6248C152.779 30.6349 152.646 30.6856 152.548 30.7546C152.451 30.8277 152.299 30.848 152.075 30.8622C151.844 30.8764 151.692 30.8703 151.516 30.8216C151.291 30.7607 151.085 30.7019 150.72 30.7222C146.11 30.982 141.5 31.2316 136.89 31.4894C136.52 31.5097 136.35 31.4244 136.094 31.3778C136.009 31.3636 135.924 31.3432 135.833 31.3392C135.736 31.3351 135.633 31.3473 135.536 31.3534C128.016 31.7654 120.497 32.1795 112.978 32.5915C112.528 32.6158 112.534 32.6158 112.042 32.8026C111.981 32.8249 111.902 32.8553 111.817 32.8594C109.515 32.9893 107.207 33.1151 104.899 33.241C103.897 33.2957 102.895 33.3526 101.893 33.4054C101.535 33.4236 101.535 33.4236 100.678 33.6428C100.605 33.6611 100.52 33.6855 100.435 33.6895C96.4264 33.9107 92.4176 34.132 88.4028 34.3491C88.087 34.3654 87.8319 34.4019 87.6862 34.4993C87.5829 34.5683 87.4493 34.6089 87.2489 34.6211C84.4428 34.7754 81.6367 34.9317 78.8246 35.0818C78.4905 35.1001 78.29 35.1569 78.126 35.2422C78.0713 35.2706 78.0227 35.3031 77.9437 35.3234C77.8709 35.3416 77.7616 35.3477 77.6705 35.3538C75.2652 35.4857 72.8601 35.6217 70.4488 35.7476C70.0904 35.7658 69.9446 35.8409 69.7684 35.9201C69.7077 35.9465 69.6651 35.983 69.5862 36.0013C69.5072 36.0175 69.3918 36.0175 69.2946 36.0216C67.2903 36.1312 65.286 36.2428 63.2816 36.3524C62.8929 36.3423 62.8078 36.46 62.6195 36.531C62.5527 36.5554 62.5042 36.5878 62.4253 36.6041C62.3402 36.6203 62.2308 36.6183 62.1275 36.6223C60.524 36.7096 58.9206 36.803 57.311 36.8842C56.9405 36.9024 56.8676 37.0059 56.6672 37.077C56.6004 37.0993 56.5336 37.1338 56.4547 37.1399C55.4525 37.1988 54.4503 37.2535 53.4482 37.3063C53.1141 37.3246 53.1141 37.3226 52.5249 37.5235C52.4581 37.5458 52.3791 37.5702 52.2941 37.5763C50.7938 37.6615 49.2876 37.7427 47.7813 37.8259C47.5869 37.8361 47.4533 37.8848 47.3561 37.9538C47.2589 38.0228 47.1193 38.0674 46.9249 38.0776C45.7223 38.1446 44.5196 38.2136 43.3169 38.2745C42.9829 38.2907 42.7643 38.3414 42.6185 38.4328C42.5092 38.5018 42.3756 38.5363 42.163 38.5485C40.9604 38.6134 39.7578 38.6845 38.5491 38.7413C38.1968 38.7575 38.0145 38.8265 37.8688 38.9118C37.7533 38.9808 37.6197 39.0051 37.395 39.0173C35.1902 39.135 32.9794 39.2527 30.7807 39.3826C30.4102 39.405 30.2218 39.3339 29.9789 39.2832C29.6327 39.2121 29.3108 39.135 29.3108 38.9767C29.3108 38.9524 29.2076 38.9239 29.1347 38.9036C28.5941 38.7514 28.5941 38.7514 28.5091 38.5891C28.4605 38.4896 28.4058 38.3881 28.3633 38.2867C28.2843 38.1202 28.0899 38.0776 27.5311 38.108C27.3307 38.1182 27.1302 38.1324 26.9298 38.1405C26.6322 38.1547 26.4075 38.0877 26.3528 37.966C26.3225 37.899 26.2861 37.832 26.2557 37.765C26.5594 37.7488 26.5532 37.7468 27.0877 37.5012C27.3125 37.3977 27.3126 37.3977 26.8813 37.2942C26.7173 37.2556 26.5594 37.213 26.3832 37.1764C26.3043 37.1602 26.2011 37.15 26.116 37.1541C25.6119 37.1785 25.1139 37.2069 24.6158 37.2353C23.8141 37.2799 23.814 37.2799 23.0001 37.0729C22.9333 37.0567 22.83 37.0262 22.8421 37.01C22.909 36.9349 23.0729 36.9024 23.2794 36.8943C23.5831 36.8821 23.8807 36.8618 24.1784 36.8456C24.3788 36.8354 24.5792 36.8233 24.7797 36.8131C24.9679 36.736 25.1624 36.6609 25.3386 36.5817C25.6179 36.46 25.6178 36.4559 25.2352 36.3707C24.9922 36.3138 24.7311 36.2631 24.482 36.2103C24.1844 36.2265 23.8808 36.2448 23.5831 36.259C23.2066 36.2773 23.0547 36.2387 22.9575 36.1068C22.8725 35.9911 22.9757 35.8917 23.2673 35.8673C23.5649 35.843 23.8444 35.8267 23.9963 35.7232C24.142 35.6238 24.3971 35.5852 24.7129 35.5771C24.9134 35.571 25.1138 35.5568 25.3142 35.5446C25.5754 35.5284 25.7151 35.4249 25.6605 35.3092C25.6301 35.2341 25.5694 35.1711 25.3325 35.1549C24.2817 35.0839 24.2695 35.0859 23.7471 34.9479C23.6986 34.9357 23.6622 34.8992 23.6804 34.8809C23.7108 34.8505 23.7776 34.8058 23.8505 34.7997C24.549 34.7551 25.2474 34.7145 25.9459 34.684C26.1767 34.6739 26.3468 34.6597 26.4258 34.5846C26.5351 34.4811 26.4865 34.3857 26.2739 34.3146C26.2071 34.2923 26.0977 34.2639 26.0248 34.2659C25.2231 34.3025 24.4274 34.3491 23.6257 34.3857C23.5528 34.3897 23.4193 34.3552 23.3889 34.3289C23.3281 34.2801 23.4192 34.2152 23.6318 34.1929C23.9112 34.1624 24.1966 34.1604 24.3849 34.0589C24.6461 33.9148 24.968 33.7829 25.2595 33.6449C25.3081 33.6205 25.3872 33.5738 25.3689 33.5698C25.2171 33.5251 25.0409 33.4906 24.883 33.448C24.6158 33.3769 24.6157 33.2775 24.6765 33.1821C24.725 33.105 24.9073 33.0745 25.132 33.0745C25.2292 33.0745 25.3506 33.0745 25.4296 33.0563C25.6361 33.0116 25.7029 32.9548 25.5997 32.9122C25.5389 32.8878 25.4297 32.8533 25.3568 32.8574C24.057 32.9244 22.751 32.9893 21.4573 33.0725C21.0747 33.0969 20.8986 33.0197 20.6678 32.9649C20.4917 32.9223 20.3276 32.9061 20.1089 32.9365C19.9024 32.9649 19.7021 32.9487 19.5745 32.8817C19.4713 32.8269 19.6534 32.7802 20.1454 32.7275C20.2365 32.7173 20.3397 32.7112 20.4065 32.6909C21.1111 32.4717 21.1111 32.4697 21.597 32.4413C22.0707 32.4149 22.0709 32.4129 22.3199 32.2952C22.4353 32.2404 22.5627 32.1855 22.6721 32.1287C22.7146 32.1064 22.7876 32.0658 22.7633 32.0536C22.6296 31.9907 22.4474 31.9765 22.2348 31.9907C21.761 32.0252 21.2023 31.9968 20.9533 32.1896C20.8561 32.2627 20.7042 32.283 20.4856 32.2952C18.2869 32.4129 16.0881 32.5387 13.8833 32.6524C13.5249 32.6706 13.361 32.7457 13.2213 32.829C13.0999 32.898 12.9662 32.9183 12.7354 32.9304C12.5046 32.9426 12.3223 32.9487 12.1887 32.8817C12.1097 32.8411 12.1765 32.7843 12.3587 32.7275C12.6199 32.6463 12.5713 32.5448 12.4863 32.4494C12.4255 32.3865 12.2373 32.3418 12.0368 32.3459C11.7392 32.354 11.4538 32.3763 11.2048 32.2952C11.059 32.2485 10.8768 32.216 10.7128 32.1754C10.3969 32.0922 10.0811 32.0069 9.63769 32.0617C9.334 32.0414 9.12142 31.9684 8.87846 31.9116C8.47152 31.8182 8.43508 31.804 8.72662 31.7045C9.05461 31.5929 8.79946 31.4468 8.98167 31.3372C9.17603 31.2194 9.44337 31.1159 9.68025 31.0063C9.74099 30.9779 9.79568 30.9515 9.85641 30.9231C9.71672 30.8825 9.58919 30.8318 9.4252 30.8034C9.21261 30.7668 9.10328 30.7222 9.11543 30.5964C9.07291 30.5781 9.09101 30.6248 9.1396 30.6369C9.19426 30.6491 9.32799 30.639 9.3948 30.6248C9.56486 30.5862 9.64981 30.5355 9.60729 30.4928C9.583 30.4705 9.46768 30.4421 9.3948 30.4421C9.26117 30.4421 9.14579 30.4868 9.10935 30.5964C8.42908 30.6796 7.7244 30.7202 7.01984 30.7526C6.94696 30.7567 6.8559 30.7161 6.77087 30.6958C6.49147 30.6268 6.49144 30.6288 5.67147 30.6085C5.58644 30.6065 5.4711 30.5781 5.42858 30.5497C5.25244 30.4259 5.25856 30.2899 5.17353 30.1579C5.33145 30.0727 5.48924 29.9895 5.65324 29.9063C5.98122 29.7378 6.40648 29.5897 6.66158 29.405C6.60692 29.3055 6.53402 29.2061 6.80127 29.1249C7.56049 29.0234 7.55447 29.0234 7.76098 28.926C8.35014 28.6499 8.93319 28.3719 9.54664 28.0999C9.71064 28.0289 9.71066 27.9903 9.41912 27.9599C9.32801 27.9517 9.2307 27.9497 9.13352 27.9538C8.82983 27.968 8.52614 28.0045 8.22853 27.9964C7.93091 27.9903 7.71225 27.901 7.4693 27.8462C7.22027 27.7894 6.97126 27.7305 6.72223 27.6716C6.43676 27.6777 6.15135 27.7346 5.86588 27.6432C5.64722 27.5722 5.37392 27.5214 5.12489 27.4626C5.31318 27.3083 5.66551 27.1906 5.93883 27.0546C6.18786 26.9308 6.1938 26.9329 6.86192 26.8375C7.17776 26.7928 7.28709 26.5634 7.01984 26.4965C6.69793 26.4153 6.35787 26.3402 6.02988 26.2631C5.74441 26.2691 5.45293 26.324 5.17961 26.2326C4.96703 26.1636 4.72403 26.1169 4.37174 26.1433C3.77651 26.188 3.16915 26.2103 2.56784 26.2468C2.36133 26.259 2.13653 26.2509 2.04543 26.1819C1.98469 26.1332 2.16084 26.0662 2.36128 26.052C2.66497 26.0317 2.93826 26.0073 3.0901 25.9059C3.23588 25.8044 3.50309 25.7739 3.81893 25.7597C3.90397 25.7557 4.00122 25.7313 4.04373 25.7069C4.26239 25.5892 4.50536 25.4878 4.97305 25.4918C5.16741 25.4512 5.2706 25.4005 5.20986 25.3518C5.17342 25.3254 5.04593 25.2909 4.97305 25.2949C4.46892 25.3152 3.96481 25.3355 3.47283 25.3721C3.24203 25.3883 3.06579 25.3924 2.92002 25.3315C2.81677 25.2909 2.87142 25.2361 3.06579 25.1772C3.23585 25.1265 3.2845 25.0676 3.27235 24.9986C3.24198 24.8383 3.05973 24.7916 2.47664 24.8017C2.05755 24.8098 1.95429 24.7835 1.86318 24.6454C1.83889 24.613 1.77826 24.5683 1.82077 24.546C2.08195 24.408 2.25203 24.2375 2.744 24.1725C2.93837 24.1482 3.14479 24.1482 3.26627 24.0954C3.38775 24.0426 3.49713 23.9817 3.62468 23.931C3.7826 23.8701 3.89182 23.8133 3.81893 23.7747C3.69746 23.7057 3.50316 23.6996 3.27843 23.724C3.08407 23.7443 2.87756 23.7463 2.67713 23.7585C2.31877 23.7808 2.02729 23.7281 1.98478 23.6388C1.86938 23.4033 1.74786 23.1699 1.64461 22.9345C1.63246 22.9061 1.66275 22.8695 1.71134 22.8452C1.8814 22.7599 2.06369 22.6787 2.23983 22.5955C2.44634 22.5001 2.77438 22.5184 3.05377 22.5001C3.44857 22.4737 3.44844 22.4758 3.97686 22.2809C4.18337 22.2038 4.54174 22.2342 4.75432 22.1652C4.82114 22.1429 4.92439 22.1064 4.90617 22.0861C4.88187 22.0597 4.76046 22.0394 4.66935 22.0272C4.58432 22.015 4.48109 22.009 4.38998 22.015C3.28455 22.0739 2.18522 22.1368 1.07979 22.1937C0.891498 22.2038 0.684982 22.1592 0.61817 22.0962C0.551359 22.0374 0.569521 21.9663 0.557373 21.8993C0.733514 21.8161 0.933872 21.739 1.08572 21.6497C1.20112 21.5807 1.33477 21.5502 1.56557 21.5462C1.86926 21.5401 2.16691 21.5157 2.50704 21.4975C3.13872 21.2011 3.75821 20.8906 4.43847 20.5943C4.71179 20.4745 4.64509 20.3528 4.69975 20.2249C4.75442 20.1072 5.16134 20.1255 5.43466 20.091C5.65332 20.0625 5.72611 19.9976 5.64108 19.9529C5.59249 19.9265 5.48322 19.8961 5.39818 19.8961C5.19775 19.8961 4.99732 19.9144 4.79688 19.9245C4.59645 19.9347 4.36565 19.9286 4.20166 19.9631C4.04374 19.9956 3.94043 20.0645 3.83717 20.1234C3.72177 20.1884 3.57003 20.2107 3.33923 20.2148C3.04161 20.2188 2.74401 20.2371 2.44639 20.2513C2.11841 20.1721 1.7782 20.095 1.46236 20.0118C1.40163 19.9956 1.38941 19.9489 1.39549 19.9184C1.40764 19.8393 1.31655 19.7906 1.11612 19.752C0.94605 19.7195 0.80634 19.6728 0.648421 19.6322C0.769897 19.5774 0.903568 19.5247 1.00075 19.4658C1.21333 19.342 1.48061 19.2527 1.94222 19.2568C2.12443 19.1776 2.27016 19.0802 2.50704 19.0254C2.73177 18.9726 3.11444 19.0254 3.28451 18.9056C3.36954 18.8468 3.49716 18.7798 3.66116 18.7554C3.92233 18.7169 4.26246 18.7372 4.4143 18.6235C4.50541 18.5586 4.63898 18.4997 4.81512 18.4835C5.01556 18.4652 5.22201 18.4612 5.36778 18.4226C5.44674 18.4023 5.53179 18.3698 5.53179 18.3414C5.53179 18.3231 5.41041 18.2947 5.32537 18.2825C5.24641 18.2683 5.14304 18.2582 5.05193 18.2622C4.74824 18.2744 4.45063 18.2967 4.14694 18.3089C4.06191 18.313 3.96476 18.2988 3.87365 18.2866C3.6064 18.2541 3.62459 18.2135 3.83717 18.1405C4.04976 18.0694 4.20168 17.9781 4.37782 17.8949C4.57219 17.8807 4.8151 17.8868 4.94873 17.8482C5.17346 17.7853 5.33134 17.6939 5.51355 17.6148C5.71399 17.6026 5.92048 17.5986 6.10877 17.5762C6.18773 17.5681 6.2242 17.5235 6.29102 17.4971C6.41249 17.4463 6.51583 17.3733 6.67982 17.3489C6.94707 17.3124 7.27505 17.3266 7.43297 17.2149C7.52408 17.15 7.66372 17.081 7.83379 17.0769C8.30754 17.0688 8.50799 16.9572 8.75094 16.8516C8.93315 16.7725 9.32189 16.8131 9.52232 16.7339C9.65595 16.6832 9.75319 16.6203 9.88681 16.5715C9.94148 16.5512 10.0568 16.5411 10.1479 16.535C10.646 16.5046 11.1501 16.4822 11.6482 16.4498C11.7271 16.4437 11.8001 16.4132 11.8608 16.3889C11.9884 16.3361 12.0672 16.263 12.2251 16.2285C12.3831 16.194 12.6078 16.194 12.8021 16.1839C13.4277 16.1535 13.4764 16.1616 13.7618 15.989C13.9926 15.849 14.5576 15.9485 14.7459 15.7942C14.8552 15.7049 15.0555 15.6318 15.4139 15.6217C15.918 15.6075 16.4161 15.5689 16.9202 15.5425C17.3696 15.5182 17.3636 15.5182 17.8495 15.3294C18.0682 15.2442 18.3901 15.2563 18.6756 15.2401C18.9793 15.2239 19.2587 15.1995 19.4044 15.098C19.5502 14.9986 19.8174 14.9661 20.1272 14.9519C20.4126 14.9377 20.7346 14.9479 20.9594 14.8667C21.506 14.6718 21.4999 14.6698 21.8826 14.6495C22.4839 14.617 23.0852 14.5845 23.6865 14.55C24.0874 14.5277 24.5064 14.5237 24.883 14.479C25.1563 14.4465 25.2778 14.3329 25.4539 14.2537C25.952 14.2233 26.45 14.1928 26.9481 14.1644C27.6465 14.1238 28.3511 14.0873 29.0556 14.0487C29.3593 13.9716 29.4019 13.8011 29.9121 13.793C30.2158 13.7889 30.5135 13.7625 30.8171 13.7463C31.3213 13.7179 31.8193 13.6814 32.3234 13.6671C32.7061 13.657 32.7728 13.5474 32.9732 13.4784C33.04 13.454 33.1008 13.4195 33.1798 13.4134C33.9694 13.3566 34.7832 13.3444 35.5546 13.2612C35.6336 13.2531 35.7065 13.2105 35.7247 13.18C35.7368 13.1638 35.6336 13.1334 35.5668 13.1192C35.4878 13.1029 35.3846 13.0867 35.2995 13.0907C32.7911 13.2267 30.2826 13.3647 27.7742 13.5007C27.4219 13.521 27.4219 13.519 26.5655 13.7422C26.4926 13.7605 26.4075 13.7808 26.3164 13.7869C25.9155 13.8112 25.5085 13.8255 25.1138 13.8559C24.7918 13.8803 24.5247 13.8559 24.2939 13.7828C24.1299 13.7301 23.9597 13.7138 23.7532 13.7179C23.5224 13.724 23.3707 13.7463 23.237 13.8011C23.0609 13.8762 22.9698 13.9736 22.5993 13.9939C20.8925 14.0812 19.1857 14.1786 17.485 14.272C17.2481 14.2436 17.1327 14.2009 17.1935 14.1502C17.2299 14.1198 17.3028 14.0792 17.3757 14.0751C18.0742 14.0325 18.7787 13.996 19.4772 13.9554C19.5744 13.9493 19.708 13.9533 19.7627 13.933C20.0299 13.8417 20.1272 13.6935 20.6313 13.6834C20.9229 13.6773 21.2205 13.6468 21.4999 13.6184C21.5788 13.6103 21.6517 13.5677 21.6699 13.5372C21.676 13.521 21.5788 13.4906 21.5059 13.4763C21.2387 13.4175 20.929 13.4885 20.6617 13.448C20.5706 13.4337 20.443 13.4134 20.4248 13.3891C20.4126 13.3668 20.5159 13.3302 20.5888 13.3079C20.6556 13.2876 20.7467 13.2693 20.8378 13.2632C21.6395 13.2166 22.4414 13.1679 23.2431 13.1313C23.5711 13.1171 23.8019 13.0664 23.9476 12.973C24.057 12.904 24.1906 12.8675 24.3971 12.8573C25.8001 12.7822 27.2031 12.699 28.6123 12.63C28.9646 12.6138 29.1468 12.5468 29.2926 12.4595C29.408 12.3905 29.5417 12.3662 29.7664 12.354C31.7768 12.2484 33.775 12.1307 35.7855 12.0292C36.156 12.011 36.2654 11.9237 36.4537 11.8486C36.5205 11.8222 36.5629 11.7897 36.6479 11.7735C36.7329 11.7573 36.8423 11.7593 36.9455 11.7552C38.549 11.6679 40.1526 11.5746 41.7622 11.4934C42.1387 11.4751 42.2115 11.3737 42.4059 11.3026C42.4727 11.2803 42.5335 11.2438 42.6124 11.2377C43.815 11.1687 45.0176 11.1037 46.2202 11.0367C47.022 10.9921 47.8237 10.9474 48.6255 10.9048C49.0202 10.8845 49.0203 10.8825 49.5548 10.6897C49.6155 10.6673 49.7006 10.6409 49.7796 10.6349C52.0876 10.505 54.3895 10.3812 56.6976 10.2533C56.8919 10.2432 57.0316 10.1965 57.1288 10.1274C57.226 10.0584 57.3658 10.0118 57.5541 10.0016C59.358 9.90013 61.1619 9.80068 62.9719 9.70529C63.2998 9.68905 63.5306 9.64034 63.6764 9.549C63.7857 9.48 63.9193 9.44347 64.1258 9.43332C65.9297 9.3359 67.7338 9.23238 69.5438 9.13901C69.89 9.12075 70.06 9.05175 70.23 8.97056C70.2908 8.94215 70.3394 8.89546 70.4123 8.8914C71.3112 8.83457 72.204 8.77571 73.109 8.73715C73.4856 8.72091 73.6132 8.63566 73.765 8.55448C73.8865 8.48953 74.0262 8.46721 74.257 8.45909C74.7612 8.44082 75.2592 8.40633 75.7512 8.37183C75.8241 8.36574 75.9152 8.32108 75.9213 8.29267C75.9334 8.2399 75.7937 8.20336 75.5629 8.18509C73.1576 8.31702 70.7464 8.44894 68.3412 8.58086C67.9464 8.60319 67.9464 8.6032 67.4118 8.79602C67.3511 8.81834 67.266 8.84473 67.181 8.85082C64.8729 8.97869 62.571 9.10453 60.263 9.23239C60.0686 9.24254 59.9289 9.28922 59.8317 9.35823C59.7346 9.42724 59.5947 9.47392 59.4065 9.48407C57.2017 9.60584 54.9969 9.72966 52.7861 9.84535C52.4581 9.86158 52.2273 9.90825 52.0816 10.0016C51.9722 10.0706 51.8386 10.1072 51.6321 10.1173C49.5245 10.231 47.4229 10.3507 45.3092 10.4603C45.0966 10.4705 44.9388 10.4116 44.9509 10.3568C44.957 10.3284 45.048 10.2817 45.1208 10.2777C46.2202 10.2107 47.3136 10.1417 48.419 10.0909C48.7895 10.0747 48.8988 9.98538 49.0871 9.91028C49.1478 9.8839 49.1964 9.8494 49.2754 9.83519C49.3604 9.81895 49.4697 9.82099 49.573 9.81693C52.1787 9.67282 54.7844 9.5267 57.3961 9.39071C57.7727 9.37041 57.8455 9.27095 58.0399 9.19991C58.1067 9.17556 58.1675 9.13903 58.2464 9.13497C59.0482 9.08626 59.8499 9.04363 60.6516 9.00101C62.0547 8.92389 63.4577 8.84676 64.8668 8.76963C65.2738 8.7473 65.2738 8.74729 65.7961 8.55651C65.8569 8.53418 65.942 8.50579 66.0209 8.50173C69.732 8.29674 73.4432 8.09174 77.1543 7.88877C77.3486 7.87863 77.4883 7.83195 77.5855 7.76294C77.6827 7.69596 77.8223 7.64725 78.0106 7.63507C83.0276 7.35904 88.0385 7.083 93.0555 6.81103C93.3835 6.79276 93.6142 6.75013 93.76 6.65474C93.8632 6.58573 94.0029 6.54921 94.2094 6.53703C99.7244 6.23461 105.239 5.9322 110.761 5.62776C114.472 5.42479 118.183 5.21777 121.894 5.01886C122.234 5.0006 122.416 4.93767 122.586 4.85445C122.641 4.82604 122.696 4.77935 122.769 4.77529C123.564 4.72455 124.36 4.67788 125.155 4.6312C125.404 4.686 125.654 4.73878 125.903 4.79358C126.091 4.71645 126.273 4.63729 126.461 4.56016C127.664 4.50131 128.848 4.40997 130.063 4.38156C130.142 4.37953 130.227 4.4181 130.312 4.43839C130.877 4.56626 131.199 4.55611 131.557 4.38562C131.685 4.32473 131.794 4.26993 131.989 4.25978C132.59 4.22325 133.197 4.19889 133.793 4.15627C134.114 4.13394 134.382 4.15423 134.612 4.2273C134.776 4.28007 134.947 4.30241 135.147 4.29023C136.252 4.22934 137.352 4.17048 138.457 4.10553C138.536 4.10147 138.609 4.06695 138.67 4.0426C138.797 3.98983 138.907 3.93301 139.028 3.87821C139.192 3.91271 139.374 3.9391 139.508 3.98375C139.678 4.03653 139.836 4.03651 140.067 4.02231C144.476 3.77672 148.892 3.53723 153.302 3.28961C153.678 3.26931 153.842 3.35457 154.097 3.39922C154.182 3.41546 154.267 3.43574 154.358 3.4398C154.456 3.44386 154.559 3.43169 154.656 3.4256C157.966 3.24294 161.277 3.06229 164.587 2.87962C165.024 2.85526 165.024 2.85526 165.674 2.9811C165.753 2.99734 165.856 3.01561 165.941 3.00952C167.448 2.93036 168.954 2.84513 170.454 2.76394C170.648 2.75379 170.812 2.78626 170.989 2.83294C171.335 2.92428 171.359 2.92428 171.614 2.79033C171.736 2.72741 171.863 2.68883 172.063 2.67056C172.282 2.65026 172.458 2.65638 172.628 2.69291C172.871 2.74365 173.048 2.82888 173.418 2.80656C175.022 2.71116 176.631 2.63201 178.229 2.53459C178.593 2.51227 178.787 2.58127 179.03 2.63201C179.115 2.65028 179.194 2.67869 179.285 2.68478C179.376 2.69087 179.486 2.67665 179.583 2.67056C181.587 2.56096 183.598 2.45341 185.596 2.33569C185.973 2.31336 186.137 2.40062 186.392 2.44527C186.477 2.46151 186.574 2.48994 186.653 2.48588C187.855 2.42296 189.064 2.35597 190.267 2.28899C190.698 2.26463 190.698 2.26666 191.354 2.39047C191.433 2.40671 191.536 2.42295 191.621 2.41889C193.024 2.34379 194.433 2.26666 195.836 2.18954C196.268 2.16518 196.268 2.16519 197.513 2.27073C197.604 2.27885 197.701 2.29104 197.792 2.28698C199.396 2.19971 201.005 2.11445 202.609 2.02109C202.931 2.00282 203.198 2.01905 203.429 2.09212C203.593 2.14489 203.763 2.16723 203.963 2.15505C205.767 2.0556 207.577 1.96021 209.375 1.85467C209.721 1.83437 209.946 1.87901 210.189 1.93787C210.268 1.95816 210.347 1.98658 210.438 1.9947C210.529 2.00282 210.632 1.99469 210.729 1.98861C212.533 1.88915 214.343 1.79579 216.141 1.68822C216.506 1.6659 216.7 1.7349 216.943 1.78564C217.028 1.80391 217.119 1.84044 217.192 1.83841C217.896 1.80391 218.601 1.77348 219.3 1.72274C219.676 1.69432 219.84 1.78767 220.095 1.83232C220.18 1.84653 220.277 1.87699 220.356 1.87293C221.863 1.79377 223.369 1.71056 224.869 1.62532C225.082 1.61314 225.24 1.63139 225.41 1.68416C225.635 1.7552 225.896 1.78361 226.224 1.76129C226.922 1.71461 227.627 1.68214 228.331 1.64358C228.744 1.62125 228.744 1.62126 230.008 1.7268C230.099 1.73492 230.196 1.74709 230.287 1.74303C231.49 1.67808 232.698 1.61516 233.895 1.54413C234.217 1.52383 234.484 1.54209 234.715 1.61516C234.879 1.66793 235.043 1.69027 235.249 1.67809C236.355 1.6172 237.454 1.55631 238.56 1.49542C238.961 1.47309 239.361 1.43452 239.762 1.43452C240.054 1.43655 240.266 1.53397 240.528 1.58268C240.601 1.59689 240.722 1.58067 240.819 1.57661C242.222 1.49948 243.631 1.42844 245.028 1.34116C245.393 1.31884 245.587 1.38784 245.83 1.43858C245.915 1.45685 246.006 1.49338 246.079 1.49135C246.583 1.46903 247.081 1.43858 247.585 1.4122C248.187 1.37972 248.794 1.35537 249.389 1.31071C249.875 1.27418 250.057 1.45075 250.446 1.45684C250.744 1.46293 251.047 1.42843 251.345 1.4122C251.946 1.37972 252.548 1.34319 253.149 1.31478C253.361 1.30463 253.526 1.27214 253.592 1.19907C253.605 1.18487 253.501 1.15443 253.434 1.13617C252.627 0.929145 252.627 0.929135 251.813 0.973787C251.309 1.0022 250.811 1.03062 250.306 1.05498C250.221 1.05904 250.124 1.0428 250.039 1.03062C249.796 0.996119 249.82 0.955531 250.027 0.882464C250.234 0.809397 250.391 0.720101 250.568 0.636885C250.817 0.689656 251.06 0.742408 251.309 0.795178C251.509 0.78503 251.71 0.77287 251.91 0.762722C252.912 0.709951 253.914 0.655147 254.916 0.606436C254.989 0.602377 255.08 0.642975 255.165 0.663272C255.408 0.722131 255.627 0.772858 255.979 0.750532C256.878 0.691673 257.783 0.64905 258.682 0.598309C259.077 0.575983 259.077 0.575985 259.769 0.701823C259.848 0.71603 259.952 0.732269 260.037 0.728209C260.942 0.681528 261.841 0.630793 262.746 0.582081C262.94 0.571933 263.128 0.598317 263.268 0.657177C263.323 0.681533 263.31 0.722117 263.541 1.05498C264.258 1.32492 264.75 1.29652 265.248 1.27216C265.461 1.26201 265.649 1.25186 265.789 1.21126C265.861 1.18894 265.953 1.15646 265.953 1.13007C265.953 1.10978 265.819 1.0773 265.734 1.07324C265.133 1.03264 264.562 1.1179 263.972 1.13617C263.699 1.14429 263.462 1.07325 263.414 0.957559C263.402 0.925085 263.383 0.890583 263.365 0.858109C263.347 0.825635 263.335 0.791133 263.317 0.758659C263.08 0.748511 262.94 0.785038 262.837 0.854046C262.752 0.910876 262.63 0.975824 262.466 1.00627C262.302 1.03874 262.077 1.03266 261.877 1.04281C261.683 1.05296 261.47 1.07934 261.288 1.06514C261.106 1.0489 260.96 0.990029 260.79 0.953496C260.711 0.935229 260.614 0.908854 260.535 0.912913C259.836 0.947417 259.144 0.981908 258.451 1.02656C258.087 1.05092 257.905 0.965684 257.674 0.912913C257.492 0.87232 257.309 0.882456 257.279 0.975819C257.2 1.19908 257.48 1.29244 258.099 1.24982C258.609 1.21328 259.071 1.20721 259.472 1.34523C259.526 1.36349 259.654 1.37161 259.733 1.36755C260.231 1.34319 260.723 1.31275 261.221 1.28839C261.312 1.28433 261.409 1.29244 261.494 1.30056C262.733 1.41016 262.733 1.4122 263.153 1.38784C263.353 1.37566 263.547 1.36551 263.529 1.05701C263.912 0.726179 264.519 0.703857 265.108 0.655145C265.491 0.624701 265.655 0.714009 265.904 0.76069C265.989 0.776927 266.08 0.809396 266.159 0.805336C267.465 0.738358 268.765 0.667311 270.065 0.592215C270.283 0.580037 270.441 0.592217 270.611 0.644987C270.83 0.711965 271.073 0.754597 271.419 0.730241C272.111 0.68153 272.816 0.651092 273.52 0.610499C273.879 0.590203 273.879 0.590182 274.602 0.71602C274.681 0.730227 274.784 0.746465 274.869 0.742406C275.573 0.707902 276.272 0.665292 276.97 0.628759C277.165 0.618611 277.341 0.647023 277.493 0.701823C277.645 0.756623 277.827 0.785035 278.015 0.774887C278.72 0.738353 279.418 0.697774 280.117 0.66124C280.202 0.657181 280.305 0.671387 280.384 0.685595C281.125 0.811432 281.125 0.811411 281.465 0.791115C281.963 0.760671 282.473 0.746479 282.965 0.705886C283.445 0.665293 283.694 0.783002 284.022 0.847951C284.921 0.801269 285.826 0.762716 286.719 0.705886C287.083 0.681531 287.278 0.748503 287.521 0.801273C287.606 0.81954 287.691 0.858107 287.77 0.856077C288.073 0.847959 288.371 0.825637 288.669 0.8094C288.966 0.793163 289.27 0.776927 289.568 0.76069C289.908 0.81955 290.132 0.957563 290.618 0.910881C290.91 0.882467 291.22 0.876378 291.517 0.860141C291.815 0.843903 292.119 0.827668 292.416 0.811431C292.617 0.801283 292.823 0.795185 293.017 0.776919C293.376 0.746474 293.552 0.845938 293.807 0.89059C293.892 0.904798 293.989 0.929137 294.068 0.925078C294.67 0.896663 295.277 0.872309 295.866 0.825628C296.322 0.789094 296.631 0.849991 296.953 0.935236C297.02 0.953503 297.135 0.96365 297.22 0.959591C297.925 0.925087 298.624 0.882453 299.322 0.845919C299.51 0.835771 299.693 0.868244 299.844 0.921015C300.002 0.975815 300.178 1.00222 300.373 0.992072C301.071 0.955538 301.776 0.914934 302.474 0.8784C302.559 0.874341 302.663 0.890581 302.742 0.906818C303.422 1.03266 303.422 1.03469 303.823 1.01033C303.92 1.00424 304.023 1.00017 304.12 0.994079C304.618 0.965664 305.135 0.95553 305.621 0.906818C306.179 0.852018 306.586 0.921029 306.981 1.03672C307.479 1.01236 307.989 0.998152 308.475 0.957559C308.84 0.927115 309.034 1.00424 309.277 1.05498C309.362 1.07324 309.453 1.10978 309.526 1.10572C310.231 1.07121 310.935 1.04078 311.628 0.99004C312.004 0.961625 312.168 1.05294 312.423 1.09962C312.508 1.11586 312.599 1.14429 312.678 1.14023C313.079 1.12399 313.48 1.09963 313.881 1.0773C314.349 1.05092 314.349 1.05294 314.968 1.17675C315.26 1.23561 315.551 1.18893 315.837 1.17472C316.141 1.15848 316.426 1.14631 316.669 1.22952C316.821 1.28229 317.003 1.31477 317.191 1.30665C317.592 1.28838 317.999 1.27013 318.394 1.23968C318.71 1.21533 318.983 1.23155 319.214 1.30665C319.378 1.35942 319.548 1.38582 319.748 1.37364C320.647 1.32493 321.552 1.27417 322.451 1.22749C322.53 1.22343 322.639 1.24171 322.712 1.25997C322.882 1.29651 323.046 1.33709 323.21 1.37768C323.605 1.35942 324.012 1.35132 324.401 1.3229C324.814 1.29449 325.19 1.28434 325.512 1.39597C325.579 1.42032 325.676 1.45481 325.755 1.45278C326.059 1.44466 326.357 1.42437 326.654 1.40813C326.952 1.3919 327.255 1.37566 327.553 1.35942C327.899 1.41016 328.118 1.5563 328.604 1.50961C328.896 1.4812 329.205 1.47511 329.503 1.45887C329.801 1.44264 330.104 1.42437 330.402 1.41016C330.499 1.40611 330.608 1.39595 330.693 1.40407C330.784 1.41219 330.863 1.44061 330.942 1.46091C331.185 1.51976 331.41 1.57863 331.756 1.54413C332.048 1.51571 332.358 1.50962 332.655 1.49135C333.062 1.46903 333.062 1.46903 333.736 1.5969C334.01 1.64967 334.319 1.58067 334.581 1.62532C334.757 1.65576 334.909 1.70649 335.079 1.741C335.151 1.7552 335.267 1.76128 335.352 1.75722C335.753 1.73896 336.16 1.7207 336.555 1.69026C336.876 1.6659 337.144 1.69025 337.368 1.76332C337.532 1.81609 337.696 1.83843 337.903 1.82625C338.905 1.76942 339.907 1.72069 340.903 1.65777C341.244 1.63545 341.517 1.66996 341.705 1.74303C342.027 1.86887 342.483 1.7207 342.817 1.82219C343.023 1.88511 343.23 1.95818 343.606 1.92773C344.299 1.87496 345.003 1.84653 345.702 1.81C345.951 1.8648 346.2 1.91961 346.455 1.97441C346.856 1.95208 347.257 1.92974 347.657 1.90945C347.955 1.89321 348.259 1.87495 348.556 1.86074C348.654 1.85668 348.757 1.84856 348.848 1.85871C348.939 1.86885 349.012 1.89525 349.097 1.91554C349.516 2.01499 349.516 2.01703 350.208 1.97644C350.506 1.95817 350.792 1.946 351.041 2.02718C351.271 2.10228 351.545 2.11648 351.86 2.09415C352.456 2.05356 353.057 2.02312 353.665 1.9947C353.853 1.98455 354.029 2.01906 354.187 2.07183C354.424 2.15504 354.715 2.14693 355.013 2.1246C355.408 2.09619 355.796 2.06778 356.13 2.18144C356.197 2.20579 356.301 2.24028 356.373 2.23825C356.871 2.22201 357.376 2.20984 357.861 2.17128C358.347 2.13272 358.584 2.25855 358.918 2.31944C359.416 2.29305 359.92 2.26666 360.419 2.24028C360.516 2.23419 360.631 2.21593 360.716 2.22608C361.074 2.2687 361.281 2.42092 361.773 2.37424C362.058 2.34786 362.368 2.33975 362.666 2.33366C362.745 2.33163 362.848 2.36612 362.903 2.3925C362.933 2.40671 362.903 2.44527 362.866 2.46557C362.757 2.5224 362.623 2.57518 362.526 2.63404C362.514 2.64216 362.629 2.67868 362.696 2.69492C362.86 2.73145 363.048 2.72537 363.267 2.70914C363.455 2.69493 363.65 2.72334 363.783 2.78423C363.838 2.80859 363.82 2.84918 363.704 2.98313C363.704 3.08259 363.832 3.03792 363.874 2.97297C363.941 2.87961 363.814 2.84917 363.571 2.89991C363.401 2.93644 363.316 2.98922 363.358 3.03184C363.383 3.05417 363.498 3.08259 363.704 2.98313C364.239 2.86135 364.64 2.83904 365.041 2.81671C365.144 2.81062 365.265 2.79031 365.338 2.80249C365.6 2.8512 365.842 2.91007 366.098 2.96487C366.389 2.9527 366.662 2.92224 366.948 3.00139C367.349 3.11302 367.367 3.10288 367.756 3.08055C367.956 3.06837 368.157 3.05824 368.357 3.0481C368.557 3.03795 368.715 3.06838 368.891 3.11506C369.25 3.21046 369.28 3.21045 369.517 3.08055C369.657 3.0014 369.754 2.97502 369.93 3.01155C370.513 3.13536 370.519 3.14347 371.017 3.10694C371.43 3.07649 371.819 3.06838 372.123 3.18407C372.329 3.26525 372.396 3.24699 372.56 3.16174C372.997 2.93645 373.198 2.9405 374.018 3.10287C374.4 3.18 374.795 3.09679 375.184 3.08665C375.512 3.07853 375.743 3.12723 375.767 3.2551C375.785 3.33425 375.84 3.39109 376.059 3.41748C376.144 3.42763 376.247 3.44183 376.332 3.43777C376.836 3.41341 377.334 3.38499 377.838 3.35658C378.093 3.34237 378.233 3.247 378.184 3.12116C378.13 2.9872 378.227 2.93847 378.591 2.89991C378.81 2.87758 378.986 2.88166 379.162 2.9182C379.357 2.95879 379.302 2.99532 379.132 3.06839C378.725 3.24699 378.774 3.35658 379.296 3.48038C379.478 3.52301 379.624 3.56159 379.666 3.62451C379.691 3.65698 379.666 3.6996 379.721 3.72396C380.019 3.85994 380.432 3.94722 380.893 4.01217C381.337 3.95737 381.64 4.04869 381.981 4.12176C382.248 4.17859 382.564 4.12989 382.849 4.10959C383.171 4.08727 383.438 4.1035 383.669 4.17859C383.833 4.23136 384.003 4.25571 384.204 4.24556C384.604 4.22324 385.011 4.20903 385.406 4.17656C385.746 4.14815 386.001 4.18874 386.214 4.25775C386.481 4.34503 386.779 4.28616 387.058 4.29833C387.435 4.31254 387.623 4.49317 388.115 4.44446C388.407 4.41605 388.71 4.4059 389.014 4.39778C389.093 4.39575 389.19 4.43026 389.257 4.45462C389.579 4.56625 389.956 4.56016 390.369 4.52768C390.654 4.50536 390.933 4.48507 391.213 4.5622C391.674 4.69209 392.185 4.80576 392.671 4.92551C392.737 5.01887 392.689 5.12845 393.035 5.18325C393.217 5.21167 393.387 5.25431 393.527 5.30099C393.697 5.35579 393.855 5.37 394.073 5.35579C394.468 5.32738 394.881 5.32127 395.27 5.28473C395.628 5.25226 395.853 5.31926 396.072 5.38218C396.248 5.43292 396.412 5.45726 396.625 5.42073C396.843 5.38623 397.001 5.40854 397.177 5.46334C397.426 5.53844 397.445 5.53033 398.271 5.55266C398.356 5.55469 398.459 5.58512 398.507 5.6115C398.532 5.62571 398.477 5.66633 398.435 5.68662C398.38 5.71098 398.295 5.73938 398.216 5.74547C397.317 5.79824 396.412 5.84492 395.513 5.89769C395.422 5.90378 395.325 5.918 395.258 5.9383C395.185 5.96062 395.094 5.99105 395.094 6.01946C395.094 6.03976 395.215 6.06412 395.3 6.07833C395.568 6.12501 395.884 6.05398 396.145 6.10675C396.321 6.14125 396.467 6.18995 396.643 6.22243C396.716 6.23663 396.831 6.23461 396.922 6.23055C397.226 6.21634 397.523 6.19605 397.827 6.18387C397.912 6.18184 398.009 6.20215 398.088 6.21839C398.671 6.34017 398.671 6.34016 399.176 6.31377C399.376 6.30363 399.589 6.27318 399.777 6.28536C399.959 6.29753 400.117 6.35233 400.281 6.38684C400.621 6.45991 400.943 6.53094 400.967 6.68925C400.979 6.75014 401.18 6.8029 401.38 6.80696C401.575 6.81102 401.781 6.78871 401.982 6.77654C402.455 6.75218 402.455 6.75218 403.069 6.87599C403.239 6.91049 403.421 6.91454 403.64 6.89425C403.725 6.88613 403.828 6.89426 403.919 6.90441C404.217 6.93485 404.217 6.9734 404.022 7.04647C403.749 7.15404 403.773 7.1642 404.539 7.25553C404.83 7.29003 405.055 7.35498 405.298 7.41181C405.693 7.50315 405.687 7.50313 405.426 7.62288C405.365 7.64927 405.31 7.67769 405.249 7.7061C405.073 7.78526 404.933 7.8705 404.569 7.87862C404.168 7.88673 403.767 7.91922 403.366 7.94155C402.978 7.96387 402.874 8.01257 402.911 8.15058C402.953 8.31701 403.032 8.33528 403.731 8.33325C403.931 8.33325 404.107 8.34948 404.259 8.40429C404.186 8.46923 404.053 8.51998 403.858 8.53215C403.36 8.5626 402.856 8.58899 402.358 8.61538C401.957 8.6377 401.556 8.66002 401.156 8.68234C400.907 8.69655 400.749 8.8021 400.815 8.91982C400.852 8.9868 400.882 9.05377 400.913 9.12075C400.979 9.25471 401.107 9.28922 401.514 9.28313C401.617 9.2811 401.714 9.26485 401.811 9.26891C402.206 9.28312 402.395 9.45158 402.868 9.41707C403.263 9.38866 403.676 9.38257 404.065 9.34604C404.423 9.31357 404.624 9.38665 404.873 9.44145C404.958 9.45972 405.049 9.49826 405.122 9.49623C405.626 9.4739 406.13 9.4516 406.622 9.41303C406.853 9.3968 406.992 9.40897 407.175 9.45768C407.612 9.5754 407.624 9.56931 408.274 9.53277C408.748 9.50436 408.754 9.50842 409.361 9.63223C409.531 9.66673 409.714 9.66672 409.932 9.65049C410.218 9.63019 410.515 9.59772 410.813 9.62816C410.904 9.63628 411.02 9.66064 411.05 9.68703C411.068 9.7053 410.983 9.74995 410.91 9.76416C410.376 9.8697 409.75 9.85143 409.167 9.89406C408.985 9.90623 408.802 9.86767 408.651 9.81287C408.493 9.75807 408.323 9.73575 408.116 9.7459C407.715 9.76822 407.308 9.78242 406.914 9.8149C406.573 9.84331 406.337 9.79663 406.1 9.73371C406.021 9.71341 405.93 9.67484 405.851 9.67687C404.952 9.71746 404.047 9.75807 403.154 9.8149C402.796 9.83925 402.589 9.77431 402.346 9.71951C402.261 9.70124 402.176 9.66268 402.097 9.66471C401.793 9.67282 401.496 9.69515 401.192 9.71138C400.087 9.77227 398.987 9.83316 397.882 9.88999C397.809 9.89405 397.718 9.85142 397.633 9.83316C397.469 9.79662 397.299 9.76212 397.129 9.72761C396.825 9.74385 396.527 9.76414 396.224 9.77632C396.005 9.78444 395.811 9.81287 395.78 9.88999C395.762 9.94073 395.963 9.98741 396.175 9.98335C396.382 9.97929 396.588 9.95493 396.758 9.98132C397.602 10.1112 397.602 10.1132 398.131 10.0869C398.592 10.0625 398.544 10.0422 398.951 10.1538C399.127 10.2025 399.285 10.231 399.485 10.2188C399.983 10.1904 400.487 10.162 400.992 10.1376C401.071 10.1335 401.174 10.1538 401.253 10.1701C401.848 10.2919 401.848 10.2959 402.34 10.2655C402.984 10.2289 403.008 10.2188 403.439 10.3426C403.737 10.4278 404.01 10.369 404.296 10.3649C404.624 10.4441 404.982 10.5151 405.28 10.6044C405.632 10.71 406.002 10.6917 406.403 10.6612C406.701 10.6389 406.993 10.6308 407.236 10.714C407.466 10.7911 407.746 10.7993 408.061 10.779C408.347 10.7607 408.639 10.7221 408.936 10.7668C409.015 10.779 409.137 10.8094 409.13 10.8277C409.124 10.8561 409.045 10.8967 408.966 10.9089C408.408 10.9921 407.794 10.9901 407.205 11.0286C407.126 11.0347 407.023 11.0124 406.944 10.9961C406.774 10.9596 406.61 10.917 406.446 10.8784C406.148 10.8906 405.845 10.8947 405.553 10.919C405.328 10.9373 405.158 10.9353 404.994 10.8866C404.842 10.8419 404.678 10.7871 404.496 10.7729C404.314 10.7587 404.101 10.7891 403.901 10.8013C403.701 10.8135 403.47 10.8074 403.312 10.8398C403.154 10.8723 403.057 10.9434 402.953 11.0002C402.838 11.0631 402.68 11.0834 402.449 11.0895C402.237 11.0956 402.067 11.0875 401.909 11.0306C401.842 11.0063 401.751 10.988 401.66 10.9718C401.575 10.9576 401.477 10.9352 401.398 10.9393C400.493 10.986 399.595 11.0367 398.69 11.0855C398.24 11.1098 398.246 11.1098 397.311 10.99C397.226 10.9799 397.123 10.9657 397.038 10.9697C396.533 10.9941 396.035 11.0225 395.531 11.0509C395.021 11.0794 395.027 11.0753 394.159 10.9474C394.001 10.9231 393.77 10.9555 393.582 10.9515C393.187 10.9413 392.992 10.7709 392.531 10.8033C392.136 10.8317 391.723 10.8378 391.328 10.8744C390.97 10.9068 390.763 10.8358 390.52 10.781C390.435 10.7627 390.344 10.7221 390.271 10.7262C389.366 10.7709 388.467 10.8216 387.265 10.8277C386.967 10.8277 387.101 10.8703 387.295 10.8845C387.575 10.9068 387.666 10.8642 387.514 10.783C387.405 10.7262 387.247 10.6978 387.119 10.712C387.052 10.7201 386.967 10.7587 387.265 10.8277C387.581 10.9048 387.562 10.9474 387.617 10.9718C387.751 11.0306 387.939 11.055 388.133 11.0469C388.437 11.0327 388.735 11.0124 389.038 11.0002C389.123 10.9961 389.227 11.0103 389.306 11.0266C389.974 11.1524 389.98 11.1606 390.69 11.1118C390.915 11.0976 391.079 11.0976 391.255 11.1362C391.498 11.189 391.674 11.2783 392.045 11.2498C392.537 11.2113 393.041 11.189 393.545 11.1666C393.624 11.1626 393.709 11.1991 393.8 11.2154C394.049 11.2641 394.231 11.3554 394.602 11.3168C394.887 11.2864 395.197 11.2783 395.501 11.2722C395.58 11.2701 395.701 11.3026 395.738 11.329C395.811 11.3757 395.72 11.4305 395.513 11.4691C395.428 11.4853 395.313 11.4812 395.215 11.4873C394.815 11.5096 394.414 11.534 394.013 11.5523C393.8 11.5624 393.6 11.5929 393.576 11.668C393.557 11.7187 393.776 11.7633 393.982 11.7593C394.286 11.7532 394.59 11.737 394.881 11.7106C395.398 11.6659 395.847 11.6781 396.266 11.806C396.564 11.8953 396.546 11.8628 396.861 12.1267C396.94 12.1936 397.177 12.1997 397.384 12.1957C397.882 12.1855 398.113 12.216 398.07 12.2789C398.015 12.356 397.839 12.3803 397.615 12.3905C397.214 12.4067 396.813 12.4331 396.412 12.4555C396.315 12.4615 396.205 12.4737 396.114 12.4697C396.023 12.4656 395.938 12.4412 395.859 12.423C395.689 12.3844 395.543 12.3255 395.361 12.3113C395.179 12.2971 394.966 12.3276 394.766 12.3398C394.566 12.3499 394.353 12.3803 394.171 12.3661C393.989 12.3519 393.837 12.2911 393.673 12.2545C393.594 12.2363 393.497 12.2078 393.418 12.2099C393.017 12.2261 392.616 12.2525 392.215 12.2728C391.723 12.2992 391.723 12.2992 391.128 12.1733C390.958 12.1368 390.782 12.1388 390.557 12.1551C390.071 12.1875 390.065 12.1814 389.178 12.0637C389.093 12.0515 388.99 12.0373 388.905 12.0434C388 12.0901 387.101 12.1409 386.202 12.1896C385.43 12.2322 385.43 12.2322 385.005 12.4352C384.689 12.5854 384.683 12.5854 384.993 12.6544C385.242 12.7112 385.467 12.7944 385.74 12.8248C385.995 12.8533 386.311 12.7619 386.591 12.8553C386.73 12.902 386.912 12.9527 387.089 12.9608C387.368 12.971 387.666 12.9121 387.933 13.0014C388.067 13.0461 388.267 13.0928 388.437 13.0948C388.735 13.0989 389.038 13.0664 389.336 13.0522C389.427 13.0481 389.53 13.0481 389.615 13.0583C389.706 13.0704 389.785 13.0948 389.864 13.1151C390.107 13.1841 390.369 13.2166 390.684 13.1821C391.201 13.1252 391.662 13.1536 392.063 13.2835C392.118 13.3018 392.251 13.3038 392.336 13.2957C392.555 13.2754 392.743 13.2734 392.907 13.312C392.974 13.3282 393.071 13.3566 393.059 13.3749C393.041 13.4053 392.968 13.4459 392.889 13.4561C392.318 13.5251 391.705 13.5332 391.116 13.5697C391.037 13.5738 390.939 13.5474 390.861 13.5291C390.69 13.4926 390.545 13.4317 390.362 13.4175C390.18 13.4033 389.968 13.4297 389.767 13.4398C389.567 13.45 389.354 13.4804 389.172 13.4682C388.99 13.454 388.82 13.4033 388.674 13.3586C388.504 13.3079 388.34 13.3018 388.115 13.3221C387.824 13.3485 387.52 13.3526 387.222 13.3668C387.058 13.3282 386.894 13.2856 386.724 13.249C386.645 13.2308 386.548 13.2084 386.463 13.2105C386.062 13.2267 385.661 13.2511 385.26 13.2734C384.859 13.2957 384.86 13.2957 384.179 13.1699C384.1 13.1557 383.997 13.1394 383.912 13.1435C383.408 13.1679 382.91 13.1983 382.406 13.2226C382.211 13.2328 382.035 13.2044 381.877 13.1496C381.725 13.0948 381.543 13.0643 381.355 13.0745C380.553 13.1171 379.751 13.1577 378.95 13.2084C378.628 13.2287 378.354 13.2105 378.136 13.1374C377.881 13.0542 377.595 13.0745 377.298 13.0907C376.623 13.1313 376.617 13.1293 376.186 13.0258C376.101 13.0055 376.016 12.9669 375.937 12.9689C375.239 12.9994 374.534 13.0278 373.842 13.0765C373.477 13.1029 373.283 13.0319 373.04 12.9791C372.955 12.9608 372.864 12.9223 372.791 12.9263C372.287 12.9486 371.783 12.969 371.291 13.0095C370.799 13.0501 370.61 12.8614 370.24 12.8634C369.736 12.8654 369.238 12.9121 368.74 12.9405C368.339 12.9629 367.938 12.9852 367.537 13.0075C367.136 13.0298 366.735 13.0481 366.334 13.0745C366.122 13.0887 365.964 13.0704 365.788 13.0197C365.563 12.9527 365.296 12.9 365.053 12.8391C364.682 12.7518 364.682 12.7518 364.233 12.7761C364.136 12.7822 364.032 12.7863 363.935 12.7924C363.2 12.837 363.2 12.833 362.265 12.7051C362.222 12.699 362.113 12.7213 362.071 12.7376C361.943 12.7904 361.828 12.8472 361.712 12.902C361.548 12.8695 361.348 12.8512 361.239 12.8045C360.929 12.6726 360.443 12.8533 360.127 12.7234C360.012 12.6746 359.811 12.632 359.629 12.6198C359.441 12.6077 359.228 12.6361 359.034 12.6483C358.53 12.6787 358.53 12.6767 358.098 12.8573C357.88 12.9466 357.564 12.9304 357.278 12.9507C356.981 12.973 356.695 12.9852 356.446 12.902C356.221 12.8269 355.948 12.8086 355.626 12.833C355.232 12.8634 354.825 12.8817 354.424 12.8999C354.339 12.904 354.235 12.8939 354.15 12.8817C353.221 12.7619 353.221 12.7599 352.772 12.7863C352.571 12.7985 352.365 12.8025 352.17 12.8208C351.842 12.8533 351.593 12.8106 351.356 12.7457C351.277 12.7254 351.186 12.6868 351.107 12.6889C350.706 12.699 350.312 12.7173 349.917 12.7355C349.613 12.7498 349.31 12.7579 349.018 12.7863C348.532 12.833 348.295 12.701 347.961 12.6401C347.463 12.6665 346.959 12.6848 346.461 12.7213C346.23 12.7376 346.078 12.7315 345.902 12.6828C345.677 12.6219 345.471 12.5529 345.106 12.5833C344.621 12.6239 344.11 12.6381 343.612 12.6625C343.278 12.5996 343.035 12.4717 342.555 12.5184C342.264 12.5468 341.954 12.5529 341.657 12.5691C341.256 12.5914 340.855 12.6117 340.454 12.6361C340.023 12.6605 340.029 12.6544 339.367 12.5346C338.984 12.4636 338.589 12.5427 338.2 12.5549C337.897 12.5651 337.745 12.6584 337.818 12.7782C337.891 12.8979 337.727 12.9913 337.447 13.0075C336.749 13.0461 336.044 13.0867 335.346 13.1212C335.261 13.1252 335.158 13.111 335.079 13.0968C334.332 12.9689 334.332 12.971 333.997 12.9893C333.499 13.0197 332.989 13.0359 332.497 13.0745C332.157 13.1009 331.908 13.0583 331.689 12.9893C331.519 12.9365 331.361 12.9243 331.143 12.9365C328.738 13.0725 326.332 13.1983 323.933 13.3383C323.575 13.3586 323.368 13.2998 323.125 13.245C323.04 13.2267 322.961 13.1882 322.876 13.1882C322.676 13.1882 322.475 13.2064 322.275 13.2186C321.376 13.2673 320.477 13.3262 319.572 13.3627C319.189 13.3789 319.086 13.4723 318.922 13.5494C318.795 13.6083 318.649 13.6326 318.424 13.6408C318.206 13.6489 318.048 13.6387 317.878 13.586C317.659 13.5169 317.41 13.4743 317.07 13.5027C316.675 13.5352 316.274 13.5494 315.867 13.5718C315.661 13.5819 315.503 13.6184 315.436 13.6915C315.424 13.7037 315.551 13.7341 315.624 13.7524C315.867 13.8133 316.098 13.8843 316.371 13.9269C316.651 13.9696 316.954 13.9208 317.246 13.9087C317.349 13.9046 317.446 13.8924 317.543 13.8945C317.635 13.8965 317.744 13.9066 317.811 13.9249C318.127 14.0162 318.461 14.0792 318.898 14.0244C319.274 14.0507 319.469 14.2192 319.949 14.1746C320.24 14.1482 320.544 14.136 320.848 14.1258C320.927 14.1238 321.012 14.1603 321.097 14.1786C321.34 14.2294 321.534 14.3105 321.898 14.276C322.287 14.2395 322.7 14.2334 323.095 14.205C323.314 14.1888 323.471 14.203 323.642 14.2557C323.86 14.3227 324.109 14.3734 324.449 14.341C324.741 14.3126 325.051 14.3065 325.348 14.2882C325.737 14.2659 325.737 14.2679 326.43 14.3937C326.508 14.408 326.612 14.4242 326.697 14.4201C327.201 14.3958 327.699 14.3653 328.203 14.341C328.397 14.3308 328.586 14.3572 328.719 14.4161C328.774 14.4404 328.756 14.481 328.774 14.5155C327.772 14.5703 326.77 14.617 325.773 14.684C325.397 14.7104 325.227 14.6272 324.978 14.5805C324.893 14.5642 324.802 14.5297 324.723 14.5338C324.018 14.5683 323.32 14.6048 322.621 14.6495C322.403 14.6637 322.239 14.6556 322.075 14.5967C321.656 14.4404 321.145 14.5257 320.672 14.548C320.307 14.5642 320.192 14.6272 320.234 14.7611C320.289 14.9194 320.507 14.9681 321.066 14.9397C321.267 14.9296 321.467 14.9154 321.668 14.9072C321.862 14.8991 322.038 14.9255 322.196 14.9803C322.348 15.0351 322.53 15.0635 322.718 15.0554C323.119 15.0371 323.526 15.0189 323.915 14.9884C324.237 14.9641 324.504 14.9844 324.729 15.0595C324.978 15.1427 325.269 15.1244 325.561 15.1061C326.241 15.0656 326.247 15.0676 326.672 15.1691C326.757 15.1894 326.843 15.2279 326.922 15.2259C327.62 15.1955 328.325 15.1691 329.011 15.1204C329.369 15.096 329.576 15.161 329.813 15.2137C329.898 15.232 329.983 15.2726 330.062 15.2685C330.566 15.2462 331.07 15.2239 331.562 15.1853C331.793 15.167 331.932 15.1792 332.121 15.2279C332.57 15.3477 332.582 15.3436 333.22 15.305C333.414 15.2929 333.627 15.2706 333.809 15.2868C333.991 15.303 334.137 15.3619 334.307 15.3984C334.386 15.4147 334.483 15.437 334.568 15.4329C334.969 15.4167 335.37 15.3923 335.771 15.37C336.148 15.3477 336.148 15.3497 336.852 15.4756C337.138 15.5283 337.435 15.4837 337.721 15.4674C338.031 15.4492 338.31 15.4492 338.547 15.5283C338.784 15.6075 339.069 15.6034 339.373 15.5872C339.658 15.5709 339.95 15.5263 340.241 15.5811C340.909 15.7069 340.909 15.7089 341.322 15.6846C341.924 15.6501 342.519 15.6176 343.126 15.5872C343.205 15.5831 343.309 15.6075 343.388 15.6237C343.558 15.6603 343.703 15.7211 343.886 15.7353C344.068 15.7516 344.28 15.7272 344.475 15.715C345.1 15.6765 345.143 15.6623 345.562 15.7962C345.914 15.9058 346.352 15.7475 346.68 15.8734C346.868 15.9444 347.123 16.0012 347.475 15.9667C347.767 15.9383 348.07 15.9302 348.374 15.9139C348.854 15.8876 348.854 15.8896 349.461 16.0114C349.54 16.0276 349.644 16.0479 349.722 16.0438C350.123 16.0276 350.53 16.0134 350.919 15.9769C351.375 15.9342 351.666 16.0114 352.006 16.0865C352.273 16.1453 352.589 16.0966 352.875 16.0763C353.185 16.056 353.464 16.0621 353.695 16.1413C353.938 16.2224 354.223 16.2123 354.527 16.1961C354.812 16.1819 355.104 16.1352 355.395 16.192C356.021 16.3178 356.021 16.3178 356.477 16.2935C356.878 16.2712 357.278 16.2468 357.679 16.2306C357.758 16.2265 357.855 16.2529 357.934 16.2712C358.104 16.3077 358.25 16.3686 358.432 16.3828C358.615 16.397 358.827 16.3706 359.028 16.3605C359.228 16.3503 359.441 16.3199 359.623 16.3321C359.805 16.3442 359.975 16.395 360.121 16.4396C360.291 16.4924 360.449 16.4985 360.68 16.4782C360.971 16.4518 361.275 16.4457 361.572 16.4315C361.736 16.4701 361.907 16.5086 362.064 16.5513C362.228 16.5959 362.405 16.5918 362.629 16.5776C363.376 16.5289 363.382 16.535 364.008 16.6609C364.294 16.7177 364.591 16.671 364.877 16.6568C365.18 16.6406 365.466 16.6324 365.703 16.7136C365.934 16.7908 366.219 16.8009 366.523 16.7765C366.717 16.7603 366.924 16.7502 367.124 16.7441C367.215 16.7421 367.324 16.7502 367.391 16.7664C367.713 16.8516 368.029 16.9288 368.472 16.874C368.861 16.8902 369.055 17.0566 369.523 17.0242C369.918 16.9958 370.331 16.9896 370.72 16.9531C371.078 16.9206 371.333 16.9775 371.515 17.0485C371.843 17.1744 372.305 17.0039 372.633 17.1277C372.821 17.1987 373.064 17.2555 373.429 17.2251C373.829 17.1926 373.957 17.2352 374.072 17.3631C374.139 17.4362 374.127 17.495 374.006 17.5519C373.884 17.6107 373.751 17.6006 373.556 17.5336C373.332 17.4585 373.064 17.4443 372.742 17.4605C372.426 17.4768 372.232 17.3712 371.971 17.3306C371.71 17.288 371.4 17.3591 371.127 17.3043C370.483 17.1764 370.483 17.1764 370.046 17.2007C369.748 17.217 369.438 17.2251 369.147 17.2535C368.8 17.288 368.576 17.2251 368.339 17.1683C368.254 17.148 368.169 17.1094 368.096 17.1114C367.397 17.1419 366.693 17.1703 366 17.221C365.636 17.2474 365.442 17.1744 365.199 17.1236C365.114 17.1054 365.022 17.0688 364.95 17.0729C364.348 17.1013 363.753 17.1378 363.152 17.1723C363.036 17.2271 362.909 17.2799 362.799 17.3388C362.684 17.3996 362.526 17.426 362.295 17.424C361.913 17.424 361.536 17.5093 361.153 17.4017C360.759 17.2921 360.728 17.2982 360.346 17.3246C359.86 17.3591 359.343 17.3509 358.888 17.4301C358.809 17.4443 358.724 17.4828 358.724 17.5113C358.718 17.5295 358.845 17.5559 358.924 17.5722C359.192 17.6209 359.501 17.5498 359.769 17.6006C359.945 17.6331 360.091 17.6818 360.267 17.7163C360.34 17.7305 360.449 17.7284 360.546 17.7264C360.649 17.7244 360.746 17.7102 360.844 17.7122C360.935 17.7143 361.032 17.7264 361.105 17.7447C361.439 17.8218 361.791 17.8929 362.089 17.9842C362.38 18.0735 362.654 18.0126 362.945 18.0085C364.111 18.1506 364.111 18.1526 364.895 18.108C365.089 18.0978 365.29 18.0857 365.49 18.0877C365.575 18.0877 365.654 18.1242 365.739 18.1445C365.982 18.2054 366.213 18.2602 366.553 18.2277C366.845 18.1993 367.154 18.1932 367.452 18.175C367.853 18.1526 367.853 18.1526 368.533 18.2805C368.703 18.313 368.885 18.3089 369.104 18.2927C369.292 18.2785 369.487 18.3089 369.62 18.3678C369.675 18.3921 369.657 18.4327 369.675 18.4672C369.074 18.4997 368.466 18.522 367.883 18.5708C367.507 18.6012 367.337 18.5139 367.088 18.4672C367.003 18.451 366.911 18.4165 366.832 18.4206C366.237 18.451 365.642 18.4855 365.047 18.5261C364.974 18.5301 364.883 18.5768 364.877 18.6052C364.865 18.658 365.016 18.7088 365.235 18.7067C365.527 18.7047 365.812 18.6702 366.073 18.7534C366.292 18.8265 366.565 18.859 366.887 18.8265C367.081 18.8082 367.288 18.8082 367.482 18.792C367.999 18.7433 368.466 18.7534 368.855 18.8914C369.153 18.928 369.444 18.8935 369.73 18.8752C369.942 18.861 370.149 18.8468 370.301 18.8853C370.623 18.9665 370.938 19.0477 371.382 18.9929C371.862 19.0497 372.226 19.1695 372.627 19.2669C372.815 19.3136 372.961 19.34 373.18 19.3095C373.271 19.2974 373.38 19.2973 373.477 19.2913C373.678 19.2811 373.89 19.2507 374.072 19.2628C374.255 19.2771 374.407 19.3359 374.571 19.3724C374.649 19.3907 374.741 19.4212 374.819 19.4191C375.123 19.409 375.421 19.3887 375.718 19.3724C376.016 19.3582 376.314 19.344 376.611 19.3298C376.86 19.3826 377.115 19.4354 377.364 19.4882C377.765 19.4658 378.166 19.4435 378.561 19.4232C379.004 19.3988 379.004 19.4009 379.642 19.5267C379.928 19.5835 380.231 19.547 380.505 19.5206C380.96 19.478 381.264 19.5551 381.586 19.6363C381.653 19.6525 381.774 19.6627 381.853 19.6546C382.169 19.6262 382.442 19.6485 382.673 19.7236C382.837 19.7763 383.001 19.8007 383.201 19.7906C383.9 19.752 384.598 19.7114 385.297 19.6769C385.382 19.6728 385.479 19.6911 385.558 19.7073C386.177 19.8312 386.184 19.8372 386.639 19.8048C387.046 19.7764 387.423 19.7642 387.745 19.8758C387.811 19.9002 387.915 19.9347 387.987 19.9326C388.486 19.9123 388.99 19.89 389.482 19.8555C389.706 19.8393 389.864 19.8454 390.04 19.892C390.265 19.9509 390.466 20.0219 390.836 19.9956C391.863 19.9205 391.869 19.9326 393.083 20.0727C393.169 20.0828 393.284 20.0666 393.381 20.0585C393.588 20.0382 393.739 20.0666 393.922 20.1133C394.329 20.2188 394.341 20.2127 394.729 20.1904C395.027 20.1721 395.337 20.1681 395.628 20.1376C396.078 20.093 396.375 20.1721 396.71 20.2472C396.977 20.3061 397.286 20.2574 397.572 20.2391C397.882 20.2188 398.161 20.2249 398.392 20.302C398.55 20.3548 398.72 20.3832 398.92 20.3731C399.619 20.3365 400.317 20.2959 401.016 20.2594C401.101 20.2553 401.204 20.2716 401.283 20.2858C401.976 20.4116 401.976 20.4177 402.662 20.371C402.881 20.3568 403.063 20.3528 403.227 20.3954C403.385 20.436 403.555 20.4745 403.719 20.5131C404.016 20.4989 404.32 20.4948 404.612 20.4705C404.836 20.4522 404.994 20.4604 405.17 20.503C405.401 20.5578 405.596 20.6531 405.96 20.6065C406.148 20.5841 406.367 20.5902 406.555 20.5699C406.78 20.5436 406.932 20.5598 407.108 20.6126C407.327 20.6755 407.551 20.7404 407.904 20.7079C408.292 20.6714 408.705 20.6653 409.1 20.6369C409.319 20.6207 409.471 20.6369 409.647 20.6897C409.865 20.7567 410.115 20.7993 410.455 20.7729C411.147 20.7222 411.153 20.7323 411.827 20.8602C411.997 20.8926 412.18 20.8886 412.398 20.8724C412.587 20.8581 412.781 20.8886 412.914 20.9475C413.042 21.0124 413.03 21.053 413.042 21.0875ZM358.918 2.7822C358.718 2.79235 358.517 2.80452 358.226 2.62795C358.208 2.5975 358.22 2.56098 358.177 2.53459C358.08 2.47979 357.928 2.44123 357.746 2.43514C357.418 2.42702 357.023 2.49602 357.029 2.54879C357.035 2.59344 357.139 2.632 357.339 2.66853C357.424 2.68274 357.491 2.7071 357.57 2.72333C357.801 2.77002 357.983 2.86136 358.317 2.81468C358.256 2.68884 358.287 2.75176 358.317 2.81468C358.287 2.89181 358.378 2.94661 358.596 2.96894C358.657 2.97503 358.748 2.97096 358.797 2.95878C358.985 2.91413 359.015 2.85325 358.876 2.69291C358.851 2.71929 358.87 2.76596 358.924 2.77814C358.979 2.79032 359.113 2.78018 359.179 2.76597C359.35 2.72741 359.435 2.67666 359.392 2.63404C359.368 2.61172 359.252 2.5833 359.179 2.5833C359.052 2.5833 358.937 2.62795 358.918 2.7822ZM408.031 26.3199C407.588 26.3585 407.078 26.3443 406.634 26.4234C406.555 26.4376 406.476 26.4742 406.47 26.5026C406.464 26.5208 406.586 26.5472 406.659 26.5614C406.823 26.5939 407.005 26.5837 407.217 26.5736C407.539 26.5594 407.727 26.6528 407.977 26.6994C408.055 26.7136 408.159 26.7238 408.244 26.7197C408.736 26.6954 409.222 26.669 409.714 26.6406C409.799 26.6345 409.89 26.6203 409.963 26.602C410.206 26.5432 410.181 26.5046 409.944 26.46C409.683 26.4112 409.477 26.33 409.21 26.2915C408.827 26.2367 408.438 26.3097 408.031 26.3199ZM373.538 27.8015C373.24 27.8178 372.949 27.834 372.651 27.8502C372.554 27.8563 372.451 27.8584 372.36 27.8665C372.171 27.8807 372.032 27.9233 371.941 27.9903C372.08 28.0431 372.25 28.0735 372.439 28.0674C372.736 28.0552 373.028 28.0289 373.325 28.0228C373.647 28.0146 373.836 28.106 374.085 28.1527C374.164 28.1669 374.261 28.1689 374.352 28.1709C374.801 28.179 375.075 28.0735 374.99 27.9253C374.929 27.8097 374.698 27.7407 374.419 27.7549C374.127 27.7691 373.83 27.7853 373.538 27.8015ZM410.108 23.3201C410.181 23.2856 410.26 23.2612 410.297 23.2308C410.406 23.1273 410.363 23.0501 410.163 22.969C409.92 22.8695 409.622 22.9365 409.349 22.9466C409.282 22.9487 409.209 22.9913 409.173 23.0177C409.149 23.0359 409.149 23.0745 409.185 23.0847C409.483 23.1658 409.799 23.2409 410.108 23.3201ZM357.418 17.3246C357.127 17.3408 356.829 17.353 356.537 17.3753C356.465 17.3814 356.398 17.4199 356.355 17.4463C356.276 17.495 356.361 17.562 356.61 17.5681C356.896 17.5762 357.193 17.5417 357.491 17.5255C357.867 17.5052 358.092 17.4301 357.953 17.3651C357.819 17.3022 357.637 17.2901 357.418 17.3246ZM37.6987 12.9872C37.893 12.9771 38.0934 12.9689 38.2878 12.9547C38.47 12.9405 38.6098 12.8959 38.7009 12.8289C38.5491 12.7761 38.379 12.7477 38.1907 12.7538C37.8931 12.766 37.6016 12.7822 37.31 12.8025C37.1278 12.8147 36.9517 12.8593 36.9092 12.9284C36.8667 12.9811 37.2735 13.0116 37.6987 12.9872ZM331.732 12.6746C331.811 12.6929 331.89 12.7295 331.969 12.7295C332.163 12.7295 332.364 12.7173 332.546 12.697C332.625 12.6889 332.685 12.6523 332.722 12.6239C332.746 12.6056 332.74 12.5732 332.704 12.5569C332.528 12.4595 331.823 12.494 331.708 12.6056C331.695 12.6259 331.726 12.6523 331.732 12.6746ZM312.569 1.56036C312.587 1.59283 312.593 1.6253 312.618 1.65777C312.666 1.71866 312.8 1.76332 312.994 1.79377C313.146 1.74303 313.225 1.68621 313.219 1.62532C313.213 1.59284 313.195 1.56035 313.17 1.52787C313.122 1.46699 312.988 1.42235 312.794 1.3919C312.642 1.44062 312.569 1.49744 312.569 1.56036ZM424.145 28.1547C424.09 28.1811 424.036 28.2075 423.975 28.2318C424.139 28.2907 424.291 28.3089 424.406 28.2765C424.479 28.2562 424.522 28.2257 424.576 28.1993C424.412 28.1405 424.266 28.1242 424.145 28.1547ZM420.367 28.4307C420.446 28.449 420.519 28.4733 420.604 28.4855C420.744 28.5058 420.871 28.4713 420.968 28.3982C420.889 28.38 420.817 28.3556 420.732 28.3434C420.592 28.3231 420.464 28.3577 420.367 28.4307ZM422.76 28.0593C422.718 28.108 422.803 28.1486 423.027 28.1831C423.082 28.1567 423.155 28.1324 423.191 28.104C423.252 28.0573 423.149 28.0147 422.93 27.9822C422.869 28.0065 422.815 28.0329 422.76 28.0593ZM409.938 25.8714C409.896 25.9201 409.981 25.9607 410.206 25.9952C410.26 25.9688 410.333 25.9444 410.37 25.916C410.43 25.8693 410.327 25.8267 410.108 25.7942C410.048 25.8186 409.993 25.845 409.938 25.8714ZM392.47 11.5096C392.415 11.536 392.361 11.5624 392.3 11.5868C392.464 11.6456 392.616 11.6639 392.731 11.6314C392.804 11.6111 392.847 11.5807 392.901 11.5543C392.737 11.4954 392.592 11.4792 392.47 11.5096ZM375.737 3.89037C375.882 3.90458 376.004 3.87618 376.107 3.80108C376.028 3.78282 375.955 3.75846 375.87 3.74628C375.731 3.72598 375.603 3.7605 375.506 3.83356C375.585 3.85386 375.664 3.87211 375.737 3.89037ZM366.851 3.41341C366.796 3.4398 366.741 3.46619 366.681 3.49054C366.845 3.5494 366.996 3.56766 367.112 3.53519C367.185 3.51489 367.227 3.48445 367.282 3.45806C367.118 3.3992 366.972 3.385 366.851 3.41341ZM306.592 1.55832C306.538 1.58471 306.483 1.6111 306.422 1.63545C306.586 1.69431 306.738 1.71257 306.854 1.6801C306.927 1.6598 306.969 1.62936 307.024 1.60297C306.86 1.54411 306.714 1.52991 306.592 1.55832ZM6.55215 18.0714C6.47319 18.0532 6.3943 18.0349 6.32141 18.0146C6.14527 18.0694 6.09063 18.1202 6.18781 18.1587C6.24855 18.1831 6.33958 18.1973 6.41854 18.2156C6.60076 18.1608 6.64325 18.112 6.55215 18.0714Z" fill="#4F9CF9"/>
<path d="M59.7796 28.9044C59.0811 28.943 58.3888 28.9917 57.6903 29.016C57.3198 29.0282 57.1863 29.1155 57.0344 29.1967C56.9129 29.2616 56.7732 29.2819 56.5485 29.2941C54.6534 29.3935 52.7644 29.4991 50.8755 29.6026C50.6386 29.5762 50.5232 29.5336 50.5779 29.4828C50.6082 29.4524 50.6811 29.4098 50.754 29.4057C52.0478 29.3306 53.3353 29.2535 54.6351 29.1946C55.0056 29.1784 55.1089 29.0891 55.2972 29.016C55.358 28.9917 55.4066 28.9551 55.4856 28.9409C55.5645 28.9247 55.6799 28.9267 55.7832 28.9227C57.8726 28.807 59.962 28.6933 62.0514 28.5776C62.2883 28.604 62.4037 28.6466 62.349 28.6974C62.3186 28.7278 62.2457 28.7704 62.1728 28.7745C61.3711 28.8171 60.5753 28.8598 59.7796 28.9044Z" fill="#4F9CF9"/>
<path d="M442.225 39.7126C441.909 39.737 441.508 39.7715 441.18 39.6538C441.022 39.5969 440.852 39.5787 440.645 39.5909C440.348 39.6111 440.044 39.6274 439.74 39.6396C439.661 39.6416 439.558 39.6193 439.479 39.601C439.309 39.5645 439.163 39.5036 438.981 39.4873C438.799 39.4711 438.58 39.5157 438.392 39.5056C438.143 39.4914 438.04 39.4366 438.107 39.3859C438.143 39.3574 438.216 39.3168 438.295 39.3108C439.418 39.2357 439.424 39.2357 439.74 39.3087C439.983 39.3656 440.208 39.4285 440.554 39.394C440.846 39.3655 441.156 39.3595 441.453 39.3412C441.866 39.3168 441.866 39.3189 442.534 39.4467C442.704 39.4792 442.887 39.4772 443.105 39.4589C443.294 39.4447 443.476 39.4772 443.628 39.532C443.53 39.601 443.391 39.6456 443.202 39.6578C442.899 39.6781 442.601 39.6923 442.225 39.7126Z" fill="#4F9CF9"/>
<path d="M431.044 39.0874C431.809 39.0447 432.581 39.0082 433.346 38.9595C433.662 38.9392 433.911 38.9616 434.13 39.0306C434.366 39.1057 434.634 39.0996 434.925 39.0854C435.108 39.0772 435.284 39.1097 435.405 39.1665C435.454 39.1889 435.441 39.2295 435.46 39.2619C434.792 39.2985 434.118 39.337 433.443 39.3695C433.364 39.3736 433.267 39.3533 433.194 39.337C433.03 39.3025 432.89 39.2416 432.714 39.2295C432.338 39.201 431.961 39.2558 431.579 39.266C431.396 39.27 431.22 39.2396 431.099 39.1848C431.05 39.1584 431.062 39.1198 431.044 39.0874Z" fill="#4F9CF9"/>
<path d="M154.472 21.6365C155.268 21.5918 156.063 21.5492 156.859 21.5046C157.096 21.533 157.205 21.5736 157.157 21.6243C157.126 21.6548 157.053 21.6974 156.98 21.7014C155.389 21.7928 153.798 21.88 152.213 21.9673C151.976 21.9389 151.866 21.8983 151.915 21.8476C151.945 21.8171 152.018 21.7745 152.091 21.7704C152.881 21.7238 153.676 21.6811 154.472 21.6365Z" fill="#4F9CF9"/>
<path d="M31.8655 32.9159C31.5072 32.9199 31.1307 32.995 30.7298 32.9382C30.6509 32.928 30.5415 32.8955 30.5476 32.8773C30.5597 32.8468 30.6326 32.8083 30.7116 32.7961C31.0578 32.7453 31.4891 32.7393 31.6652 32.5972C31.7502 32.5241 31.9082 32.4998 32.1207 32.4856C32.3455 32.4693 32.5033 32.4754 32.6795 32.518C32.9103 32.5728 33.1047 32.6743 33.4691 32.6215C33.4873 32.654 33.5297 32.6905 33.5115 32.721C33.4933 32.7514 33.4145 32.7799 33.3416 32.8022C33.2748 32.8225 33.1836 32.8407 33.0985 32.8468C32.6977 32.8712 32.2968 32.8915 31.8655 32.9159Z" fill="#4F9CF9"/>
<path d="M347.753 32.5076C348.051 32.4913 348.36 32.4832 348.652 32.4548C348.883 32.4325 349.028 32.4467 349.211 32.4954C349.52 32.5806 349.539 32.5725 350.298 32.5847C350.383 32.5867 350.486 32.6172 350.535 32.6436C350.565 32.6578 350.523 32.6963 350.486 32.7166C350.432 32.743 350.353 32.7775 350.28 32.7775C349.8 32.7836 349.314 32.9034 348.846 32.7654C348.609 32.6963 348.348 32.6639 348.026 32.6943C347.832 32.7126 347.625 32.7207 347.425 32.7288C347.231 32.7369 347.03 32.7146 346.909 32.6537C346.733 32.5644 346.836 32.5299 347.152 32.536C347.352 32.5401 347.553 32.5177 347.753 32.5076Z" fill="#4F9CF9"/>
<path d="M457.832 46.498C458.215 46.4777 458.597 46.4533 458.986 46.4371C459.065 46.433 459.162 46.4554 459.235 46.4696C459.527 46.5305 459.484 46.634 459.496 46.7253C459.502 46.8207 458.828 46.8978 458.543 46.8329C458.227 46.7598 457.941 46.6766 457.504 46.7213C457.334 46.7375 457.133 46.701 457.024 46.6421C456.86 46.5569 456.951 46.5223 457.261 46.5284C457.443 46.5325 457.638 46.5102 457.832 46.498Z" fill="#4F9CF9"/>
<path d="M265.002 18.8724C265.397 18.8501 265.792 18.8156 266.187 18.8136C266.417 18.8116 266.533 18.8785 266.478 18.9272C266.448 18.9577 266.375 19.0003 266.302 19.0044C265.512 19.0531 264.723 19.0937 263.933 19.1383C263.702 19.1099 263.587 19.0673 263.642 19.0186C263.672 18.9881 263.745 18.9475 263.818 18.9415C264.213 18.913 264.607 18.8948 265.002 18.8724Z" fill="#4F9CF9"/>
<path d="M450.258 39.8915C450.641 39.8712 451.03 39.8407 451.412 39.8306C451.613 39.8265 451.771 39.8732 451.795 39.926C451.807 39.9503 451.71 39.993 451.631 40.0031C451.084 40.0721 450.495 40.0802 449.924 40.1148C449.742 40.1249 449.548 40.0924 449.438 40.0356C449.274 39.9483 449.366 39.9159 449.675 39.9219C449.87 39.924 450.064 39.9016 450.258 39.8915Z" fill="#4F9CF9"/>
<path d="M357.785 32.7815C357.98 32.7714 358.18 32.745 358.368 32.7531C358.569 32.7632 358.696 32.8221 358.757 32.881C358.824 32.9479 358.818 33.0109 358.757 33.0677C358.66 33.1651 358.563 33.1611 358.338 33.0961C357.992 32.9946 357.967 33.0068 357.281 33.0109C357.202 33.0109 357.105 32.9804 357.044 32.954C356.953 32.9134 357.002 32.8505 357.214 32.814C357.372 32.7876 357.591 32.7917 357.785 32.7815Z" fill="#4F9CF9"/>
<path d="M436.027 39.2258C436.313 39.2096 436.598 39.1832 436.884 39.1832C437.084 39.1812 437.242 39.2278 437.26 39.2786C437.267 39.3029 437.175 39.3435 437.103 39.3557C436.756 39.4105 436.368 39.4146 435.991 39.4328C435.815 39.441 435.62 39.4085 435.511 39.3517C435.347 39.2664 435.444 39.2278 435.742 39.24C435.833 39.2441 435.93 39.2319 436.027 39.2258Z" fill="#4F9CF9"/>
<path d="M391.099 36.7355C390.674 36.7598 390.273 36.7294 390.304 36.6766C390.346 36.6076 390.522 36.563 390.705 36.5508C390.996 36.5305 391.288 36.5142 391.585 36.5021C391.774 36.4939 391.944 36.5244 392.096 36.5772C392.004 36.6421 391.865 36.6888 391.683 36.703C391.494 36.7172 391.294 36.7253 391.099 36.7355Z" fill="#4F9CF9"/>
<path d="M388.314 36.4755C388.6 36.4593 388.885 36.4329 389.171 36.4329C389.371 36.4309 389.529 36.4775 389.547 36.5283C389.553 36.5526 389.462 36.5932 389.389 36.6054C389.043 36.6602 388.654 36.6643 388.278 36.6825C388.102 36.6907 387.907 36.6582 387.798 36.6013C387.634 36.5161 387.731 36.4776 388.029 36.4897C388.12 36.4938 388.217 36.4816 388.314 36.4755Z" fill="#4F9CF9"/>
<path d="M354.341 32.7655C354.626 32.7493 354.912 32.7229 355.197 32.7208C355.398 32.7188 355.555 32.7655 355.574 32.8162C355.58 32.8406 355.489 32.8792 355.416 32.8934C355.07 32.9482 354.681 32.9522 354.304 32.9705C354.128 32.9786 353.934 32.9461 353.825 32.8893C353.661 32.8041 353.758 32.7655 354.055 32.7777C354.146 32.7817 354.244 32.7696 354.341 32.7655Z" fill="#4F9CF9"/>
<path d="M352.745 32.6457C353.048 32.6295 353.146 32.6193 353.243 32.6193C353.425 32.6193 353.613 32.6437 353.723 32.7025C353.887 32.7878 353.789 32.8122 353.492 32.8162C353.109 32.8203 352.733 32.8629 352.35 32.871C352.15 32.8751 351.992 32.8264 351.979 32.7756C351.973 32.7513 352.064 32.7086 352.137 32.7005C352.392 32.6701 352.672 32.6518 352.745 32.6457Z" fill="#4F9CF9"/>
<path d="M385.84 20.705C385.646 20.7152 385.439 20.7436 385.257 20.7334C385.014 20.7192 384.917 20.6644 384.977 20.6137C385.014 20.5853 385.081 20.5447 385.154 20.5386C385.542 20.5102 385.937 20.4919 386.326 20.4716C386.557 20.5021 386.66 20.5447 386.599 20.5954C386.563 20.6238 386.496 20.6624 386.423 20.6705C386.235 20.6908 386.034 20.6949 385.84 20.705Z" fill="#4F9CF9"/>
<path d="M150.115 21.8757C150.303 21.8737 150.473 21.9001 150.619 21.9508C150.528 22.0158 150.394 22.0584 150.212 22.0767C150.121 22.0848 150.018 22.0909 149.92 22.0929C149.732 22.097 149.562 22.0686 149.416 22.0178C149.507 21.9529 149.647 21.9102 149.823 21.892C149.914 21.8839 150.018 21.8818 150.115 21.8757Z" fill="#4F9CF9"/>
<path d="M448.184 39.8834C448.178 39.8246 448.549 39.7576 448.883 39.7596C449.059 39.7617 449.241 39.7901 449.344 39.8449C449.502 39.9281 449.411 39.9606 449.114 39.9545C448.931 39.9504 448.737 39.9849 448.555 39.9788C448.348 39.9768 448.227 39.9321 448.184 39.8834Z" fill="#4F9CF9"/>
<path d="M359.545 33.0272C359.539 33.0049 359.508 32.9785 359.527 32.9582C359.642 32.8466 360.341 32.8121 360.523 32.9095C360.553 32.9278 360.565 32.9582 360.541 32.9765C360.505 33.0049 360.438 33.0414 360.365 33.0495C360.177 33.0698 359.982 33.08 359.788 33.082C359.703 33.082 359.624 33.0475 359.545 33.0272Z" fill="#4F9CF9"/>
<path d="M34.0271 32.5909C33.3104 32.6336 33.2982 32.6295 33.4258 32.528C33.5412 32.4367 33.7538 32.3819 34.0636 32.3819C34.1547 32.3819 34.2518 32.3778 34.3308 32.3859C34.4158 32.3961 34.5374 32.4164 34.5556 32.4407C34.592 32.4874 34.4887 32.5381 34.3065 32.5726C34.2275 32.5889 34.1243 32.5848 34.0271 32.5909Z" fill="#4F9CF9"/>
<path d="M159.087 21.5903C158.874 21.6248 158.692 21.6126 158.559 21.5477C158.425 21.4827 158.637 21.4056 159.008 21.3873C159.105 21.3833 159.208 21.367 159.299 21.3752C159.391 21.3813 159.482 21.4056 159.536 21.4299C159.634 21.4705 159.573 21.5254 159.379 21.572C159.3 21.5903 159.184 21.5862 159.087 21.5903Z" fill="#4F9CF9"/>
<path d="M446.919 39.7308C446.974 39.7044 447.028 39.678 447.089 39.6537C447.314 39.6882 447.411 39.7287 447.35 39.7754C447.314 39.8038 447.241 39.8282 447.186 39.8546C446.962 39.8201 446.87 39.7775 446.919 39.7308Z" fill="#4F9CF9"/>
<path d="M43.648 55.6957C43.648 55.6714 43.7331 55.6328 43.7999 55.6247C43.9274 55.6105 44.0853 55.6389 44.1946 55.6957C44.3465 55.7769 44.2554 55.8196 43.976 55.7972C43.7817 55.781 43.648 55.7404 43.648 55.6957Z" fill="#4F9CF9"/>
<path d="M362.02 31.1375C362.099 31.1558 362.178 31.1741 362.25 31.1944C362.147 31.2695 362.02 31.3019 361.886 31.2816C361.801 31.2695 361.728 31.2451 361.649 31.2268C361.752 31.1517 361.874 31.1233 362.02 31.1375Z" fill="#4F9CF9"/>
<path d="M359.918 31.0457C360.039 31.0153 360.185 31.0315 360.355 31.0904C360.301 31.1168 360.252 31.1472 360.185 31.1675C360.07 31.2 359.918 31.1837 359.754 31.1228C359.803 31.0985 359.857 31.0721 359.918 31.0457Z" fill="#4F9CF9"/>
<path d="M358.306 31.1352C358.385 31.1535 358.464 31.1718 358.537 31.1921C358.434 31.2672 358.312 31.2996 358.173 31.2793C358.088 31.2671 358.015 31.2428 357.936 31.2245C358.039 31.1494 358.16 31.119 358.306 31.1352Z" fill="#4F9CF9"/>
<path d="M357.123 31.0279C357.214 31.0685 357.166 31.1172 356.99 31.172C356.911 31.1537 356.82 31.1395 356.759 31.1152C356.662 31.0766 356.71 31.0259 356.893 30.9711C356.965 30.9914 357.044 31.0096 357.123 31.0279Z" fill="#4F9CF9"/>
</svg>
