<svg width="571" height="76" viewBox="0 0 571 76" fill="none" xmlns="http://www.w3.org/2000/svg">
<path d="M380.697 57.8041C380.147 57.8345 379.592 57.8569 379.054 57.9C378.705 57.927 378.549 57.8578 378.313 57.8229C378.234 57.8107 378.148 57.7858 378.076 57.7896C377.532 57.8199 376.988 57.8534 376.445 57.887C376.282 57.9509 376.182 58.0352 375.928 58.0679C375.68 58.0989 375.385 58.1014 375.107 58.1182C374.741 58.139 374.374 58.1598 374.008 58.1789C373.825 58.1885 373.676 58.2203 373.619 58.2785C373.609 58.2882 373.733 58.3112 373.801 58.3251C374.027 58.3713 374.249 58.424 374.496 58.4588C374.733 58.492 375.018 58.4318 375.272 58.4746C375.842 58.5708 375.848 58.5692 376.275 58.5462C376.642 58.5255 377.008 58.5031 377.375 58.4871C377.447 58.4833 377.532 58.5066 377.611 58.5188C377.847 58.5521 378.004 58.631 378.347 58.5976C378.607 58.5713 378.896 58.564 379.168 58.5488C379.4 58.5934 379.615 58.6445 379.863 58.6793C380.094 58.7126 380.163 58.7393 380.044 58.7868C379.936 58.8311 379.781 58.8501 379.575 58.855C379.391 58.8582 379.208 58.8742 379.025 58.8838C378.931 58.8894 378.842 58.8934 378.753 58.8989C378.404 58.9196 378.404 58.9196 377.756 58.8224C377.502 58.7845 377.222 58.843 376.98 58.8066C376.816 58.7823 376.674 58.745 376.516 58.7191C376.449 58.7084 376.343 58.7077 376.259 58.7117C375.982 58.7253 375.704 58.7357 375.438 58.7588C375.25 58.7748 375.141 58.8207 375.167 58.8654C375.174 58.883 375.309 58.9075 375.387 58.9084C375.566 58.9101 375.754 58.886 375.927 58.8958C376.095 58.9056 376.27 58.9362 376.395 58.9704C376.651 59.042 376.93 58.9739 377.171 58.9911C377.424 59.0098 377.634 59.0722 377.877 59.1086C377.939 59.1177 378.054 59.1007 378.149 59.095C378.421 59.0815 378.693 59.0695 378.965 59.056C379.197 59.1005 379.445 59.1401 379.655 59.1913C380.035 59.2843 380.439 59.3177 380.92 59.2671C381.191 59.2391 381.459 59.2465 381.681 59.3071C381.909 59.3694 382.165 59.3608 382.448 59.3455C382.709 59.3305 382.973 59.2929 383.244 59.3355C383.83 59.43 383.836 59.4348 384.519 59.3904C384.724 59.3774 384.88 59.3729 385.038 59.4084C385.186 59.4409 385.344 59.4684 385.496 59.4992C385.769 59.4856 386.046 59.472 386.318 59.4569C386.668 59.4362 386.864 59.457 386.955 59.5461C387.009 59.6002 387.035 59.6497 387.16 59.6856C387.308 59.7292 387.464 59.7263 387.674 59.7116C387.874 59.6987 388.018 59.6798 388.097 59.6214C388.129 59.5971 388.194 59.574 388.254 59.5543C388.303 59.5394 388.379 59.5163 388.424 59.5191C388.508 59.5248 388.621 59.5415 388.65 59.5621C388.937 59.7538 388.937 59.7554 389.22 59.8092C389.531 59.8691 389.852 59.9225 390.136 59.9906C390.391 60.051 390.64 60.0217 390.913 60.0193C391.119 60.0176 391.256 60.0581 391.242 60.1C391.233 60.1241 391.157 60.16 391.091 60.1638C390.547 60.2005 389.998 60.2325 389.448 60.2597C389.381 60.2634 389.296 60.2353 389.217 60.2215C389.058 60.194 388.916 60.1503 388.748 60.1421C388.58 60.1339 388.387 60.1596 388.204 60.1692C388.021 60.1788 387.827 60.2013 387.659 60.1899C387.491 60.1785 387.354 60.1332 387.196 60.104C387.122 60.0902 387.021 60.0702 386.96 60.0756C386.556 60.1175 386.251 60.0672 385.956 59.9991C385.894 59.9852 385.788 59.9765 385.71 59.9803C385.066 60.0131 384.427 60.0506 383.784 60.0866C383.523 60.1017 383.307 60.0474 383.244 59.9532C383.213 59.9006 383.153 59.8481 383.149 59.7952C383.142 59.699 382.832 59.6487 382.61 59.6618C382.244 59.681 381.871 59.697 381.511 59.7242C381.217 59.7459 380.965 59.7288 380.76 59.6728C380.522 59.6091 380.255 59.6242 379.989 59.6441C379.79 59.6586 379.738 59.712 379.758 59.845C379.777 59.9524 379.685 59.9869 379.324 60.0076C378.869 60.0339 378.408 60.0603 377.947 60.0819C377.875 60.0857 377.79 60.0592 377.716 60.0454C377.558 60.0179 377.416 59.9725 377.248 59.9643C377.08 59.9545 376.887 59.9803 376.703 59.9915C376.52 60.001 376.327 60.0252 376.159 60.0154C375.991 60.0056 375.848 59.9587 375.696 59.9295C375.622 59.9157 375.532 59.8956 375.459 59.8994C375.093 59.9154 374.727 59.9378 374.36 59.9585C373.949 59.9813 373.949 59.9813 373.357 59.8869C373.087 59.8443 372.822 59.8818 372.561 59.8969C372.283 59.9121 372.022 59.9207 371.8 59.8584C371.652 59.818 371.489 59.7937 371.317 59.8032C370.856 59.8264 370.401 59.8544 369.94 59.8775C369.862 59.8814 369.756 59.8743 369.693 59.8604C369.393 59.7956 369.1 59.7451 368.69 59.7823C368.336 59.8142 367.952 59.8191 367.597 59.8494C367.403 59.8655 367.318 59.9176 367.36 59.9573C367.383 59.978 367.502 60.0011 367.58 60.0004C367.758 60.0005 367.952 59.9747 368.119 59.9829C368.466 59.9992 368.649 60.1324 369.097 60.0917C369.363 60.067 369.641 60.0566 369.919 60.0478C369.991 60.0456 370.071 60.0754 370.15 60.0907C370.376 60.1321 370.576 60.1866 370.896 60.155C371.162 60.1302 371.446 60.1214 371.718 60.1063C372.151 60.0817 372.151 60.0833 372.721 60.1763C372.991 60.2205 373.256 60.1814 373.517 60.1679C373.711 60.1582 373.894 60.1406 374.052 60.1617C374.294 60.1934 374.472 60.2688 374.767 60.2615C375.045 60.2543 375.316 60.2295 375.594 60.2191C375.766 60.2129 375.93 60.2371 376.072 60.2792C376.22 60.3213 376.378 60.3392 376.566 60.328C376.838 60.3128 377.116 60.2944 377.394 60.284C377.471 60.2817 377.562 60.2954 377.635 60.3076C377.793 60.3351 377.946 60.3675 378.098 60.3967C378.371 60.3848 378.649 60.3792 378.915 60.3577C379.12 60.3415 379.265 60.3466 379.435 60.3773C379.65 60.4188 379.828 60.4943 380.171 60.4544C380.342 60.4353 380.543 60.4384 380.714 60.4209C380.925 60.3983 381.07 60.405 381.224 60.4518C381.515 60.5408 381.871 60.5394 382.236 60.501C382.635 60.4591 382.939 60.5014 383.245 60.5694C383.567 60.6404 383.567 60.6388 383.825 60.8147C383.901 60.8654 384.109 60.8877 384.281 60.8766C384.57 60.8581 384.821 60.864 385.037 60.9231C385.265 60.9869 385.531 60.9766 385.803 60.9567C386.163 60.9295 386.524 60.9056 386.826 60.9961C386.974 61.0397 387.131 61.0496 387.325 61.0367C387.874 61.0031 388.43 60.9808 388.968 60.9409C389.295 60.9156 389.488 60.9653 389.714 61.0067C390.019 61.0635 390.351 61.1136 390.361 61.2402C390.362 61.2611 390.442 61.2845 390.51 61.2999C390.657 61.3324 390.815 61.3599 390.968 61.3907C391.194 61.4369 391.414 61.4751 391.719 61.4469C391.985 61.4237 392.268 61.4149 392.54 61.3981C392.812 61.3814 393.062 61.3712 393.312 61.43C393.601 61.4966 393.906 61.5597 394.233 61.6083C394.464 61.6432 394.761 61.5781 395.009 61.6257C395.162 61.6549 395.309 61.689 395.473 61.7132C395.54 61.7239 395.646 61.715 395.735 61.711C395.918 61.703 396.107 61.6966 396.284 61.679C396.489 61.6596 396.645 61.6615 396.804 61.6971C396.951 61.7295 397.099 61.7748 397.267 61.783C397.519 61.7952 397.792 61.7287 398.049 61.8003C398.179 61.8361 398.343 61.87 398.511 61.8798C398.679 61.8896 398.872 61.8639 399.051 61.864C399.129 61.8633 399.225 61.8882 399.271 61.9086C399.3 61.9196 399.263 61.9504 399.226 61.9668C399.177 61.9865 399.106 62.0127 399.034 62.0166C398.485 62.0501 397.935 62.0789 397.386 62.1109C397.058 62.1297 397.058 62.1297 396.388 62.0343C396.23 62.0116 396.058 62.0179 395.864 62.0308C395.603 62.0475 395.338 62.077 395.063 62.0505C394.698 61.9445 394.257 61.9386 393.792 61.9843C393.599 62.0036 393.42 62.0051 393.273 61.9759C392.963 61.9176 392.636 61.8642 392.357 61.7944C392.142 61.7401 392.041 61.7361 391.957 61.8139C391.931 61.8382 391.905 61.864 391.913 61.8864C391.952 61.9663 392.019 62.0444 392.058 62.1243C392.071 62.1466 392.028 62.1727 392.002 62.197C391.918 62.2651 391.801 62.2612 391.601 62.2068C391.402 62.1523 391.166 62.1175 390.856 62.1458C390.59 62.1705 390.3 62.1698 390.034 62.1961C389.625 62.2349 389.331 62.1861 389.031 62.1196C388.969 62.1057 388.862 62.0986 388.785 62.1025C387.957 62.1465 387.136 62.1952 386.309 62.2392C386.131 62.2487 385.968 62.226 385.825 62.1839C385.677 62.1419 385.514 62.1208 385.337 62.1303C384.604 62.1703 383.871 62.207 383.138 62.255C382.839 62.2752 382.598 62.2564 382.388 62.202C382.229 62.1617 382.083 62.1501 381.888 62.1566C381.677 62.1632 381.528 62.1805 381.425 62.2279C381.328 62.2737 381.403 62.3003 381.628 62.3337C381.87 62.3701 382.097 62.4179 382.329 62.4609C382.512 62.4529 382.695 62.4385 382.873 62.4386C382.951 62.4379 383.026 62.4662 383.105 62.4815C383.331 62.5261 383.54 62.5709 383.856 62.5425C384.122 62.5178 384.406 62.5105 384.677 62.4938C385.055 62.4729 385.055 62.4729 385.675 62.5687C385.833 62.593 386 62.59 386.199 62.5738C386.371 62.5611 386.551 62.582 386.677 62.6291C386.729 62.6479 386.714 62.6801 386.616 62.7869C386.622 62.8655 386.736 62.8292 386.771 62.7775C386.827 62.7032 386.709 62.6802 386.489 62.7222C386.335 62.7524 386.26 62.7947 386.301 62.8281C386.325 62.8455 386.433 62.8671 386.616 62.7869C387.099 62.6865 387.472 62.6721 387.826 62.6434C388.037 62.6271 388.171 62.6324 388.341 62.6727C388.545 62.7207 388.75 62.7719 389.077 62.7434C389.431 62.7115 389.809 62.705 390.17 62.6779C390.502 62.6526 390.68 62.7217 390.895 62.7616C391.155 62.8091 391.435 62.7505 391.671 62.7774C391.918 62.8042 392.096 62.8732 392.381 62.8836C392.79 62.8368 393.057 62.9148 393.373 62.965C393.621 63.003 393.908 62.9653 394.169 62.9454C394.463 62.9236 394.709 62.9392 394.919 62.9952C395.158 63.0589 395.419 63.0422 395.685 63.0255C396.307 62.9881 396.329 62.9831 396.697 63.0682C396.964 63.1301 397.212 63.0991 397.473 63.0889C397.705 63.1302 397.931 63.1748 398.173 63.2112C398.235 63.2203 398.351 63.2033 398.446 63.1977C398.718 63.1825 398.995 63.1673 399.267 63.1522C399.45 63.1426 399.644 63.1169 399.811 63.125C399.979 63.1348 400.122 63.1802 400.275 63.2093C400.427 63.2385 400.585 63.2677 400.733 63.2985C400.959 63.3447 401.173 63.383 401.484 63.3563C401.749 63.3331 402.027 63.3243 402.305 63.3075C402.655 63.2869 402.644 63.2918 403.302 63.3824C403.657 63.4324 404.015 63.3651 404.371 63.3557C404.549 63.3509 404.723 63.3671 404.849 63.4126C404.9 63.4314 404.886 63.4636 404.904 63.4907C403.989 63.5418 403.066 63.5866 402.162 63.6473C401.813 63.6711 401.625 63.615 401.432 63.5685C401.115 63.4942 400.711 63.6099 400.408 63.513C400.226 63.4552 399.967 63.4238 399.663 63.4552C399.485 63.4728 399.296 63.4728 399.113 63.4888C398.648 63.5281 398.219 63.5334 397.838 63.4259C397.707 63.3885 397.522 63.3692 397.385 63.3335C397.226 63.2947 397.074 63.2736 396.891 63.2832C396.064 63.3287 395.242 63.3742 394.421 63.423C394.349 63.4268 394.278 63.4515 394.218 63.4696C394.065 63.5159 394.118 63.5507 394.371 63.5775C394.455 63.5864 394.524 63.6066 394.603 63.622C394.755 63.6512 394.898 63.6981 395.066 63.7079C395.234 63.7177 395.427 63.6936 395.61 63.684C395.794 63.6744 395.987 63.6487 396.155 63.6569C396.323 63.6667 396.465 63.712 396.623 63.7395C396.697 63.7533 396.788 63.7766 396.86 63.7744C397.227 63.7616 397.588 63.7409 397.954 63.7233C398.186 63.7647 398.385 63.8256 398.659 63.8377C398.833 63.8458 399.015 63.8266 399.194 63.8283C399.272 63.8292 399.374 63.8524 399.414 63.8729C399.437 63.8856 399.367 63.9183 399.313 63.9348C399.106 63.9975 398.815 63.9887 398.555 64.0102C398.272 64.0335 398.015 64.0293 397.794 63.9686C397.646 63.9281 397.483 63.9071 397.305 63.9166C396.844 63.9414 396.389 63.9694 395.928 63.991C395.85 63.9948 395.755 63.9812 395.681 63.9706C395.089 63.8778 395.089 63.8746 394.678 63.8989C394.074 63.9346 394.074 63.9346 393.661 63.8531C393.582 63.8377 393.496 63.808 393.429 63.8101C392.785 63.8413 392.146 63.8724 391.508 63.9148C391.297 63.9278 391.153 63.929 390.994 63.8887C390.857 63.8546 390.698 63.8158 390.531 63.8076C390.357 63.7995 390.17 63.8251 389.986 63.8347C389.803 63.8443 389.61 63.8668 389.447 63.8554C389.279 63.844 389.131 63.8003 388.984 63.7695C388.831 63.7371 388.67 63.74 388.465 63.7546C387.832 63.7969 387.826 63.7922 387.19 63.6982C387.116 63.6875 387.021 63.6755 386.943 63.6794C386.482 63.7026 386.027 63.7305 385.566 63.7537C385.389 63.7633 385.214 63.7439 385.088 63.6984C385.037 63.6796 385.051 63.6474 385.013 63.5852C384.973 63.5711 385.02 63.5964 385.032 63.6203C385.116 63.6164 385.216 63.6187 385.277 63.6054C385.43 63.5736 385.505 63.5328 385.464 63.4995C385.44 63.482 385.333 63.4605 385.266 63.4611C385.144 63.4621 385.04 63.4983 385.013 63.5852C384.666 63.6411 384.294 63.6555 383.934 63.6842C383.723 63.7021 383.589 63.6952 383.419 63.655C383.214 63.6054 383.005 63.5574 382.678 63.5859C382.323 63.6178 381.945 63.6258 381.579 63.6514C381.158 63.6807 380.963 63.5379 380.607 63.5442C380.24 63.5505 379.874 63.5809 379.508 63.6033C379.186 63.6221 379.186 63.6221 378.51 63.5236C378.262 63.4872 377.976 63.5458 377.734 63.5077C377.571 63.4835 377.428 63.4462 377.271 63.4202C377.203 63.4096 377.097 63.4105 377.014 63.4144C376.553 63.4376 376.086 63.4544 375.643 63.4935C375.139 63.5395 374.751 63.4979 374.382 63.4064C373.927 63.4279 373.465 63.4415 373.016 63.4758C372.689 63.5011 372.496 63.4498 372.27 63.4084C372.191 63.3946 372.122 63.3712 372.038 63.3655C371.954 63.3598 371.855 63.3734 371.766 63.379C371.4 63.3998 371.022 63.411 370.667 63.443C370.23 63.4836 370.053 63.3535 369.712 63.3404C369.49 63.4209 369.375 63.5294 368.924 63.5413C368.557 63.5508 368.191 63.5796 367.825 63.6004C367.642 63.61 367.459 63.6212 367.276 63.6308C366.981 63.6477 366.847 63.7114 366.915 63.8071C366.952 63.8598 366.984 63.9124 367.016 63.9651C367.078 64.0592 366.945 64.1406 366.712 64.1538C366.068 64.1898 365.429 64.2273 364.785 64.2601C364.613 64.2696 364.444 64.2438 364.302 64.2017C364.154 64.1596 363.991 64.1418 363.813 64.1513C363.169 64.1873 362.531 64.2248 361.887 64.2576C361.815 64.2614 361.719 64.2462 361.645 64.234C361.487 64.2065 361.334 64.1741 361.182 64.1449C360.815 64.1625 360.454 64.1752 360.093 64.1975C359.51 64.2314 359.511 64.233 359.075 64.1484C358.996 64.1331 358.916 64.1033 358.844 64.1055C358.566 64.1143 358.294 64.1327 358.016 64.1495C357.201 64.1982 357.2 64.1982 356.957 64.1521C356.737 64.1091 356.538 64.0562 356.211 64.0847C355.857 64.1166 355.479 64.1294 355.112 64.1486C354.84 64.1622 354.568 64.1773 354.295 64.1829C354.223 64.1851 354.143 64.1553 354.064 64.1399C353.837 64.0921 353.617 64.0539 353.313 64.0837C353.136 64.1013 352.947 64.1061 352.763 64.1157C352.286 64.1423 352.286 64.1422 351.494 64.0527C351.415 64.0438 351.319 64.0334 351.242 64.0389C350.598 64.0732 349.959 64.1108 349.315 64.1436C349.238 64.1474 349.142 64.1386 349.064 64.1313C348.177 64.0458 348.177 64.0458 347.244 64.0987C346.889 64.1177 346.878 64.1243 346.499 64.0425C346.329 64.007 346.189 63.9906 345.994 64.0034C345.262 64.0482 344.523 64.0802 343.797 64.1313C343.469 64.1534 343.276 64.1069 343.05 64.0655C342.971 64.0517 342.886 64.0204 342.819 64.0226C342.086 64.0593 341.353 64.1025 340.62 64.1392C340.553 64.143 340.468 64.1116 340.389 64.0979C340.236 64.0703 340.088 64.0282 339.92 64.02C339.747 64.0119 339.559 64.0376 339.37 64.0472C338.91 64.072 338.909 64.0704 338.368 63.9803C338.294 63.9681 338.199 63.9513 338.126 63.9551C337.393 63.9935 336.655 64.0271 335.928 64.0798C335.512 64.109 335.225 64.0649 334.925 64.0001C334.862 63.9862 334.756 63.9807 334.678 63.9846C333.851 64.0285 333.03 64.0773 332.202 64.1212C332.03 64.1307 331.861 64.1049 331.719 64.0644C331.491 64.0005 331.23 64.0108 330.953 64.0276C330.315 64.0668 330.309 64.0652 329.925 63.9915C329.845 63.9761 329.777 63.9558 329.693 63.9485C329.614 63.9412 329.514 63.9468 329.431 63.9508C329.065 63.9699 328.698 63.9907 328.332 64.0115C327.966 64.0323 327.593 64.0451 327.233 64.0754C326.79 64.1129 326.571 64.0105 326.255 63.965C325.8 63.9898 325.333 64.0066 324.884 64.0441C324.541 64.0728 324.374 64.0036 324.143 63.9686C324.064 63.9565 323.978 63.9299 323.906 63.9338C323.079 63.9761 322.252 64.0217 321.43 64.072C321.231 64.0834 321.096 64.0717 320.926 64.0346C320.547 63.9512 320.53 63.9546 319.909 63.992C319.637 64.0087 319.376 64.0238 319.137 63.9601C318.927 63.9025 318.675 63.8902 318.381 63.9119C318.021 63.9391 317.649 63.9551 317.282 63.9743C316.916 63.9951 316.55 64.0223 316.183 64.0334C315.888 64.044 315.705 63.9701 315.468 63.9336C315.395 63.923 315.294 63.9223 315.211 63.9262C314.844 63.9438 314.466 63.9582 314.112 63.9885C313.68 64.0259 313.434 63.9398 313.124 63.8911C313.056 63.8804 312.945 63.8878 312.862 63.8933C312.218 63.9277 311.58 63.9652 310.936 64.0012C310.704 63.9599 310.467 63.9202 310.236 63.8788C309.869 63.898 309.503 63.9188 309.136 63.938C308.859 63.9532 308.575 63.9604 308.315 63.9867C307.978 64.0217 307.805 63.9477 307.574 63.9128C307.495 63.9006 307.409 63.8741 307.337 63.8779C306.876 63.8995 306.415 63.9227 305.96 63.9539C305.528 63.9848 305.345 63.842 304.988 63.8466C304.621 63.8514 304.244 63.8755 303.889 63.9074C303.48 63.9446 303.186 63.8957 302.886 63.8293C302.824 63.8154 302.717 63.8083 302.639 63.8121C302.179 63.8353 301.724 63.8633 301.263 63.8865C301.185 63.8904 301.09 63.8831 301.011 63.8742C300.124 63.7871 300.124 63.7855 299.741 63.808C299.469 63.8232 299.192 63.8416 298.914 63.852C298.836 63.8559 298.74 63.8422 298.667 63.83C298.08 63.7372 298.08 63.7356 297.664 63.7584C297.297 63.7791 296.931 63.7999 296.565 63.8207C296.333 63.7794 296.096 63.7397 295.865 63.6983C295.409 63.7231 294.943 63.7431 294.494 63.7758C294.283 63.7904 294.143 63.7868 293.979 63.7481C293.775 63.7017 293.57 63.6473 293.238 63.6774C292.884 63.7093 292.505 63.7158 292.145 63.7429C291.712 63.7755 291.523 63.6311 291.173 63.6357C290.805 63.6405 290.428 63.6645 290.074 63.6964C289.664 63.7336 289.37 63.6848 289.07 63.6184C289.008 63.6045 288.901 63.5974 288.824 63.6012C287.813 63.6564 286.808 63.7115 285.798 63.7698C285.177 63.8056 285.177 63.8072 283.984 63.7292C283.9 63.7235 283.81 63.7178 283.727 63.7218C283.36 63.7393 282.982 63.7538 282.628 63.7841C282.196 63.8215 281.95 63.7369 281.64 63.6866C281.572 63.676 281.467 63.6833 281.378 63.6873C281.1 63.7009 280.828 63.7176 280.551 63.7329C280.184 63.7536 279.818 63.7744 279.452 63.7952C279.22 63.7554 278.983 63.7141 278.752 63.6744C278.296 63.6991 277.829 63.7144 277.381 63.7519C277.037 63.7805 276.871 63.7145 276.64 63.678C276.561 63.6658 276.475 63.6393 276.403 63.6415C275.575 63.6839 274.748 63.7278 273.927 63.7798C273.589 63.8019 273.427 63.7311 273.196 63.6962C273.118 63.6856 273.027 63.6655 272.955 63.6694C272.405 63.6965 271.855 63.7285 271.306 63.7605C270.995 63.7792 270.995 63.7791 270.308 63.6855C270.23 63.675 270.14 63.6645 270.062 63.6684C268.319 63.7635 266.581 63.8634 264.838 63.9585C264.66 63.968 264.497 63.9454 264.355 63.9033C264.207 63.8612 264.044 63.8401 263.866 63.8497C263.133 63.8896 262.395 63.9264 261.668 63.9743C261.368 63.9946 261.127 63.9757 260.917 63.9214C260.758 63.881 260.612 63.8662 260.418 63.8775C260.052 63.8999 259.685 63.9191 259.319 63.9398C258.953 63.9606 258.586 63.9814 258.22 64.0022C257.853 64.023 257.481 64.0358 257.121 64.0661C256.678 64.1036 256.453 64.006 256.143 63.959C255.594 63.9877 255.044 64.0165 254.5 64.0468C253.767 64.0867 253.034 64.1299 252.301 64.1683C252.235 64.172 252.149 64.1439 252.07 64.1301C251.839 64.092 251.668 64.0373 251.329 64.0578C249.687 64.1569 248.032 64.2432 246.384 64.3407C246.04 64.3613 245.884 64.2937 245.647 64.2588C245.569 64.2482 245.478 64.2265 245.406 64.2304C244.49 64.2783 243.574 64.331 242.658 64.3822C242.286 64.403 242.286 64.403 241.655 64.3089C241.582 64.2983 241.486 64.2847 241.408 64.2886C240.214 64.3533 239.027 64.4212 237.833 64.4876C237.655 64.4971 237.492 64.476 237.344 64.434C237.202 64.3919 237.033 64.3692 236.861 64.3787C235.762 64.4395 234.657 64.4986 233.564 64.5641C233.27 64.5827 233.023 64.5704 232.808 64.5144C232.654 64.474 232.502 64.4577 232.314 64.4689C230.665 64.5616 229.016 64.6511 227.368 64.7486C227.052 64.7674 226.827 64.7388 226.622 64.6876C226.458 64.6473 226.318 64.6405 226.118 64.6486C225.907 64.6584 225.78 64.6771 225.666 64.7262C225.521 64.7901 225.432 64.8695 225.075 64.8773C224.708 64.8853 224.336 64.9077 223.976 64.9381C223.633 64.9683 223.466 64.8975 223.246 64.856C223.082 64.8269 222.931 64.8234 222.726 64.8396C222.538 64.8541 222.423 64.8823 222.315 64.9346C222.078 65.0457 222.056 65.0459 221.75 64.9795C221.586 64.944 221.439 64.9164 221.261 64.9243C220.528 64.9627 219.795 65.0042 219.063 65.0474C218.641 65.0719 218.635 65.0751 218.312 64.9976C218.153 64.9589 218.001 64.9409 217.818 64.9521C215.803 65.0656 213.788 65.1759 211.773 65.2942C211.463 65.3129 211.249 65.281 211.022 65.2348C210.949 65.2194 210.875 65.1975 210.791 65.1918C210.707 65.1861 210.612 65.1934 210.524 65.1973C209.058 65.2788 207.587 65.3572 206.127 65.4467C205.794 65.4672 205.612 65.4174 205.381 65.3777C205.302 65.3639 205.233 65.342 205.149 65.3363C205.065 65.3322 204.966 65.3443 204.877 65.3499C203.412 65.4314 201.94 65.5097 200.481 65.5992C200.131 65.6198 199.976 65.5538 199.745 65.5204C199.666 65.5083 199.581 65.4849 199.509 65.4888C199.048 65.5103 198.593 65.5383 198.132 65.5631C197.033 65.6254 195.933 65.6846 194.835 65.7485C194.413 65.773 194.219 65.6318 193.862 65.6413C193.401 65.6532 192.946 65.6892 192.486 65.7156C192.119 65.7364 191.753 65.7556 191.387 65.778C191.026 65.7987 191.026 65.7987 190.117 65.7134C190.038 65.706 189.943 65.6956 189.865 65.6995C188.582 65.7698 187.294 65.8402 186.018 65.9153C185.724 65.9322 185.478 65.9263 185.262 65.8688C185.109 65.8284 184.951 65.8088 184.768 65.82C182.842 65.9279 180.921 66.0358 178.995 66.1421C178.923 66.1459 178.827 66.1307 178.753 66.1185C178.595 66.091 178.443 66.0586 178.29 66.0294C178.181 66.0672 178.039 66.1021 177.97 66.1444C177.873 66.2014 177.741 66.2186 177.53 66.23C177.319 66.2415 177.185 66.2394 177.015 66.1991C176.811 66.1495 176.602 66.1112 176.274 66.13C174.259 66.2483 172.244 66.357 170.229 66.4737C169.896 66.4926 169.735 66.4233 169.499 66.3885C169.42 66.3779 169.329 66.361 169.257 66.3649C168.43 66.4088 167.608 66.456 166.781 66.5015C164.489 66.6302 162.196 66.7541 159.909 66.8892C159.493 66.9136 159.206 66.8759 158.906 66.8095C158.843 66.7956 158.737 66.7884 158.659 66.7923C155.451 66.9705 152.242 67.1504 149.039 67.3302C148.867 67.3396 148.698 67.3154 148.556 67.2749C148.408 67.2329 148.245 67.2134 148.067 67.2229C146.602 67.3044 145.136 67.386 143.671 67.4691C143.304 67.4899 143.299 67.4915 142.914 67.4178C142.835 67.4024 142.75 67.3727 142.688 67.3764C142.561 67.3855 142.441 67.4266 142.356 67.4819C142.271 67.5404 142.133 67.5576 141.928 67.5706C141.717 67.5836 141.577 67.58 141.413 67.5429C141.203 67.4966 141.011 67.4517 140.678 67.4706C136.465 67.7119 132.251 67.9452 128.038 68.185C127.7 68.2039 127.539 68.1379 127.302 68.1031C127.223 68.0925 127.144 68.0771 127.06 68.0746C126.971 68.0722 126.877 68.0826 126.788 68.0882C119.916 68.4726 113.044 68.8586 106.172 69.243C105.761 69.2658 105.766 69.2657 105.326 69.4171C105.271 69.4352 105.201 69.4599 105.123 69.4637C103.019 69.5844 100.91 69.7019 98.8005 69.8194C97.8846 69.8705 96.9688 69.9233 96.0527 69.9728C95.7251 69.9901 95.7251 69.9901 94.9523 70.17C94.8865 70.185 94.8098 70.2049 94.7321 70.2087C91.0684 70.4149 87.4048 70.6211 83.7353 70.8241C83.4466 70.8394 83.2148 70.8703 83.0867 70.9484C82.996 71.0037 82.8758 71.0368 82.6926 71.048C80.1281 71.1919 77.5637 71.3373 74.9933 71.478C74.688 71.4951 74.5073 71.5415 74.3618 71.6102C74.3133 71.633 74.2706 71.6591 74.1993 71.6757C74.1336 71.6907 74.0337 71.6964 73.9505 71.7019C71.7522 71.825 69.5543 71.9513 67.3501 72.0696C67.0225 72.0868 66.8931 72.1473 66.7361 72.2112C66.6819 72.2325 66.645 72.2617 66.5736 72.2768C66.5022 72.2902 66.3963 72.2911 66.3075 72.2951C64.4756 72.3974 62.6439 72.5013 60.812 72.6035C60.4549 72.5986 60.3836 72.6922 60.215 72.7498C60.1552 72.7696 60.1126 72.7956 60.0411 72.8091C59.964 72.8226 59.8635 72.8218 59.7691 72.8258C58.3035 72.9073 56.8384 72.9937 55.3669 73.0704C55.0282 73.0878 54.9673 73.1701 54.7875 73.2278C54.7276 73.246 54.6683 73.2737 54.5963 73.2792C53.6806 73.3335 52.7647 73.3847 51.8486 73.4342C51.5433 73.4512 51.5432 73.4497 51.0144 73.613C50.9544 73.6312 50.8833 73.651 50.8057 73.6565C49.4347 73.7356 48.058 73.8115 46.6814 73.8891C46.5037 73.8986 46.384 73.9382 46.2988 73.9934C46.2137 74.0487 46.0881 74.0851 45.9105 74.0946C44.8114 74.157 43.7124 74.2209 42.613 74.2784C42.3075 74.2939 42.11 74.3357 41.9815 74.409C41.8852 74.4643 41.7647 74.4926 41.5704 74.5039C40.4712 74.5647 39.3724 74.6302 38.2672 74.6846C37.9451 74.7002 37.7819 74.7561 37.6531 74.8246C37.5512 74.88 37.4301 74.9003 37.2247 74.9117C35.2094 75.022 33.1887 75.1323 31.1797 75.2521C30.8412 75.2727 30.6644 75.218 30.4387 75.1798C30.1171 75.1264 29.8176 75.068 29.8085 74.9429C29.8071 74.9237 29.7107 74.9021 29.6427 74.8866C29.1382 74.7706 29.1382 74.7706 29.0509 74.643C29.0006 74.5648 28.9447 74.485 28.8998 74.4052C28.8179 74.2743 28.6371 74.2422 28.1264 74.2706C27.9432 74.2802 27.7602 74.293 27.5768 74.3009C27.3047 74.3145 27.0948 74.2633 27.0376 74.1676C27.0059 74.1149 26.9687 74.0623 26.937 74.0096C27.2146 73.9944 27.2088 73.9928 27.6849 73.7946C27.8851 73.7111 27.8852 73.7111 27.4837 73.6327C27.3311 73.6035 27.1838 73.571 27.0202 73.5436C26.9468 73.5313 26.8516 73.5241 26.7738 73.528C26.3129 73.5512 25.8578 73.5776 25.4027 73.6039C24.6699 73.6455 24.6699 73.6455 23.9116 73.4883C23.8494 73.476 23.7529 73.4527 23.7631 73.4398C23.8201 73.38 23.9686 73.353 24.1575 73.345C24.4353 73.333 24.7071 73.3146 24.9791 73.2995C25.1623 73.2899 25.3454 73.2787 25.5287 73.2691C25.6969 73.2067 25.8709 73.1458 26.0279 73.0819C26.2772 72.9835 26.2768 72.9803 25.921 72.916C25.695 72.873 25.4525 72.8349 25.2211 72.7952C24.9491 72.8103 24.6717 72.8271 24.3995 72.8407C24.0552 72.8581 23.9137 72.8288 23.817 72.7253C23.7324 72.6346 23.8214 72.5552 24.0874 72.5337C24.3589 72.5121 24.6143 72.4971 24.7476 72.4142C24.8756 72.3344 25.1073 72.302 25.3965 72.2931C25.5799 72.2867 25.7629 72.2739 25.9461 72.2627C26.1846 72.2479 26.3069 72.165 26.2501 72.074C26.2179 72.0149 26.1586 71.9657 25.9404 71.9547C24.9727 71.9068 24.9616 71.9085 24.4746 71.8036C24.4294 71.7943 24.3939 71.7657 24.4096 71.7512C24.4357 71.7269 24.4944 71.6911 24.5609 71.6857C25.1989 71.6449 25.8371 71.6074 26.476 71.5779C26.687 71.5681 26.8422 71.5555 26.9103 71.4955C27.0046 71.4129 26.9546 71.3379 26.7556 71.2835C26.693 71.2664 26.591 71.2448 26.5243 71.2469C25.7911 71.2821 25.0641 71.3252 24.3309 71.3603C24.2643 71.3641 24.1399 71.3379 24.1105 71.3173C24.052 71.2793 24.1318 71.2273 24.3255 71.208C24.5799 71.1817 24.8416 71.1779 25.0085 71.0962C25.2397 70.9803 25.5273 70.8736 25.7868 70.7623C25.8299 70.7427 25.8997 70.7051 25.8828 70.7021C25.741 70.668 25.5774 70.6421 25.4302 70.6097C25.181 70.5556 25.1752 70.4771 25.2255 70.4012C25.2656 70.3399 25.4309 70.3144 25.637 70.3127C25.7262 70.3119 25.8376 70.311 25.9089 70.2959C26.0958 70.259 26.1538 70.2136 26.0566 70.1807C25.9995 70.162 25.8973 70.1356 25.8307 70.1394C24.6426 70.2025 23.4486 70.264 22.2669 70.3399C21.9174 70.3621 21.7515 70.3025 21.5367 70.2611C21.3727 70.2288 21.2213 70.2172 21.0225 70.243C20.8348 70.267 20.6501 70.2558 20.5293 70.2039C20.4314 70.1614 20.5958 70.1231 21.044 70.0775C21.1269 70.0688 21.2212 70.0632 21.2814 70.0466C21.9149 69.8679 21.9148 69.8663 22.3588 69.8401C22.7917 69.8155 22.7917 69.8139 23.0133 69.719C23.116 69.6748 23.2297 69.6305 23.3267 69.5847C23.3645 69.5667 23.429 69.5341 23.4061 69.5247C23.2799 69.476 23.1119 69.4662 22.9178 69.4791C22.4853 69.5101 21.9713 69.492 21.754 69.6463C21.669 69.7048 21.5309 69.722 21.3311 69.7333C19.3214 69.8436 17.3122 69.9602 15.2967 70.0673C14.9691 70.0845 14.8231 70.1451 14.6998 70.212C14.5923 70.2674 14.4709 70.2845 14.26 70.2959C14.049 70.3074 13.8822 70.3136 13.7558 70.2617C13.681 70.2303 13.7391 70.1849 13.9029 70.1385C14.1378 70.0723 14.0873 69.9926 14.0039 69.9179C13.9446 69.8686 13.7693 69.8348 13.5857 69.8396C13.3133 69.8483 13.0528 69.8682 12.8198 69.806C12.6834 69.7703 12.5144 69.746 12.3617 69.7153C12.0672 69.652 11.7727 69.5871 11.3692 69.6339C11.0895 69.6202 10.8904 69.5642 10.6643 69.5212C10.2857 69.4506 10.2515 69.4397 10.5131 69.3588C10.8075 69.2681 10.5651 69.1546 10.726 69.0666C10.8974 68.972 11.1367 68.8882 11.3476 68.7997C11.4017 68.7768 11.4503 68.7555 11.5044 68.7326C11.3739 68.7016 11.2541 68.6626 11.102 68.6414C10.905 68.6142 10.8022 68.5798 10.8061 68.4803C10.766 68.4662 10.7853 68.5029 10.8306 68.5121C10.8814 68.5213 11.0035 68.5123 11.0639 68.5005C11.2177 68.4687 11.2926 68.428 11.2512 68.3946C11.2276 68.3772 11.1203 68.3556 11.0534 68.3562C10.9309 68.3573 10.8276 68.3934 10.8005 68.4803C10.1814 68.5514 9.53749 68.589 8.8932 68.6201C8.8266 68.6239 8.74076 68.5926 8.66161 68.5772C8.40142 68.5249 8.4015 68.5265 7.64835 68.5168C7.57025 68.5159 7.46284 68.4944 7.42222 68.4723C7.25357 68.3758 7.25137 68.2683 7.16581 68.1648C7.30574 68.0962 7.44567 68.0292 7.59129 67.9622C7.8824 67.8265 8.2639 67.7061 8.48724 67.5582C8.43139 67.4801 8.35883 67.4021 8.59925 67.3358C9.2897 67.2497 9.28418 67.2498 9.46797 67.1712C9.99242 66.9485 10.5112 66.7242 11.0581 66.5046C11.2044 66.4472 11.2023 66.4167 10.9331 66.3949C10.8491 66.3892 10.7598 66.3884 10.6709 66.3924C10.3932 66.406 10.1168 66.4372 9.84335 66.4331C9.57006 66.4306 9.3644 66.3618 9.13845 66.3204C8.9068 66.2775 8.67505 66.2329 8.44329 66.1884C8.18184 66.1954 7.92336 66.2425 7.65631 66.1726C7.4517 66.1182 7.19814 66.0802 6.96638 66.0357C7.1302 65.9124 7.44656 65.8166 7.68941 65.707C7.91067 65.6073 7.91624 65.6088 8.52348 65.5282C8.81057 65.4905 8.89767 65.3084 8.64873 65.2576C8.34884 65.196 8.03266 65.1393 7.72744 65.0809C7.46599 65.088 7.20182 65.1336 6.94591 65.0636C6.74699 65.0107 6.52146 64.9757 6.1999 64.9993C5.65658 65.0393 5.10086 65.0617 4.5515 65.0952C4.36281 65.1065 4.15619 65.1018 4.06867 65.048C4.01017 65.01 4.16787 64.9557 4.35087 64.9429C4.62822 64.9245 4.87745 64.9031 5.01088 64.8218C5.13874 64.7404 5.38205 64.7143 5.67088 64.7006C5.74864 64.6967 5.83642 64.6767 5.87402 64.6571C6.06778 64.5624 6.28478 64.4803 6.71392 64.4799C6.88984 64.4463 6.98156 64.4054 6.92306 64.3674C6.88812 64.3468 6.76922 64.3206 6.70261 64.3244C6.24145 64.3443 5.7803 64.3643 5.33121 64.397C5.12048 64.4117 4.95909 64.4163 4.8219 64.3693C4.72488 64.338 4.77186 64.2943 4.94672 64.2463C5.09977 64.2049 5.141 64.158 5.1259 64.1036C5.08884 63.9771 4.91902 63.9417 4.38486 63.9542C4.00098 63.9639 3.90476 63.9439 3.81328 63.8356C3.78914 63.8101 3.73097 63.7753 3.76868 63.7573C4.00027 63.6463 4.14645 63.5102 4.59391 63.4551C4.77076 63.4343 4.96007 63.4327 5.06844 63.39C5.17682 63.3474 5.27363 63.2984 5.38769 63.2573C5.52902 63.208 5.62593 63.1623 5.55687 63.1324C5.4415 63.0788 5.26296 63.0755 5.05826 63.0965C4.88118 63.1141 4.69191 63.1173 4.5088 63.1285C4.18143 63.1489 3.91109 63.1095 3.86697 63.0393C3.74761 62.8542 3.62277 62.6707 3.51455 62.4856C3.50178 62.4632 3.52745 62.4341 3.57062 62.4145C3.72169 62.3458 3.8842 62.2802 4.04095 62.2131C4.22486 62.1361 4.52675 62.148 4.78193 62.1314C5.14248 62.1074 5.14247 62.109 5.61589 61.9509C5.80085 61.8884 6.13126 61.9096 6.32225 61.8535C6.38224 61.8353 6.47484 61.8056 6.45696 61.7897C6.43317 61.7691 6.32065 61.754 6.2364 61.7451C6.15772 61.7361 6.0627 61.7321 5.97949 61.7377C4.96909 61.7928 3.96452 61.8511 2.954 61.9047C2.78191 61.9142 2.58995 61.8805 2.52507 61.8313C2.46041 61.7854 2.47299 61.7291 2.458 61.6763C2.61476 61.6091 2.79407 61.5466 2.9282 61.4749C3.03007 61.4195 3.15089 61.3944 3.36232 61.3894C3.64048 61.3822 3.91205 61.3606 4.22294 61.3435C4.78522 61.1044 5.33551 60.8543 5.94235 60.6148C6.18614 60.5181 6.11797 60.4224 6.16075 60.3209C6.20412 60.2275 6.57836 60.2388 6.82704 60.2094C7.02593 60.1852 7.08896 60.1333 7.00841 60.0987C6.96233 60.0782 6.86037 60.055 6.78239 60.0557C6.59857 60.0573 6.41581 60.0733 6.23257 60.0829C6.04934 60.0924 5.83733 60.0894 5.68892 60.118C5.54596 60.1449 5.45517 60.2002 5.36386 60.2475C5.26175 60.2997 5.12388 60.3186 4.91244 60.3236C4.63974 60.3291 4.36786 60.3459 4.09573 60.3594C3.7904 60.2995 3.47397 60.2412 3.17954 60.1779C3.1229 60.1656 3.10902 60.1288 3.11284 60.1047C3.11943 60.0421 3.0331 60.0043 2.84707 59.9754C2.68924 59.9511 2.55843 59.9153 2.41127 59.8845C2.51953 59.8402 2.63909 59.7975 2.72483 59.7502C2.91268 59.6507 3.15267 59.5781 3.57624 59.5777C3.7388 59.5137 3.86685 59.4356 4.08094 59.3904C4.28401 59.347 4.63798 59.3857 4.78707 59.2897C4.86167 59.2426 4.97486 59.1887 5.12386 59.1681C5.36116 59.1356 5.67426 59.149 5.80699 59.058C5.88681 59.006 6.00592 58.9584 6.16653 58.9442C6.3493 58.9282 6.5384 58.9234 6.66987 58.8918C6.74112 58.8752 6.81725 58.8488 6.81562 58.8264C6.81457 58.8119 6.70162 58.7904 6.62293 58.7815C6.5497 58.7709 6.45432 58.7637 6.371 58.7676C6.09319 58.7796 5.82153 58.7996 5.54372 58.8116C5.46597 58.8154 5.37606 58.805 5.29181 58.7961C5.04485 58.7725 5.0592 58.7403 5.24996 58.6809C5.44083 58.6231 5.57492 58.5498 5.73168 58.4826C5.90911 58.4699 6.13223 58.4728 6.25256 58.4413C6.45505 58.3898 6.59459 58.3164 6.75715 58.2525C6.94027 58.2413 7.12941 58.2364 7.30081 58.2173C7.37275 58.2103 7.40364 58.1747 7.46339 58.1534C7.57188 58.1123 7.66246 58.0538 7.81146 58.0333C8.05445 58.0023 8.35605 58.011 8.49446 57.9215C8.57429 57.8695 8.69839 57.8139 8.85412 57.8094C9.28813 57.7992 9.46554 57.7095 9.68229 57.6242C9.84485 57.5602 10.2037 57.5892 10.383 57.5251C10.5026 57.484 10.5882 57.4335 10.7079 57.394C10.7569 57.3775 10.8621 57.3686 10.9453 57.3631C11.4003 57.3351 11.8613 57.3136 12.3162 57.284C12.3883 57.2786 12.4534 57.254 12.5077 57.2342C12.6217 57.1915 12.6898 57.1332 12.8327 57.1047C12.9755 57.0762 13.1816 57.0744 13.3592 57.0649C13.9312 57.036 13.9763 57.042 14.2282 56.9034C14.4318 56.791 14.9556 56.8651 15.1194 56.7418C15.2146 56.6704 15.3941 56.6111 15.7222 56.6003C16.1837 56.5851 16.6382 56.5507 17.099 56.5259C17.5098 56.5032 17.5043 56.5032 17.939 56.3503C18.1347 56.2812 18.4307 56.2883 18.6915 56.2733C18.9691 56.2581 19.2239 56.2366 19.3518 56.1553C19.4797 56.0756 19.7229 56.0478 20.0062 56.0342C20.2672 56.0207 20.5631 56.0262 20.7645 55.9603C21.2546 55.8021 21.2489 55.8006 21.5987 55.7815C22.1483 55.7512 22.6979 55.7208 23.2473 55.6888C23.6137 55.6681 23.9978 55.6616 24.3406 55.6233C24.5894 55.5955 24.6942 55.5048 24.8512 55.4409C25.3062 55.4129 25.7612 55.385 26.2163 55.3586C26.8546 55.3211 27.4986 55.2867 28.1425 55.2507C28.4166 55.1874 28.4459 55.0524 28.9133 55.042C29.1916 55.0364 29.463 55.0132 29.7406 54.998C30.2013 54.9716 30.656 54.9388 31.1175 54.9237C31.4678 54.9126 31.5227 54.8255 31.7025 54.7694C31.7624 54.7497 31.8162 54.7219 31.8883 54.7165C32.6091 54.6654 33.3548 54.6494 34.0574 54.5777C34.1294 54.5706 34.1938 54.5364 34.2087 54.5122C34.2189 54.4993 34.1225 54.476 34.0604 54.4653C33.9871 54.4531 33.8915 54.4411 33.8137 54.445C31.521 54.572 29.2285 54.7007 26.9358 54.8278C26.6139 54.8466 26.6138 54.845 25.8412 55.0281C25.7754 55.0431 25.6985 55.0598 25.6153 55.0653C25.2491 55.0877 24.8767 55.1021 24.5164 55.1293C24.2226 55.151 23.9762 55.1339 23.7603 55.0779C23.6069 55.0375 23.4499 55.026 23.2607 55.0309C23.0494 55.0375 22.9115 55.0563 22.7921 55.1007C22.6349 55.1614 22.5569 55.239 22.2183 55.258C20.6581 55.3403 19.0983 55.4306 17.544 55.5177C17.3252 55.4971 17.2169 55.4644 17.2697 55.4238C17.3014 55.3995 17.3659 55.3668 17.4325 55.363C18.0706 55.3239 18.7147 55.2895 19.3529 55.252C19.4417 55.2464 19.5644 55.2486 19.6134 55.2321C19.8533 55.1578 19.934 55.04 20.3957 55.0281C20.6627 55.021 20.9339 54.9946 21.1885 54.97C21.2604 54.9629 21.3248 54.9287 21.3398 54.9045C21.3444 54.8916 21.2536 54.8683 21.1859 54.8576C20.9374 54.8132 20.6575 54.8718 20.4101 54.8418C20.3257 54.8313 20.2075 54.8163 20.1894 54.7972C20.1769 54.7796 20.2696 54.75 20.3351 54.7317C20.3952 54.7152 20.4777 54.7001 20.5609 54.6945C21.2935 54.6514 22.0261 54.6066 22.7592 54.5715C23.0592 54.5577 23.2679 54.5158 23.3962 54.4409C23.4925 54.3855 23.613 54.3556 23.8018 54.3459C25.0842 54.2756 26.3661 54.1989 27.6544 54.1333C27.9766 54.1178 28.1399 54.0634 28.2686 53.9933C28.3704 53.9379 28.4916 53.9176 28.697 53.9062C30.5347 53.8071 32.3605 53.6984 34.1984 53.6025C34.5371 53.5852 34.6324 53.5154 34.8008 53.4546C34.8606 53.4332 34.8976 53.4072 34.9746 53.3937C35.0517 53.3802 35.1521 53.381 35.2465 53.377C36.712 53.2954 38.1773 53.2091 39.6488 53.1324C39.9931 53.115 40.054 53.0343 40.2282 52.9766C40.2881 52.9584 40.3418 52.9291 40.4139 52.9237C41.5128 52.8597 42.6119 52.799 43.711 52.7367C44.4437 52.6951 45.1764 52.6536 45.9092 52.6136C46.2701 52.5945 46.27 52.5929 46.7491 52.4364C46.8035 52.4182 46.8801 52.3967 46.9521 52.3913C49.0614 52.2706 51.1653 52.1548 53.2747 52.0357C53.4523 52.0261 53.5777 51.9881 53.6629 51.9329C53.748 51.8776 53.8736 51.8396 54.0457 51.8301C55.6942 51.7358 57.3428 51.6431 58.9973 51.5536C59.2971 51.5382 59.5059 51.4979 59.6344 51.4246C59.7307 51.3692 59.8511 51.3393 60.0399 51.3297C61.6887 51.2386 63.3372 51.1426 64.9918 51.0547C65.3082 51.0376 65.4602 50.9817 65.6115 50.9163C65.6655 50.8933 65.7074 50.8561 65.774 50.8523C66.5952 50.8003 67.4106 50.7469 68.2383 50.7093C68.5828 50.6935 68.6949 50.6252 68.8295 50.5598C68.9371 50.5076 69.064 50.4888 69.2752 50.4806C69.7365 50.4622 70.1913 50.4311 70.6405 50.4C70.707 50.3946 70.788 50.3586 70.7919 50.3361C70.8 50.2943 70.6697 50.2666 70.457 50.2539C68.2588 50.377 66.055 50.5001 63.8568 50.6232C63.496 50.6439 63.496 50.6439 63.0169 50.8004C62.9625 50.8185 62.8859 50.8401 62.8083 50.8455C60.699 50.9646 58.5951 51.0821 56.4858 51.2012C56.3081 51.2107 56.1827 51.2487 56.0976 51.304C56.0124 51.3593 55.8869 51.3972 55.7148 51.4067C53.6998 51.5202 51.6849 51.6353 49.664 51.744C49.3642 51.7594 49.1552 51.7981 49.0269 51.873C48.9306 51.9283 48.8102 51.9583 48.6214 51.9679C46.695 52.0742 44.7745 52.1853 42.8424 52.2884C42.648 52.2981 42.4999 52.2528 42.5079 52.2094C42.5118 52.1869 42.5925 52.1494 42.6592 52.1456C43.6635 52.0841 44.6623 52.021 45.6732 51.9722C46.012 51.9565 46.1071 51.8851 46.2754 51.8243C46.3296 51.803 46.3722 51.7753 46.4438 51.7635C46.5209 51.75 46.6213 51.7507 46.7157 51.7467C49.0971 51.6125 51.4784 51.4766 53.8658 51.3487C54.21 51.3297 54.271 51.2506 54.4451 51.1929C54.505 51.1732 54.5587 51.1438 54.6308 51.14C55.3633 51.0952 56.0961 51.0553 56.8289 51.0153C58.1112 50.9434 59.3935 50.8715 60.6814 50.7995C61.0533 50.7787 61.0533 50.7787 61.5214 50.6239C61.5758 50.6057 61.6522 50.5826 61.7244 50.5788C65.116 50.3878 68.5077 50.1968 71.8995 50.0074C72.0771 49.9978 72.2025 49.9598 72.2877 49.9046C72.373 49.8509 72.4983 49.8113 72.6702 49.8002C77.2554 49.5428 81.835 49.2855 86.4204 49.0313C86.7201 49.0143 86.9293 48.9789 87.0575 48.9024C87.1482 48.847 87.2743 48.8171 87.4629 48.8058C92.5033 48.5237 97.5437 48.2416 102.59 47.9578C105.981 47.7684 109.373 47.5758 112.765 47.3896C113.076 47.3725 113.239 47.3213 113.39 47.2543C113.439 47.2314 113.486 47.1941 113.553 47.1903C114.28 47.144 115.007 47.1009 115.734 47.0578C115.965 47.0991 116.197 47.1389 116.428 47.1802C116.596 47.1178 116.759 47.0538 116.927 46.9914C118.027 46.9355 119.108 46.8541 120.22 46.8221C120.293 46.8199 120.373 46.8497 120.452 46.865C120.977 46.9616 121.272 46.9511 121.591 46.8136C121.704 46.7645 121.801 46.7203 121.979 46.7108C122.528 46.6772 123.084 46.6532 123.627 46.6149C123.921 46.5947 124.168 46.6087 124.383 46.6646C124.537 46.705 124.694 46.7213 124.877 46.7101C125.888 46.6534 126.892 46.5982 127.902 46.5383C127.975 46.5345 128.039 46.5066 128.094 46.4869C128.208 46.4442 128.305 46.3985 128.413 46.3542C128.565 46.3802 128.734 46.3996 128.859 46.4338C129.018 46.4742 129.163 46.473 129.374 46.4599C133.404 46.2314 137.439 46.0076 141.469 45.7774C141.813 45.7584 141.969 45.8245 142.205 45.8578C142.284 45.8699 142.363 45.8853 142.447 45.8878C142.536 45.8902 142.63 45.8798 142.719 45.8742C145.744 45.704 148.77 45.5353 151.795 45.3651C152.195 45.3424 152.195 45.3424 152.798 45.4368C152.871 45.449 152.967 45.4626 153.045 45.4571C154.422 45.3828 155.798 45.3036 157.169 45.2278C157.347 45.2182 157.499 45.2426 157.664 45.2781C157.986 45.3475 158.008 45.3473 158.235 45.2395C158.343 45.1889 158.457 45.1574 158.64 45.1414C158.839 45.1236 159.001 45.1271 159.159 45.1546C159.385 45.1928 159.552 45.2587 159.89 45.2382C161.355 45.1503 162.827 45.0751 164.286 44.9857C164.619 44.9652 164.801 45.0182 165.027 45.0563C165.106 45.0701 165.18 45.0919 165.264 45.096C165.348 45.1001 165.447 45.088 165.536 45.0825C167.368 44.9802 169.205 44.8795 171.031 44.7708C171.375 44.7502 171.531 44.8179 171.767 44.8512C171.846 44.8633 171.937 44.885 172.009 44.8812C173.108 44.8221 174.213 44.7597 175.312 44.6973C175.706 44.6747 175.706 44.6763 176.315 44.769C176.388 44.7812 176.484 44.7932 176.562 44.7894C177.844 44.719 179.132 44.6471 180.414 44.5751C180.808 44.5525 180.808 44.5525 181.956 44.6262C182.04 44.6319 182.13 44.6407 182.214 44.6368C183.679 44.5553 185.15 44.4753 186.615 44.389C186.91 44.3721 187.156 44.3828 187.372 44.4387C187.525 44.4791 187.682 44.4954 187.865 44.4842C189.514 44.3915 191.168 44.302 192.811 44.2045C193.128 44.1858 193.336 44.2193 193.562 44.2639C193.636 44.2793 193.71 44.3011 193.794 44.3068C193.878 44.3125 193.972 44.3053 194.061 44.2997C195.71 44.207 197.364 44.1191 199.007 44.02C199.34 43.9996 199.522 44.0525 199.748 44.0907C199.827 44.1045 199.912 44.1326 199.979 44.1305C200.623 44.0977 201.268 44.0681 201.905 44.0226C202.249 43.9972 202.405 44.0696 202.641 44.1029C202.72 44.1135 202.811 44.1368 202.883 44.133C204.26 44.0586 205.637 43.9811 207.008 43.902C207.202 43.8907 207.348 43.9039 207.507 43.9442C207.717 43.9986 207.958 44.019 208.258 43.9988C208.896 43.9564 209.54 43.9253 210.184 43.8893C210.561 43.8684 210.561 43.8684 211.726 43.9419C211.81 43.9476 211.9 43.9565 211.983 43.9525C213.082 43.8918 214.187 43.8326 215.28 43.7671C215.574 43.7486 215.821 43.7609 216.036 43.8168C216.19 43.8572 216.341 43.8736 216.53 43.8624C217.54 43.8056 218.545 43.7489 219.556 43.6921C219.922 43.6713 220.287 43.6377 220.655 43.6346C220.922 43.6339 221.123 43.7092 221.365 43.7457C221.433 43.7563 221.543 43.7425 221.632 43.7386C222.915 43.6667 224.203 43.5995 225.479 43.5196C225.812 43.4991 225.994 43.5521 226.22 43.5903C226.299 43.604 226.384 43.6322 226.451 43.63C226.912 43.6084 227.367 43.5805 227.828 43.5557C228.378 43.5253 228.933 43.5013 229.477 43.4614C229.92 43.4287 230.097 43.5668 230.454 43.5686C230.727 43.571 231.004 43.5414 231.276 43.5262C231.826 43.4959 232.375 43.4623 232.925 43.4351C233.119 43.4255 233.268 43.3985 233.325 43.3403C233.335 43.3289 233.239 43.3057 233.176 43.2918C232.424 43.1346 232.424 43.1346 231.68 43.1762C231.219 43.2026 230.764 43.229 230.303 43.2522C230.225 43.256 230.135 43.244 230.057 43.235C229.832 43.2097 229.852 43.1774 230.037 43.118C230.222 43.0587 230.362 42.9869 230.518 42.9198C230.75 42.9595 230.976 42.9993 231.207 43.0391C231.39 43.0295 231.574 43.0183 231.757 43.0087C232.673 42.9592 233.589 42.908 234.505 42.8617C234.572 42.8579 234.658 42.8893 234.737 42.9046C234.963 42.9492 235.166 42.9876 235.488 42.9672C236.309 42.9137 237.137 42.8729 237.958 42.8258C238.319 42.805 238.319 42.805 238.961 42.899C239.034 42.9096 239.13 42.9217 239.208 42.9178C240.035 42.8738 240.856 42.8267 241.684 42.7811C241.861 42.7716 242.036 42.7909 242.167 42.8364C242.219 42.8552 242.21 42.8873 242.441 43.1485C243.113 43.3561 243.563 43.3299 244.018 43.3067C244.213 43.297 244.385 43.2875 244.51 43.2544C244.576 43.2362 244.658 43.2098 244.656 43.1889C244.655 43.1729 244.531 43.1483 244.453 43.1457C243.899 43.1184 243.38 43.1902 242.841 43.2093C242.59 43.2178 242.369 43.1635 242.318 43.0725C242.305 43.047 242.286 43.0199 242.268 42.9943C242.249 42.9688 242.236 42.9417 242.217 42.9161C242 42.91 241.874 42.9399 241.783 42.9953C241.708 43.0408 241.6 43.0931 241.452 43.1184C241.303 43.1454 241.097 43.1423 240.914 43.1519C240.736 43.1615 240.543 43.184 240.375 43.1742C240.207 43.1628 240.069 43.1174 239.911 43.0899C239.838 43.0761 239.747 43.056 239.675 43.0598C239.037 43.0925 238.404 43.1252 237.771 43.1659C237.438 43.188 237.266 43.1221 237.052 43.0822C236.882 43.0516 236.716 43.061 236.693 43.135C236.633 43.312 236.895 43.3836 237.461 43.345C237.927 43.3122 238.35 43.3038 238.725 43.4097C238.776 43.4237 238.894 43.4291 238.966 43.4253C239.421 43.4021 239.871 43.3742 240.326 43.3511C240.409 43.3472 240.499 43.3528 240.578 43.3585C241.72 43.4354 241.72 43.437 242.103 43.4145C242.286 43.4033 242.464 43.3938 242.43 43.1502C242.761 42.8858 243.317 42.8634 243.855 42.8203C244.204 42.7933 244.359 42.8626 244.59 42.8975C244.669 42.9097 244.755 42.9346 244.827 42.9308C246.021 42.8676 247.209 42.8013 248.396 42.7318C248.596 42.7205 248.742 42.7289 248.901 42.7692C249.105 42.8204 249.33 42.8522 249.646 42.8302C250.279 42.7863 250.923 42.7568 251.567 42.7192C251.894 42.7003 251.894 42.7003 252.564 42.7941C252.638 42.8047 252.733 42.8167 252.811 42.8128C253.455 42.78 254.093 42.7409 254.732 42.7066C254.91 42.697 255.073 42.7181 255.215 42.7602C255.357 42.8023 255.526 42.8233 255.698 42.8138C256.342 42.7795 256.981 42.7419 257.619 42.7076C257.697 42.7037 257.792 42.7141 257.866 42.7247C258.552 42.8184 258.552 42.8183 258.863 42.7996C259.318 42.7717 259.785 42.7565 260.234 42.7206C260.672 42.6847 260.907 42.7758 261.211 42.8245C262.033 42.7806 262.861 42.7431 263.676 42.6912C264.009 42.6691 264.191 42.7205 264.417 42.7602C264.496 42.774 264.576 42.8038 264.649 42.8016C264.927 42.7928 265.199 42.7728 265.471 42.7577C265.743 42.7425 266.02 42.7273 266.292 42.7121C266.607 42.756 266.821 42.8633 267.264 42.8226C267.53 42.7978 267.814 42.7906 268.086 42.7754C268.358 42.7603 268.635 42.7451 268.907 42.7299C269.091 42.7203 269.28 42.7139 269.457 42.6979C269.784 42.6711 269.951 42.7483 270.188 42.7816C270.266 42.7921 270.357 42.8106 270.429 42.8068C270.979 42.7796 271.534 42.7556 272.072 42.7141C272.488 42.6817 272.775 42.7274 273.076 42.7922C273.138 42.8061 273.244 42.8132 273.322 42.8093C273.966 42.7766 274.604 42.7374 275.243 42.7031C275.415 42.6936 275.584 42.7178 275.726 42.7583C275.874 42.8004 276.037 42.8199 276.215 42.8103C276.853 42.776 277.497 42.7384 278.136 42.704C278.213 42.7002 278.309 42.7122 278.382 42.7244C279.013 42.8185 279.014 42.8201 279.38 42.7977C279.469 42.7921 279.563 42.7881 279.652 42.7825C280.107 42.7562 280.58 42.7441 281.023 42.7019C281.532 42.6542 281.909 42.7055 282.278 42.7938C282.733 42.7707 283.2 42.7555 283.643 42.7196C283.976 42.6927 284.159 42.7521 284.384 42.7903C284.463 42.804 284.549 42.8322 284.616 42.8284C285.26 42.7956 285.904 42.7661 286.536 42.7206C286.88 42.6952 287.036 42.766 287.272 42.8009C287.351 42.8131 287.436 42.8348 287.509 42.831C287.875 42.815 288.242 42.7926 288.608 42.7718C289.035 42.7473 289.035 42.7489 289.611 42.8419C289.881 42.8861 290.146 42.847 290.407 42.8335C290.685 42.8183 290.946 42.8064 291.173 42.8703C291.316 42.9108 291.485 42.935 291.657 42.9271C292.023 42.9095 292.396 42.8919 292.756 42.8648C293.044 42.8431 293.296 42.8538 293.512 42.9113C293.665 42.9517 293.823 42.9712 294.006 42.96C294.827 42.9145 295.654 42.8673 296.476 42.8234C296.548 42.8196 296.65 42.8331 296.717 42.847C296.876 42.8745 297.028 42.9053 297.181 42.9361C297.542 42.9186 297.915 42.909 298.27 42.8835C298.647 42.8578 298.992 42.8468 299.293 42.9325C299.356 42.9512 299.447 42.9777 299.519 42.9755C299.797 42.9667 300.069 42.9483 300.341 42.9332C300.613 42.918 300.891 42.9028 301.163 42.8877C301.483 42.925 301.692 43.0388 302.135 42.9981C302.401 42.9733 302.685 42.9661 302.957 42.951C303.229 42.9358 303.506 42.919 303.778 42.9054C303.867 42.9015 303.967 42.8926 304.045 42.8983C304.129 42.904 304.203 42.9259 304.277 42.9413C304.503 42.9859 304.712 43.0306 305.028 43.0007C305.294 42.9759 305.577 42.9687 305.849 42.9519C306.221 42.9311 306.221 42.9311 306.847 43.0268C307.101 43.0664 307.381 43.0094 307.623 43.0427C307.786 43.0654 307.928 43.1042 308.086 43.1302C308.154 43.1408 308.26 43.1447 308.338 43.1408C308.704 43.1233 309.076 43.1057 309.437 43.0785C309.731 43.0568 309.977 43.0739 310.187 43.1299C310.341 43.1703 310.492 43.1866 310.681 43.1754C311.597 43.1227 312.513 43.0763 313.423 43.0188C313.734 42.9985 313.986 43.0236 314.163 43.0799C314.466 43.1768 314.875 43.0561 315.187 43.1337C315.38 43.1818 315.574 43.2379 315.917 43.2109C316.549 43.1638 317.194 43.1358 317.832 43.1015C318.064 43.1428 318.295 43.1842 318.533 43.2255C318.899 43.2047 319.265 43.1839 319.632 43.1647C319.904 43.1496 320.181 43.1328 320.453 43.1192C320.542 43.1152 320.636 43.108 320.721 43.1153C320.805 43.1226 320.873 43.1429 320.952 43.1583C321.342 43.2336 321.342 43.2352 321.975 43.1977C322.247 43.1809 322.508 43.1691 322.741 43.2312C322.957 43.2888 323.209 43.2978 323.497 43.2777C324.04 43.241 324.59 43.2122 325.146 43.185C325.318 43.1755 325.481 43.2014 325.629 43.2419C325.851 43.3058 326.118 43.2971 326.39 43.2771C326.75 43.2516 327.105 43.2261 327.418 43.3132C327.48 43.332 327.577 43.3584 327.644 43.3562C328.1 43.3395 328.561 43.3259 329.005 43.2917C329.448 43.2574 329.673 43.355 329.983 43.4004C330.438 43.3757 330.899 43.3509 331.354 43.3262C331.443 43.3206 331.547 43.3053 331.626 43.3126C331.957 43.3435 332.155 43.4621 332.604 43.4214C332.864 43.3983 333.148 43.3895 333.42 43.3823C333.492 43.3801 333.589 43.4065 333.641 43.427C333.67 43.4379 333.644 43.4686 333.612 43.485C333.515 43.5307 333.395 43.5735 333.309 43.6207C333.299 43.6272 333.407 43.6552 333.469 43.6675C333.621 43.6951 333.794 43.6888 333.993 43.6743C334.165 43.6616 334.345 43.6825 334.471 43.7295C334.523 43.7484 334.508 43.7806 334.41 43.8873C334.416 43.9659 334.53 43.9296 334.565 43.8779C334.621 43.8037 334.503 43.7806 334.283 43.8226C334.129 43.8528 334.054 43.8952 334.095 43.9285C334.119 43.9459 334.226 43.9675 334.41 43.8873C334.893 43.7869 335.26 43.7661 335.626 43.7454C335.72 43.7397 335.83 43.7227 335.898 43.7318C336.14 43.7682 336.367 43.8128 336.604 43.8541C336.87 43.8422 337.119 43.816 337.386 43.8763C337.76 43.9614 337.776 43.9532 338.131 43.9325C338.314 43.9213 338.497 43.9118 338.681 43.9022C338.864 43.8926 339.01 43.9154 339.174 43.9509C339.509 44.0235 339.536 44.0232 339.746 43.9187C339.87 43.8551 339.957 43.8335 340.121 43.861C340.663 43.9542 340.669 43.9606 341.124 43.9278C341.501 43.9005 341.857 43.8911 342.142 43.9801C342.336 44.0426 342.396 44.0277 342.542 43.959C342.93 43.7776 343.114 43.7793 343.875 43.9011C344.23 43.9591 344.588 43.8902 344.944 43.8792C345.244 43.8702 345.458 43.9069 345.488 44.0077C345.509 44.0701 345.563 44.1146 345.765 44.1337C345.843 44.141 345.939 44.1515 346.017 44.1476C346.478 44.1244 346.933 44.098 347.393 44.0716C347.626 44.0584 347.749 43.982 347.697 43.8829C347.64 43.7775 347.726 43.7383 348.058 43.705C348.257 43.6856 348.419 43.6874 348.583 43.7149C348.763 43.7455 348.715 43.7748 348.563 43.8338C348.2 43.9781 348.251 44.0643 348.737 44.158C348.907 44.1903 349.043 44.2196 349.085 44.269C349.109 44.2945 349.09 44.3283 349.141 44.3471C349.422 44.4522 349.806 44.518 350.233 44.5657C350.636 44.5189 350.92 44.5887 351.236 44.6437C351.485 44.6865 351.771 44.6456 352.032 44.6273C352.326 44.6071 352.572 44.6179 352.788 44.6754C352.941 44.7158 353.099 44.7337 353.282 44.7241C353.648 44.7033 354.021 44.6889 354.381 44.6602C354.691 44.6351 354.928 44.6651 355.126 44.718C355.377 44.7849 355.646 44.736 355.903 44.7435C356.249 44.7517 356.432 44.893 356.881 44.8506C357.146 44.8259 357.424 44.8155 357.702 44.8067C357.775 44.8045 357.866 44.831 357.928 44.8497C358.23 44.9354 358.575 44.9276 358.952 44.8987C359.213 44.8788 359.468 44.8606 359.728 44.9194C360.159 45.0184 360.634 45.1042 361.086 45.195C361.153 45.2682 361.114 45.3552 361.435 45.3958C361.604 45.4168 361.762 45.4491 361.893 45.4849C362.052 45.5269 362.198 45.5369 362.397 45.5239C362.758 45.4984 363.136 45.4903 363.491 45.4584C363.818 45.43 364.027 45.4811 364.232 45.5291C364.396 45.5678 364.548 45.5858 364.741 45.5553C364.939 45.5263 365.085 45.5427 365.25 45.5846C365.483 45.642 365.499 45.6354 366.258 45.6466C366.336 45.6475 366.432 45.6708 366.478 45.6912C366.501 45.7023 366.454 45.7348 366.416 45.7512C366.367 45.7708 366.291 45.7939 366.219 45.7994C365.397 45.8481 364.57 45.8921 363.749 45.9408C363.666 45.9463 363.577 45.9583 363.517 45.9749C363.452 45.9931 363.37 46.0178 363.371 46.0403C363.373 46.0563 363.485 46.0746 363.564 46.0852C363.812 46.12 364.098 46.0614 364.34 46.101C364.504 46.1269 364.64 46.1642 364.803 46.1885C364.871 46.1992 364.977 46.1967 365.06 46.1927C365.338 46.1791 365.61 46.1608 365.887 46.1488C365.965 46.1465 366.056 46.1618 366.129 46.174C366.671 46.2656 366.671 46.2656 367.131 46.2408C367.315 46.2312 367.508 46.2055 367.681 46.2137C367.849 46.2219 367.997 46.2639 368.149 46.2899C368.466 46.345 368.765 46.3986 368.796 46.5234C368.811 46.5715 368.998 46.6116 369.182 46.6132C369.36 46.6149 369.548 46.5956 369.731 46.5845C370.165 46.5615 370.165 46.5615 370.734 46.6545C370.892 46.6804 371.059 46.6822 371.259 46.6645C371.336 46.6574 371.432 46.663 371.516 46.6703C371.79 46.692 371.793 46.7225 371.619 46.7817C371.374 46.8689 371.397 46.8767 372.104 46.9429C372.373 46.9678 372.583 47.0174 372.809 47.0604C373.177 47.1294 373.171 47.1295 372.938 47.2261C372.884 47.2475 372.836 47.2703 372.782 47.2933C372.625 47.3572 372.501 47.4256 372.168 47.4349C371.8 47.4444 371.435 47.4732 371.068 47.494C370.713 47.5147 370.621 47.554 370.663 47.6627C370.711 47.7939 370.785 47.8077 371.425 47.8006C371.609 47.7991 371.771 47.8105 371.914 47.8526C371.851 47.9045 371.731 47.9456 371.554 47.9568C371.099 47.9847 370.638 48.0095 370.182 48.0343C369.816 48.055 369.45 48.0758 369.083 48.0966C368.856 48.1098 368.717 48.1944 368.785 48.2869C368.822 48.3395 368.854 48.3922 368.886 48.4449C368.955 48.5502 369.074 48.5764 369.447 48.5684C369.541 48.566 369.629 48.5524 369.719 48.5549C370.081 48.563 370.264 48.6946 370.696 48.6637C371.057 48.6381 371.435 48.6301 371.79 48.5982C372.116 48.5697 372.304 48.6259 372.536 48.6672C372.615 48.681 372.701 48.7107 372.768 48.7085C373.229 48.687 373.69 48.6654 374.139 48.6311C374.349 48.6164 374.478 48.6249 374.648 48.662C375.056 48.7516 375.067 48.7467 375.661 48.7127C376.093 48.6866 376.099 48.6897 376.663 48.7828C376.821 48.8087 376.988 48.8073 377.188 48.7927C377.449 48.7745 377.72 48.7465 377.994 48.7682C378.078 48.7739 378.186 48.7922 378.215 48.8128C378.233 48.8271 378.157 48.8631 378.091 48.8749C377.607 48.9624 377.032 48.9529 376.5 48.9912C376.334 49.0022 376.164 48.9732 376.022 48.9311C375.874 48.889 375.717 48.8727 375.528 48.8823C375.162 48.9031 374.789 48.9175 374.429 48.9463C374.119 48.9714 373.899 48.9364 373.678 48.8885C373.604 48.8731 373.519 48.8433 373.446 48.8455C372.624 48.8847 371.797 48.9238 370.981 48.9757C370.654 48.9978 370.461 48.9481 370.235 48.9067C370.156 48.8929 370.076 48.8631 370.003 48.8653C369.725 48.8741 369.454 48.8941 369.176 48.9093C368.166 48.9661 367.161 49.0228 366.15 49.0763C366.084 49.0801 365.998 49.0471 365.919 49.0334C365.766 49.0058 365.608 48.9799 365.45 48.9539C365.173 48.9692 364.901 48.9875 364.623 48.9995C364.423 49.0076 364.247 49.0316 364.223 49.0928C364.209 49.133 364.396 49.1683 364.591 49.1635C364.78 49.1586 364.968 49.1378 365.125 49.1573C365.907 49.2533 365.907 49.2549 366.39 49.2299C366.812 49.2071 366.766 49.1914 367.146 49.2764C367.31 49.3135 367.457 49.3347 367.64 49.3235C368.095 49.2972 368.556 49.2708 369.017 49.2476C369.089 49.2438 369.185 49.259 369.258 49.2712C369.811 49.3628 369.811 49.366 370.261 49.3381C370.849 49.3042 370.871 49.2959 371.273 49.3904C371.551 49.4554 371.798 49.4068 372.06 49.4013C372.365 49.4613 372.698 49.5146 372.976 49.5828C373.305 49.6635 373.644 49.6461 374.01 49.6189C374.281 49.5989 374.548 49.5902 374.776 49.6541C374.992 49.7132 375.249 49.7174 375.537 49.6989C375.798 49.6823 376.063 49.6495 376.339 49.6825C376.412 49.6915 376.525 49.7146 376.52 49.729C376.516 49.7515 376.446 49.7842 376.375 49.7945C375.867 49.8646 375.304 49.8678 374.766 49.9029C374.694 49.9083 374.598 49.8915 374.525 49.8793C374.367 49.8517 374.214 49.8193 374.061 49.7902C373.789 49.8021 373.511 49.8077 373.245 49.8292C373.04 49.8454 372.884 49.8452 372.73 49.808C372.589 49.7739 372.435 49.7318 372.267 49.722C372.099 49.7123 371.906 49.738 371.723 49.7492C371.54 49.7604 371.328 49.7573 371.185 49.7842C371.042 49.8111 370.957 49.868 370.865 49.9137C370.763 49.9643 370.619 49.9816 370.408 49.9882C370.213 49.9947 370.057 49.9896 369.909 49.946C369.846 49.9272 369.762 49.9135 369.677 49.9014C369.598 49.8908 369.508 49.874 369.436 49.8778C368.609 49.9218 367.787 49.9689 366.96 50.0145C366.549 50.0372 366.555 50.0372 365.69 49.9499C365.611 49.9425 365.516 49.9321 365.438 49.936C364.977 49.9592 364.522 49.9855 364.061 50.0119C363.595 50.0384 363.601 50.0351 362.797 49.9409C362.65 49.9229 362.441 49.9504 362.268 49.9486C361.905 49.9437 361.717 49.8106 361.296 49.8398C360.935 49.8654 360.557 49.8734 360.197 49.9054C359.87 49.9338 359.676 49.8793 359.451 49.8379C359.371 49.8242 359.285 49.7928 359.219 49.7966C358.391 49.839 357.57 49.8861 356.467 49.9003C356.195 49.9026 356.32 49.9353 356.499 49.945C356.756 49.9604 356.837 49.926 356.693 49.8631C356.59 49.819 356.443 49.7978 356.327 49.81C356.266 49.817 356.191 49.8481 356.467 49.9003C356.762 49.9588 356.747 49.9926 356.799 50.0114C356.925 50.0568 357.099 50.0746 357.277 50.0667C357.554 50.0531 357.826 50.0347 358.104 50.0227C358.182 50.0188 358.277 50.0293 358.351 50.0415C358.971 50.1357 358.977 50.142 359.625 50.098C359.831 50.085 359.981 50.0837 360.145 50.1128C360.371 50.1526 360.537 50.2217 360.876 50.1964C361.325 50.1621 361.786 50.1405 362.247 50.1189C362.319 50.1151 362.399 50.1433 362.483 50.1554C362.714 50.1919 362.887 50.2627 363.224 50.2293C363.485 50.203 363.768 50.1941 364.046 50.187C364.119 50.1847 364.232 50.2094 364.267 50.23C364.336 50.2663 364.256 50.3103 364.069 50.3424C363.992 50.3559 363.886 50.3536 363.797 50.3592C363.43 50.38 363.064 50.4023 362.698 50.4199C362.503 50.4296 362.321 50.4552 362.303 50.5147C362.289 50.555 362.493 50.5885 362.682 50.5837C362.96 50.5765 363.237 50.5613 363.503 50.5382C363.974 50.4989 364.387 50.5049 364.779 50.6027C365.057 50.6709 365.038 50.6454 365.343 50.8514C365.419 50.9037 365.637 50.9066 365.826 50.9018C366.282 50.8899 366.496 50.9121 366.46 50.9622C366.415 51.0235 366.254 51.0442 366.049 51.0539C365.682 51.0699 365.316 51.0939 364.95 51.1147C364.861 51.1203 364.761 51.1307 364.678 51.1282C364.594 51.1257 364.515 51.1072 364.441 51.0933C364.283 51.0642 364.146 51.0188 363.978 51.009C363.81 50.9992 363.617 51.025 363.434 51.0362C363.25 51.0457 363.057 51.0715 362.889 51.0617C362.721 51.0519 362.579 51.005 362.426 50.9774C362.353 50.9636 362.262 50.9419 362.19 50.9441C361.823 50.9601 361.457 50.9841 361.09 51.0032C360.641 51.0279 360.641 51.0279 360.087 50.9332C359.929 50.9056 359.768 50.9086 359.563 50.9232C359.119 50.9527 359.113 50.9479 358.293 50.8619C358.214 50.8529 358.119 50.8425 358.041 50.848C357.214 50.8919 356.393 50.9391 355.571 50.9846C354.866 51.0243 354.866 51.0243 354.488 51.188C354.207 51.3091 354.201 51.3092 354.489 51.3613C354.721 51.4042 354.932 51.4682 355.184 51.4901C355.42 51.5105 355.704 51.4359 355.966 51.5075C356.097 51.5433 356.266 51.5819 356.428 51.587C356.685 51.5928 356.955 51.544 357.205 51.6124C357.33 51.6467 357.517 51.682 357.673 51.6822C357.946 51.6831 358.223 51.6551 358.495 51.6415C358.578 51.6376 358.673 51.6368 358.751 51.6441C358.836 51.6531 358.909 51.6717 358.983 51.6871C359.21 51.7397 359.451 51.7633 359.739 51.7336C360.209 51.6846 360.634 51.7035 361.009 51.803C361.06 51.817 361.183 51.8175 361.26 51.8105C361.46 51.7927 361.632 51.7896 361.785 51.8188C361.847 51.8311 361.938 51.8528 361.928 51.8673C361.913 51.8915 361.848 51.9242 361.776 51.9328C361.257 51.9918 360.695 52.003 360.157 52.0365C360.084 52.0403 359.994 52.0202 359.92 52.0064C359.762 51.9789 359.625 51.9319 359.457 51.9221C359.289 51.9123 359.096 51.9348 358.913 51.9444C358.729 51.954 358.536 51.9797 358.368 51.9715C358.2 51.9617 358.041 51.923 357.905 51.8888C357.746 51.8501 357.596 51.8466 357.391 51.8644C357.125 51.8875 356.847 51.8931 356.574 51.9066C356.422 51.8774 356.269 51.845 356.111 51.8175C356.037 51.8037 355.947 51.7868 355.869 51.7891C355.502 51.8051 355.136 51.8274 354.77 51.8482C354.403 51.869 354.404 51.869 353.772 51.7749C353.699 51.7643 353.603 51.7523 353.526 51.7562C353.065 51.7794 352.61 51.8073 352.149 51.8305C351.971 51.84 351.808 51.819 351.66 51.7769C351.518 51.7348 351.349 51.7122 351.177 51.7217C350.444 51.7616 349.711 51.8 348.979 51.8463C348.685 51.8649 348.433 51.8526 348.228 51.7966C347.989 51.7329 347.729 51.7511 347.457 51.7663C346.841 51.8036 346.835 51.8021 346.434 51.7237C346.354 51.7083 346.274 51.6785 346.202 51.6807C345.563 51.7102 344.919 51.7382 344.287 51.7821C343.954 51.8058 343.771 51.7512 343.546 51.7114C343.467 51.6977 343.381 51.6679 343.314 51.6717C342.853 51.6933 342.392 51.7133 341.943 51.7492C341.494 51.7851 341.311 51.6375 340.971 51.642C340.509 51.6475 340.055 51.6883 339.6 51.7147C339.233 51.7354 338.867 51.7562 338.501 51.777C338.134 51.7978 337.768 51.8153 337.402 51.8393C337.207 51.8522 337.062 51.839 336.897 51.8003C336.687 51.7491 336.439 51.7096 336.213 51.6634C335.868 51.5973 335.868 51.5973 335.457 51.6201C335.368 51.6256 335.274 51.6296 335.185 51.6352C334.514 51.6763 334.513 51.6731 333.648 51.5794C333.609 51.5749 333.51 51.5934 333.472 51.6065C333.358 51.6492 333.255 51.695 333.153 51.7392C333.001 51.7149 332.816 51.702 332.713 51.666C332.421 51.5642 331.986 51.7107 331.689 51.6105C331.58 51.573 331.394 51.5408 331.226 51.5327C331.052 51.5245 330.859 51.5486 330.682 51.5598C330.221 51.5878 330.221 51.5862 329.836 51.7323C329.64 51.8045 329.35 51.7942 329.089 51.8124C328.818 51.8324 328.556 51.8443 328.323 51.7805C328.113 51.7229 327.861 51.7106 327.567 51.7324C327.207 51.7595 326.835 51.7771 326.468 51.7947C326.391 51.7986 326.295 51.7914 326.217 51.7824C325.357 51.6951 325.357 51.6935 324.947 51.7179C324.764 51.7291 324.574 51.7339 324.397 51.7498C324.098 51.778 323.867 51.7463 323.647 51.6969C323.573 51.6814 323.487 51.6517 323.415 51.6539C323.048 51.6651 322.687 51.6826 322.326 51.7001C322.048 51.7137 321.77 51.7225 321.504 51.7473C321.061 51.7879 320.836 51.6856 320.527 51.6401C320.071 51.6648 319.61 51.6832 319.155 51.716C318.945 51.7306 318.805 51.727 318.641 51.6899C318.431 51.6435 318.238 51.5906 317.905 51.6175C317.462 51.6534 316.995 51.6686 316.54 51.6918C316.23 51.6447 316 51.5456 315.562 51.5862C315.296 51.6109 315.013 51.6182 314.741 51.6333C314.374 51.6541 314.008 51.6733 313.642 51.6957C313.248 51.7183 313.253 51.7134 312.639 51.624C312.284 51.5709 311.926 51.6365 311.57 51.6492C311.292 51.6596 311.159 51.7345 311.232 51.8286C311.306 51.9226 311.161 51.9976 310.906 52.0127C310.267 52.0486 309.623 52.0862 308.985 52.1189C308.907 52.1228 308.812 52.1124 308.738 52.1018C308.046 52.0066 308.046 52.0082 307.741 52.0253C307.286 52.0532 306.819 52.07 306.37 52.1043C306.059 52.1279 305.829 52.0961 305.624 52.0433C305.465 52.003 305.32 51.9946 305.12 52.0059C302.922 52.1322 300.723 52.2505 298.531 52.3799C298.203 52.3987 298.011 52.3538 297.785 52.3125C297.706 52.2987 297.631 52.2688 297.553 52.2695C297.369 52.2711 297.186 52.2871 297.003 52.2983C296.182 52.3438 295.361 52.3973 294.533 52.4333C294.183 52.4491 294.094 52.5237 293.948 52.5859C293.834 52.6334 293.702 52.6538 293.496 52.662C293.296 52.6701 293.151 52.6633 292.992 52.6229C292.787 52.5701 292.556 52.5384 292.246 52.5635C291.886 52.5923 291.519 52.6066 291.147 52.6275C290.958 52.6371 290.815 52.6672 290.758 52.7254C290.748 52.7352 290.867 52.7582 290.935 52.7721C291.161 52.8183 291.377 52.8726 291.63 52.9041C291.888 52.9356 292.164 52.8947 292.431 52.8828C292.525 52.8788 292.614 52.8684 292.703 52.8693C292.787 52.8702 292.888 52.8773 292.95 52.8913C293.245 52.9609 293.555 53.008 293.953 52.9613C294.299 52.9792 294.487 53.1108 294.925 53.0717C295.191 53.0486 295.469 53.0366 295.747 53.0262C295.819 53.024 295.899 53.0522 295.978 53.066C296.204 53.1041 296.387 53.1668 296.719 53.1366C297.073 53.1047 297.452 53.0967 297.812 53.0711C298.012 53.0566 298.157 53.0666 298.316 53.107C298.521 53.1582 298.752 53.1963 299.062 53.168C299.328 53.1432 299.611 53.136 299.883 53.1192C300.239 53.0985 300.239 53.1001 300.881 53.1941C300.954 53.2047 301.05 53.2168 301.127 53.2129C301.588 53.1897 302.043 53.1618 302.504 53.1386C302.682 53.129 302.856 53.1484 302.982 53.1938C303.034 53.2127 303.019 53.2449 303.038 53.272C302.122 53.3232 301.206 53.3679 300.296 53.4286C299.952 53.4524 299.791 53.388 299.56 53.353C299.481 53.3409 299.396 53.3143 299.324 53.3182C298.68 53.3509 298.041 53.3853 297.403 53.426C297.203 53.439 297.053 53.4338 296.899 53.3886C296.505 53.2684 296.042 53.3398 295.609 53.3611C295.276 53.3768 295.174 53.4274 295.22 53.5329C295.28 53.6576 295.483 53.6943 295.994 53.6675C296.177 53.6579 296.36 53.6451 296.543 53.6371C296.721 53.6292 296.884 53.6487 297.032 53.6907C297.175 53.7328 297.343 53.7538 297.515 53.746C297.882 53.7284 298.254 53.7108 298.609 53.6837C298.903 53.6619 299.149 53.6758 299.359 53.7334C299.593 53.7972 299.859 53.7805 300.125 53.7638C300.747 53.7264 300.752 53.7279 301.148 53.8048C301.227 53.8202 301.308 53.85 301.38 53.8477C302.019 53.8182 302.663 53.7919 303.29 53.748C303.617 53.7259 303.81 53.7756 304.031 53.8155C304.11 53.8292 304.19 53.8606 304.262 53.8568C304.723 53.8352 305.184 53.8136 305.633 53.7793C305.844 53.7631 305.973 53.7716 306.148 53.8086C306.567 53.8997 306.578 53.8964 307.161 53.8609C307.338 53.8498 307.532 53.8305 307.7 53.8419C307.868 53.8533 308.005 53.8987 308.163 53.9262C308.237 53.9384 308.327 53.9553 308.405 53.9514C308.771 53.9354 309.138 53.9131 309.504 53.8923C309.848 53.8717 309.848 53.8733 310.502 53.9672C310.766 54.0066 311.037 53.969 311.298 53.954C311.581 53.9371 311.837 53.9349 312.059 53.9956C312.28 54.0563 312.542 54.0508 312.82 54.0356C313.081 54.0206 313.345 53.983 313.616 54.024C314.236 54.1182 314.236 54.1198 314.613 54.0973C315.163 54.0654 315.707 54.035 316.262 54.0062C316.334 54.0024 316.43 54.0208 316.504 54.0331C316.662 54.0606 316.799 54.1075 316.967 54.1173C317.135 54.1287 317.328 54.1078 317.506 54.0967C318.077 54.0613 318.116 54.0498 318.508 54.1523C318.837 54.2361 319.229 54.1076 319.537 54.2045C319.714 54.2591 319.951 54.302 320.272 54.272C320.538 54.2473 320.816 54.2385 321.093 54.2233C321.532 54.1987 321.532 54.2003 322.096 54.2918C322.169 54.304 322.265 54.3192 322.337 54.3154C322.704 54.2994 323.077 54.285 323.431 54.2531C323.846 54.2158 324.118 54.2745 324.434 54.3312C324.683 54.3756 324.97 54.3346 325.23 54.3163C325.513 54.2979 325.77 54.3005 325.986 54.3612C326.213 54.4234 326.475 54.4132 326.752 54.398C327.013 54.3845 327.278 54.3454 327.549 54.388C328.13 54.4825 328.13 54.4825 328.546 54.4597C328.912 54.4389 329.279 54.4165 329.645 54.4006C329.717 54.3967 329.808 54.4168 329.881 54.4306C330.04 54.4582 330.177 54.5051 330.345 54.5149C330.513 54.5247 330.706 54.5022 330.889 54.4926C331.073 54.483 331.266 54.4573 331.434 54.4655C331.601 54.4737 331.76 54.5125 331.896 54.5466C332.056 54.587 332.201 54.5905 332.411 54.5727C332.677 54.5496 332.955 54.5424 333.227 54.5288C333.38 54.558 333.538 54.5871 333.685 54.6196C333.838 54.6536 334 54.649 334.205 54.636C334.887 54.5916 334.893 54.5964 335.474 54.6909C335.739 54.7336 336.01 54.6944 336.271 54.6809C336.548 54.6657 336.809 54.6571 337.031 54.7194C337.247 54.7785 337.51 54.7842 337.787 54.7626C337.964 54.7483 338.153 54.7387 338.336 54.7323C338.42 54.73 338.521 54.7355 338.583 54.7478C338.883 54.8126 339.177 54.8711 339.581 54.8243C339.938 54.8341 340.126 54.9641 340.553 54.9348C340.913 54.9092 341.292 54.9012 341.646 54.8693C341.973 54.8408 342.21 54.8837 342.381 54.9384C342.689 55.0353 343.103 54.8969 343.411 54.9922C343.588 55.0468 343.813 55.0898 344.146 55.0629C344.512 55.0341 344.631 55.0668 344.744 55.1669C344.81 55.2241 344.802 55.2707 344.694 55.3166C344.586 55.364 344.463 55.3571 344.281 55.3057C344.07 55.2481 343.824 55.2389 343.53 55.2543C343.241 55.2696 343.057 55.1878 342.815 55.1577C342.573 55.1261 342.293 55.1846 342.039 55.1435C341.442 55.0475 341.442 55.0475 341.042 55.0702C340.77 55.0853 340.486 55.0942 340.221 55.1189C339.905 55.1489 339.695 55.1009 339.475 55.0579C339.396 55.0425 339.315 55.0127 339.249 55.0149C338.61 55.0444 337.965 55.0724 337.333 55.1179C337.001 55.1416 336.818 55.0854 336.593 55.0472C336.514 55.0334 336.428 55.0053 336.361 55.0091C335.811 55.0362 335.268 55.0698 334.718 55.1017C334.615 55.1459 334.501 55.1886 334.405 55.236C334.302 55.285 334.159 55.3071 333.947 55.3073C333.596 55.3103 333.256 55.3806 332.899 55.2986C332.53 55.2151 332.503 55.2201 332.153 55.244C331.71 55.275 331.236 55.2727 330.823 55.3388C330.751 55.3506 330.675 55.3817 330.677 55.4042C330.672 55.4187 330.791 55.4385 330.864 55.4507C331.112 55.4871 331.392 55.4286 331.64 55.4666C331.803 55.4908 331.94 55.5282 332.103 55.5541C332.171 55.5647 332.271 55.5623 332.36 55.5599C332.455 55.5575 332.543 55.5455 332.632 55.5463C332.716 55.5472 332.806 55.5561 332.874 55.5699C333.185 55.6283 333.512 55.6816 333.79 55.7515C334.062 55.8197 334.31 55.7695 334.577 55.764C335.654 55.8671 335.655 55.8687 336.371 55.8273C336.548 55.8177 336.731 55.8066 336.915 55.8066C336.993 55.8059 337.068 55.8342 337.147 55.8495C337.373 55.8957 337.588 55.9372 337.898 55.9089C338.164 55.8842 338.448 55.8769 338.719 55.8602C339.086 55.8394 339.086 55.8394 339.717 55.9351C339.875 55.9594 340.042 55.9548 340.241 55.9402C340.413 55.9275 340.593 55.9501 340.719 55.9955C340.771 56.0143 340.756 56.0466 340.775 56.0737C340.225 56.104 339.67 56.1264 339.138 56.1695C338.794 56.1965 338.633 56.1289 338.402 56.0939C338.323 56.0818 338.238 56.0552 338.165 56.0591C337.621 56.0878 337.077 56.1197 336.534 56.1564C336.467 56.1602 336.386 56.1978 336.382 56.2203C336.374 56.2621 336.516 56.301 336.717 56.2976C336.984 56.2938 337.244 56.2643 337.488 56.328C337.693 56.384 337.945 56.4075 338.239 56.3793C338.416 56.3634 338.605 56.3617 338.783 56.3474C339.253 56.3049 339.683 56.3092 340.047 56.4152C340.322 56.4417 340.588 56.4122 340.849 56.3955C341.043 56.3827 341.231 56.3698 341.373 56.3991C341.673 56.4607 341.967 56.5224 342.37 56.4756C342.814 56.5167 343.155 56.6085 343.528 56.6823C343.703 56.7177 343.839 56.7374 344.037 56.7117C344.12 56.7013 344.22 56.7005 344.309 56.6949C344.492 56.6853 344.686 56.6596 344.853 56.6678C345.021 56.6776 345.164 56.7229 345.317 56.7505C345.39 56.7643 345.475 56.7876 345.548 56.7854C345.826 56.775 346.097 56.7566 346.369 56.7415C346.641 56.7279 346.914 56.7144 347.186 56.7008C347.417 56.7406 347.654 56.7803 347.885 56.82C348.252 56.7992 348.618 56.7784 348.979 56.7593C349.384 56.7366 349.384 56.7382 349.976 56.8326C350.242 56.8753 350.518 56.844 350.767 56.8211C351.183 56.7838 351.465 56.8424 351.765 56.904C351.828 56.9163 351.94 56.9234 352.011 56.9163C352.299 56.8914 352.551 56.9069 352.767 56.9644C352.921 57.0048 353.073 57.0228 353.256 57.0132C353.894 56.9773 354.532 56.9397 355.171 56.907C355.249 56.9031 355.339 56.9168 355.412 56.929C355.988 57.022 355.993 57.0267 356.409 56.9975C356.781 56.9719 357.126 56.9593 357.427 57.045C357.49 57.0637 357.587 57.0901 357.653 57.088C358.109 57.068 358.57 57.0464 359.019 57.0153C359.224 57.0007 359.37 57.0043 359.534 57.0398C359.743 57.0846 359.931 57.1391 360.269 57.1154C361.207 57.048 361.213 57.0576 362.335 57.1587C362.413 57.166 362.518 57.1523 362.607 57.1451C362.795 57.1275 362.936 57.1487 363.106 57.1842C363.485 57.2644 363.496 57.2595 363.851 57.2388C364.123 57.222 364.407 57.2164 364.672 57.1901C365.082 57.1513 365.36 57.2115 365.67 57.2682C365.919 57.3126 366.2 57.2717 366.461 57.255C366.744 57.2366 367 57.2392 367.216 57.2983C367.364 57.3388 367.522 57.3599 367.705 57.3503C368.343 57.316 368.982 57.2784 369.62 57.2441C369.698 57.2402 369.794 57.2522 369.867 57.2628C370.509 57.3568 370.51 57.3616 371.136 57.3194C371.336 57.3065 371.503 57.3018 371.656 57.3342C371.803 57.365 371.961 57.3942 372.114 57.4233C372.386 57.4098 372.664 57.4042 372.93 57.3827C373.135 57.3665 373.28 57.3717 373.444 57.404C373.659 57.4455 373.843 57.5193 374.174 57.4795C374.346 57.4604 374.547 57.4635 374.718 57.446C374.923 57.4234 375.063 57.4351 375.228 57.4754C375.432 57.5234 375.641 57.5729 375.963 57.5445C376.317 57.5126 376.695 57.5046 377.056 57.479C377.255 57.4645 377.396 57.4761 377.56 57.5164C377.765 57.5676 377.996 57.5994 378.306 57.5758C378.938 57.5303 378.944 57.5383 379.57 57.634C379.728 57.6584 379.895 57.6537 380.094 57.6392C380.266 57.6265 380.446 57.649 380.572 57.6945C380.693 57.7448 380.684 57.7769 380.697 57.8041ZM330.009 43.766C329.826 43.7756 329.643 43.7868 329.365 43.6496C329.347 43.6257 329.356 43.5967 329.315 43.5762C329.223 43.5337 329.082 43.5044 328.914 43.501C328.613 43.4972 328.255 43.5548 328.263 43.5964C328.271 43.6317 328.368 43.6613 328.554 43.6886C328.633 43.6992 328.696 43.7179 328.769 43.7301C328.984 43.7652 329.156 43.8359 329.46 43.7964C329.397 43.6975 329.428 43.7469 329.46 43.7964C329.436 43.8576 329.523 43.9002 329.725 43.9161C329.781 43.9204 329.864 43.9165 329.908 43.9065C330.078 43.8697 330.102 43.8214 329.965 43.6958C329.944 43.7169 329.964 43.7536 330.014 43.7628C330.065 43.772 330.187 43.7629 330.248 43.7512C330.401 43.7194 330.477 43.6786 330.435 43.6453C330.412 43.6278 330.304 43.6063 330.237 43.6069C330.12 43.6079 330.017 43.644 330.009 43.766ZM376.402 61.9772C375.998 62.0111 375.529 62.0039 375.127 62.0699C375.055 62.0818 374.985 62.1112 374.981 62.1337C374.976 62.1482 375.089 62.1681 375.157 62.1788C375.309 62.2031 375.476 62.1937 375.67 62.184C375.965 62.1703 376.143 62.2425 376.374 62.2775C376.447 62.2881 376.542 62.2953 376.62 62.2914C377.07 62.2683 377.514 62.2437 377.963 62.2174C378.041 62.2119 378.124 62.2 378.19 62.185C378.409 62.1365 378.384 62.1063 378.165 62.0729C377.922 62.0364 377.728 61.9739 377.481 61.9455C377.127 61.9052 376.775 61.966 376.402 61.9772ZM344.854 63.4179C344.582 63.4331 344.315 63.4482 344.043 63.4633C343.954 63.4689 343.86 63.4713 343.777 63.4785C343.605 63.4912 343.479 63.5259 343.4 63.5795C343.531 63.6201 343.689 63.6429 343.861 63.6366C344.133 63.6246 344.399 63.6015 344.672 63.5944C344.966 63.5854 345.144 63.6561 345.375 63.691C345.448 63.7016 345.538 63.7025 345.621 63.7034C346.034 63.7063 346.279 63.6208 346.192 63.5044C346.13 63.4134 345.914 63.3607 345.659 63.3741C345.392 63.3877 345.12 63.4028 344.854 63.4179ZM378.135 59.5909C378.2 59.5631 378.271 59.5433 378.302 59.5189C378.397 59.4363 378.353 59.3757 378.165 59.3131C377.936 59.2364 377.667 59.2917 377.417 59.3018C377.356 59.304 377.291 59.3382 377.26 59.3593C377.238 59.374 377.241 59.4044 377.275 59.4122C377.552 59.474 377.846 59.5308 378.135 59.5909ZM329.469 55.2669C329.202 55.282 328.93 55.294 328.664 55.3139C328.597 55.3193 328.538 55.3503 328.501 55.3714C328.431 55.4105 328.513 55.4628 328.742 55.4656C329.004 55.4698 329.275 55.4402 329.547 55.4251C329.891 55.4061 330.093 55.345 329.961 55.2948C329.835 55.2461 329.667 55.2379 329.469 55.2669ZM36.008 54.3444C36.1857 54.3349 36.369 54.3269 36.5464 54.3141C36.7127 54.3015 36.8384 54.2651 36.9181 54.2115C36.7758 54.171 36.6181 54.1498 36.4458 54.1561C36.1736 54.1681 35.9072 54.1832 35.6409 54.2015C35.4745 54.2126 35.3156 54.2492 35.2806 54.3041C35.2446 54.3461 35.6195 54.367 36.008 54.3444ZM305.645 51.7945C305.718 51.8083 305.793 51.8365 305.865 51.8359C306.044 51.8344 306.227 51.8232 306.393 51.8057C306.465 51.7987 306.518 51.7693 306.55 51.7466C306.571 51.732 306.564 51.7064 306.53 51.6938C306.362 51.6183 305.718 51.651 305.619 51.7401C305.609 51.7563 305.638 51.7769 305.645 51.7945ZM287.432 43.1638C287.451 43.1893 287.459 43.2149 287.483 43.2403C287.531 43.2881 287.656 43.3223 287.836 43.3448C287.972 43.3036 288.041 43.258 288.032 43.21C288.025 43.1844 288.006 43.1589 287.982 43.1334C287.934 43.0857 287.809 43.0514 287.629 43.0289C287.492 43.0686 287.429 43.1141 287.432 43.1638ZM391.285 63.3006C391.237 63.3218 391.188 63.3431 391.134 63.3628C391.287 63.408 391.428 63.4213 391.532 63.3947C391.597 63.3781 391.635 63.3537 391.683 63.3324C391.53 63.2872 391.395 63.2756 391.285 63.3006ZM387.836 63.5482C387.91 63.562 387.978 63.5807 388.057 63.5897C388.186 63.6046 388.301 63.5763 388.386 63.5178C388.312 63.504 388.244 63.4854 388.166 63.4764C388.036 63.4615 387.921 63.4897 387.836 63.5482ZM390.01 63.236C389.973 63.2749 390.054 63.3063 390.262 63.3318C390.311 63.3105 390.376 63.2907 390.408 63.2679C390.461 63.2306 390.364 63.1977 390.161 63.1738C390.107 63.1935 390.058 63.2148 390.01 63.236ZM378.125 61.6079C378.089 61.6467 378.169 61.6781 378.377 61.7036C378.426 61.6823 378.492 61.6625 378.523 61.6398C378.576 61.6024 378.479 61.5696 378.277 61.5456C378.223 61.5653 378.174 61.5866 378.125 61.6079ZM361.28 50.3983C361.232 50.4196 361.183 50.4409 361.129 50.4606C361.283 50.5058 361.423 50.519 361.527 50.4925C361.593 50.4759 361.63 50.4515 361.678 50.4302C361.525 50.385 361.39 50.3733 361.28 50.3983ZM345.497 44.5098C345.631 44.5199 345.741 44.4965 345.831 44.4364C345.758 44.4226 345.69 44.4039 345.611 44.3949C345.482 44.38 345.367 44.4083 345.282 44.4667C345.355 44.4822 345.429 44.496 345.497 44.5098ZM337.32 44.2026C337.272 44.2239 337.223 44.2451 337.169 44.2649C337.322 44.3101 337.463 44.3233 337.567 44.2968C337.632 44.2802 337.67 44.2558 337.718 44.2345C337.564 44.1893 337.43 44.1792 337.32 44.2026ZM281.951 43.209C281.903 43.2302 281.854 43.2515 281.8 43.2712C281.954 43.3164 282.094 43.3297 282.198 43.3031C282.263 43.2865 282.301 43.2621 282.349 43.2409C282.196 43.1956 282.061 43.1856 281.951 43.209ZM7.73587 58.6051C7.66241 58.5913 7.58901 58.5775 7.521 58.562C7.36261 58.6067 7.31541 58.6472 7.40675 58.6769C7.46385 58.6957 7.54816 58.7062 7.62162 58.72C7.78558 58.6753 7.82175 58.6365 7.73587 58.6051Z" fill="#FFE492"/>
<path d="M201.26 9.75678C200.622 9.79266 199.99 9.83649 199.35 9.86115C199.011 9.87365 198.894 9.94357 198.759 10.0088C198.651 10.061 198.524 10.0781 198.319 10.0895C196.587 10.1827 194.86 10.2808 193.134 10.3772C192.915 10.3582 192.806 10.3255 192.854 10.285C192.88 10.2607 192.944 10.2265 193.011 10.2228C194.193 10.1534 195.37 10.0825 196.558 10.0259C196.897 10.0102 196.987 9.93894 197.156 9.87982C197.21 9.86013 197.252 9.83092 197.324 9.81909C197.395 9.80566 197.501 9.80637 197.596 9.80236C199.506 9.69477 201.415 9.58879 203.325 9.4812C203.544 9.50018 203.652 9.53291 203.605 9.57337C203.579 9.59763 203.515 9.63184 203.448 9.63561C202.715 9.6755 201.988 9.71534 201.26 9.75678Z" fill="#FFE492"/>
<path d="M553.83 17.7373C553.541 17.7589 553.176 17.7893 552.868 17.6989C552.72 17.6553 552.563 17.6422 552.374 17.6535C552.102 17.6718 551.825 17.687 551.547 17.699C551.475 17.7012 551.379 17.6844 551.305 17.6706C551.147 17.6431 551.01 17.5961 550.842 17.5848C550.674 17.5734 550.476 17.6103 550.302 17.6038C550.073 17.5945 549.975 17.5521 550.034 17.5115C550.066 17.4888 550.13 17.4562 550.202 17.4507C551.229 17.3827 551.234 17.3827 551.528 17.4379C551.754 17.4808 551.964 17.5287 552.279 17.4988C552.545 17.4741 552.829 17.4669 553.101 17.4501C553.478 17.4277 553.478 17.4293 554.098 17.525C554.256 17.5493 554.423 17.5463 554.623 17.5302C554.795 17.5175 554.964 17.5417 555.106 17.5837C555.021 17.639 554.895 17.6753 554.723 17.6864C554.446 17.7048 554.174 17.7183 553.83 17.7373Z" fill="#FFE492"/>
<path d="M543.512 17.2743C544.211 17.2345 544.916 17.1995 545.615 17.1549C545.903 17.1363 546.133 17.1521 546.337 17.2051C546.559 17.2628 546.803 17.2559 547.07 17.2423C547.236 17.2344 547.4 17.2588 547.514 17.3029C547.56 17.3203 547.551 17.3526 547.57 17.3782C546.959 17.4124 546.344 17.4483 545.728 17.4793C545.655 17.4831 545.565 17.4678 545.497 17.4555C545.345 17.4294 545.213 17.3822 545.051 17.3739C544.704 17.3544 544.362 17.4008 544.012 17.4118C543.845 17.4165 543.682 17.3937 543.568 17.3512C543.521 17.3307 543.53 17.3 543.512 17.2743Z" fill="#FFE492"/>
<path d="M288.499 3.34754C289.226 3.30607 289.953 3.26622 290.681 3.22475C290.899 3.24534 291.002 3.27653 290.96 3.31698C290.934 3.34126 290.87 3.37549 290.803 3.37926C289.349 3.46381 287.895 3.54514 286.446 3.62643C286.227 3.60584 286.124 3.57465 286.166 3.5342C286.192 3.50992 286.256 3.47569 286.323 3.47192C287.045 3.42889 287.772 3.38902 288.499 3.34754Z" fill="#FFE492"/>
<path d="M175.573 13.2301C175.247 13.2363 174.907 13.3004 174.538 13.2574C174.465 13.2498 174.364 13.2242 174.368 13.2093C174.377 13.1845 174.442 13.1525 174.513 13.142C174.826 13.0979 175.219 13.0895 175.371 12.9725C175.445 12.9124 175.587 12.8913 175.78 12.8781C175.985 12.8631 176.129 12.8667 176.292 12.9C176.506 12.9427 176.69 13.0236 177.019 12.9778C177.038 13.004 177.079 13.0334 177.064 13.0583C177.049 13.0832 176.979 13.107 176.914 13.1257C176.854 13.1428 176.772 13.1584 176.695 13.164C176.33 13.187 175.966 13.2068 175.573 13.2301Z" fill="#FFE492"/>
<path d="M466.724 11.963C466.995 11.9477 467.279 11.9387 467.544 11.9137C467.754 11.8941 467.889 11.9043 468.059 11.9418C468.347 12.0075 468.364 12.0009 469.06 12.0046C469.138 12.0056 469.234 12.0291 469.28 12.0498C469.309 12.0609 469.272 12.0921 469.24 12.1086C469.192 12.1301 469.121 12.1583 469.054 12.1589C468.615 12.1676 468.177 12.2672 467.741 12.1605C467.519 12.1072 467.278 12.0833 466.985 12.1102C466.808 12.1263 466.619 12.1344 466.436 12.1425C466.259 12.1505 466.074 12.1342 465.959 12.0865C465.792 12.0165 465.885 11.9881 466.175 11.9905C466.358 11.9921 466.541 11.9727 466.724 11.963Z" fill="#FFE492"/>
<path d="M568.278 23.4475C568.626 23.4279 568.974 23.405 569.328 23.3887C569.4 23.3848 569.49 23.4021 569.557 23.4131C569.827 23.4603 569.794 23.5449 569.811 23.6191C569.822 23.6967 569.212 23.7649 568.947 23.7143C568.655 23.6574 568.389 23.592 567.993 23.6319C567.838 23.6465 567.653 23.6183 567.55 23.5713C567.395 23.5033 567.476 23.4745 567.759 23.4769C567.926 23.4788 568.102 23.459 568.278 23.4475Z" fill="#FFE492"/>
<path d="M390.371 0.682631C390.731 0.661564 391.091 0.630729 391.452 0.625964C391.663 0.622502 391.773 0.675373 391.726 0.714932C391.7 0.739626 391.635 0.774441 391.569 0.77828C390.849 0.823675 390.128 0.862553 389.408 0.904688C389.195 0.883697 389.087 0.850384 389.134 0.810824C389.16 0.78613 389.224 0.752946 389.291 0.747476C389.651 0.721519 390.011 0.703698 390.371 0.682631Z" fill="#FFE492"/>
<path d="M561.224 17.889C561.573 17.8696 561.927 17.842 562.277 17.8308C562.46 17.8259 562.608 17.8622 562.633 17.9045C562.645 17.924 562.559 17.9591 562.487 17.9679C561.991 18.0277 561.452 18.0389 560.932 18.0712C560.765 18.0809 560.585 18.0563 560.482 18.0114C560.327 17.9425 560.408 17.9157 560.692 17.9181C560.87 17.9182 561.047 17.8987 561.224 17.889Z" fill="#FFE492"/>
<path d="M475.969 12.1567C476.145 12.1467 476.325 12.1234 476.497 12.1285C476.68 12.1353 476.8 12.1827 476.859 12.2306C476.924 12.2852 476.922 12.337 476.87 12.3843C476.788 12.4653 476.699 12.4627 476.491 12.4111C476.169 12.3304 476.148 12.3406 475.524 12.3496C475.452 12.3502 475.362 12.3259 475.305 12.3047C475.22 12.272 475.26 12.2199 475.451 12.1881C475.593 12.1651 475.792 12.1666 475.969 12.1567Z" fill="#FFE492"/>
<path d="M548.119 17.3672C548.379 17.3518 548.639 17.3281 548.9 17.3258C549.083 17.3226 549.23 17.3591 549.25 17.4001C549.257 17.4198 549.176 17.4534 549.11 17.4639C548.797 17.511 548.441 17.5174 548.098 17.5352C547.938 17.5432 547.758 17.5185 547.655 17.4733C547.5 17.4055 547.586 17.3735 547.859 17.381C547.943 17.3836 548.031 17.3729 548.119 17.3672Z" fill="#FFE492"/>
<path d="M506.714 15.388C506.327 15.4112 505.959 15.3897 505.983 15.3468C506.018 15.2905 506.176 15.2529 506.342 15.2416C506.607 15.2229 506.873 15.2074 507.144 15.1951C507.316 15.1871 507.473 15.2103 507.615 15.2519C507.536 15.3052 507.411 15.3441 507.245 15.3571C507.074 15.3701 506.891 15.3783 506.714 15.388Z" fill="#FFE492"/>
<path d="M504.14 15.1875C504.4 15.1721 504.66 15.1484 504.921 15.1461C505.104 15.1429 505.251 15.1794 505.271 15.2204C505.278 15.2401 505.197 15.2737 505.131 15.2842C504.818 15.3313 504.463 15.3377 504.12 15.3556C503.959 15.3635 503.779 15.3388 503.676 15.2936C503.521 15.2259 503.608 15.1939 503.88 15.2013C503.964 15.2039 504.052 15.1932 504.14 15.1875Z" fill="#FFE492"/>
<path d="M472.799 12.1535C473.059 12.1381 473.318 12.1144 473.579 12.1105C473.762 12.1072 473.909 12.1438 473.929 12.1848C473.936 12.2045 473.855 12.2364 473.789 12.2485C473.476 12.2957 473.121 12.3021 472.778 12.3199C472.617 12.3279 472.437 12.3032 472.334 12.258C472.179 12.1902 472.265 12.1582 472.538 12.1657C472.622 12.1683 472.71 12.1576 472.799 12.1535Z" fill="#FFE492"/>
<path d="M471.326 12.0575C471.603 12.0419 471.691 12.0329 471.78 12.0321C471.947 12.0307 472.12 12.0489 472.224 12.0957C472.379 12.1635 472.291 12.184 472.019 12.1897C471.67 12.1961 471.328 12.2336 470.979 12.2433C470.796 12.2482 470.648 12.2099 470.634 12.1689C470.627 12.1492 470.708 12.1139 470.774 12.1068C471.006 12.0801 471.26 12.063 471.326 12.0575Z" fill="#FFE492"/>
<path d="M501.783 1.86503C501.606 1.87487 501.419 1.89969 501.252 1.89289C501.03 1.88327 500.937 1.83939 500.99 1.79755C501.021 1.7741 501.08 1.74047 501.146 1.73492C501.499 1.70863 501.859 1.69055 502.212 1.67088C502.425 1.69383 502.522 1.72773 502.469 1.76958C502.438 1.79303 502.379 1.825 502.313 1.8322C502.142 1.85026 501.96 1.85519 501.783 1.86503Z" fill="#FFE492"/>
<path d="M284.524 3.56303C284.695 3.55985 284.852 3.58007 284.988 3.62043C284.909 3.67433 284.79 3.7103 284.625 3.72673C284.542 3.73412 284.448 3.73993 284.36 3.74238C284.188 3.74723 284.031 3.72534 283.895 3.68499C283.975 3.63108 284.099 3.59506 284.259 3.57868C284.341 3.5713 284.436 3.56881 284.524 3.56303Z" fill="#FFE492"/>
<path d="M559.342 17.8855C559.333 17.8374 559.666 17.7796 559.971 17.7786C560.132 17.7788 560.3 17.8006 560.397 17.8446C560.546 17.9114 560.465 17.9387 560.193 17.9361C560.027 17.9343 559.852 17.9641 559.685 17.9605C559.497 17.9606 559.383 17.925 559.342 17.8855Z" fill="#FFE492"/>
<path d="M477.602 12.3569C477.595 12.3386 477.566 12.3171 477.582 12.3002C477.68 12.2073 478.313 12.1732 478.484 12.252C478.513 12.2668 478.526 12.2918 478.505 12.307C478.474 12.3307 478.415 12.3613 478.349 12.3686C478.179 12.3869 478.003 12.3968 477.827 12.4001C477.749 12.4008 477.675 12.373 477.602 12.3569Z" fill="#FFE492"/>
<path d="M177.591 12.9519C176.94 12.9927 176.929 12.9895 177.039 12.9052C177.139 12.8293 177.329 12.7826 177.611 12.7801C177.694 12.7793 177.782 12.7752 177.855 12.7812C177.933 12.7889 178.045 12.8045 178.063 12.8244C178.099 12.8624 178.008 12.9049 177.844 12.9347C177.773 12.9486 177.679 12.9462 177.591 12.9519Z" fill="#FFE492"/>
<path d="M292.8 3.28889C292.609 3.31904 292.443 3.31051 292.317 3.25811C292.192 3.2057 292.38 3.14044 292.716 3.12237C292.804 3.11824 292.897 3.10403 292.98 3.10998C293.064 3.11425 293.148 3.13355 293.199 3.15316C293.29 3.1858 293.238 3.23144 293.064 3.27147C292.994 3.28716 292.888 3.28476 292.8 3.28889Z" fill="#FFE492"/>
<path d="M558.162 17.7584C558.209 17.7359 558.257 17.7134 558.309 17.6926C558.513 17.7195 558.602 17.7526 558.551 17.7921C558.52 17.8161 558.456 17.837 558.409 17.8595C558.206 17.8326 558.121 17.7977 558.162 17.7584Z" fill="#FFE492"/>
<path d="M186.552 32.4441C186.551 32.4239 186.625 32.3911 186.685 32.3838C186.799 32.371 186.944 32.3933 187.046 32.4396C187.188 32.5058 187.109 32.542 186.855 32.5257C186.678 32.5138 186.555 32.4812 186.552 32.4441Z" fill="#FFE492"/>
<path d="M479.846 10.7521C479.918 10.7666 479.991 10.7811 480.058 10.7973C479.969 10.8603 479.856 10.8882 479.734 10.8725C479.656 10.8631 479.588 10.8436 479.516 10.8291C479.604 10.766 479.713 10.7415 479.846 10.7521Z" fill="#FFE492"/>
<path d="M477.909 10.6827C478.017 10.6565 478.149 10.6688 478.307 10.7162C478.259 10.7385 478.217 10.7641 478.158 10.7814C478.055 10.8093 477.917 10.797 477.765 10.7479C477.807 10.7274 477.855 10.7051 477.909 10.6827Z" fill="#FFE492"/>
<path d="M476.467 10.762C476.54 10.7764 476.612 10.7909 476.679 10.8072C476.591 10.8702 476.483 10.8981 476.355 10.8824C476.277 10.873 476.21 10.8534 476.137 10.8389C476.226 10.7759 476.334 10.7497 476.467 10.762Z" fill="#FFE492"/>
<path d="M475.379 10.6727C475.463 10.7058 475.422 10.7469 475.268 10.7941C475.197 10.7795 475.114 10.7684 475.058 10.7486C474.969 10.7172 475.009 10.6744 475.169 10.6271C475.235 10.6435 475.307 10.6581 475.379 10.6727Z" fill="#FFE492"/>
</svg>
