<?xml version="1.0" encoding="utf-8"?>
<!-- Generator: Adobe Illustrator 22.1.0, SVG Export Plug-In . SVG Version: 6.00 Build 0)  -->
<svg version="1.1" id="Camada_1" xmlns="http://www.w3.org/2000/svg" xmlns:xlink="http://www.w3.org/1999/xlink" x="0px" y="0px"
	 viewBox="0 0 512 512" style="enable-background:new 0 0 512 512;" xml:space="preserve">
<path d="M487.4,347.1l-96-40c-16.3-6.8-35.2-2.1-46.3,11.6L304.7,368c-70.4-33.3-127.4-90.3-160.7-160.7l49.3-40.3
	c13.7-11.2,18.4-30,11.6-46.3l-40-96v-0.1c-7.7-18.6-28-28.5-47.4-23.2l-88,24C12.1,30.2,0,46,0,64c0,247.4,200.6,448,448,448
	c18,0,33.8-12.1,38.6-29.5l24-88C515.9,375.1,506,354.8,487.4,347.1z M496.9,390.8l-24,88c-3.1,11.2-13.3,19.1-24.9,19.1
	c-58.6,0-115.4-11.5-168.9-34.1c-51.7-21.9-98.1-53.1-137.9-93c-39.8-39.8-71.1-86.2-93-137.9C25.6,179.4,14.2,122.6,14.2,64
	c0-11.6,7.9-21.8,19.1-24.9l88-24c2.2-0.6,4.5-0.9,6.8-0.9c9.9,0,18.9,5.7,23.1,14.5l40.6,97.5c4.4,10.6,1.4,22.6-7.5,29.9
	l-57.9,47.3l4.7,10c34.7,73.3,94.1,132.8,167.5,167.5l10,4.7l47.4-57.9c4.9-6.1,12.2-9.5,20-9.5c3.4,0,6.8,0.7,9.9,2l96,40
	C493.9,365.1,500.3,378.3,496.9,390.8z"/>
</svg>
